<?xml version="1.0" encoding="UTF-8" standalone="no"?>
<!-- Created with Inkscape (http://www.inkscape.org/) -->

<svg
   width="83.651016mm"
   height="43.630142mm"
   viewBox="0 0 83.651016 43.630142"
   version="1.1"
   id="svg5"
   inkscape:version="1.1.2 (0a00cf5339, 2022-02-04)"
   sodipodi:docname="workingprinciple.svg"
   xmlns:inkscape="http://www.inkscape.org/namespaces/inkscape"
   xmlns:sodipodi="http://sodipodi.sourceforge.net/DTD/sodipodi-0.dtd"
   xmlns:xlink="http://www.w3.org/1999/xlink"
   xmlns="http://www.w3.org/2000/svg"
   xmlns:svg="http://www.w3.org/2000/svg">
  <sodipodi:namedview
     id="namedview7"
     pagecolor="#ffffff"
     bordercolor="#000000"
     borderopacity="0.25"
     inkscape:pageshadow="2"
     inkscape:pageopacity="0.0"
     inkscape:pagecheckerboard="0"
     inkscape:document-units="mm"
     showgrid="false"
     inkscape:zoom="1.4224557"
     inkscape:cx="189.10958"
     inkscape:cy="112.83304"
     inkscape:window-width="1366"
     inkscape:window-height="642"
     inkscape:window-x="0"
     inkscape:window-y="0"
     inkscape:window-maximized="1"
     inkscape:current-layer="g827"
     fit-margin-top="0"
     fit-margin-left="0"
     fit-margin-right="0"
     fit-margin-bottom="0" />
  <defs
     id="defs2">
    <pattern
       inkscape:collect="always"
       xlink:href="#pattern1099"
       id="pattern1901"
       patternTransform="matrix(5.86647e-4,0.00253967,-0.00253964,5.8665404e-4,60.242619,-227.91619)" />
    <pattern
       inkscape:collect="always"
       xlink:href="#pattern955"
       id="pattern1899"
       patternTransform="matrix(-6.0704178e-4,-0.00253964,0.00262793,-5.86647e-4,-117.69587,806.40596)" />
    <clipPath
       clipPathUnits="userSpaceOnUse"
       id="clipPath837">
      <path
         d="m 7.672,45.691 h 14.34 v 35.02 H 7.672 Z"
         id="path835" />
    </clipPath>
    <clipPath
       clipPathUnits="userSpaceOnUse"
       id="clipPath847">
      <path
         d="M 0,0 H 239 V 125 H 0 Z"
         id="path845" />
    </clipPath>
    <clipPath
       clipPathUnits="userSpaceOnUse"
       id="clipPath861">
      <path
         d="m 187.117,41.578 h 25.68 v 34.137 h -25.68 z"
         id="path859" />
    </clipPath>
    <clipPath
       clipPathUnits="userSpaceOnUse"
       id="clipPath871">
      <path
         d="M 0,0 H 239 V 125 H 0 Z"
         id="path869" />
    </clipPath>
    <clipPath
       clipPathUnits="userSpaceOnUse"
       id="clipPath885">
      <path
         d="M 46.414,25.863 H 178.223 V 49.48 H 46.414 Z"
         id="path883" />
    </clipPath>
    <clipPath
       clipPathUnits="userSpaceOnUse"
       id="clipPath895">
      <path
         d="M 0,0 H 239 V 125 H 0 Z"
         id="path893" />
    </clipPath>
    <clipPath
       clipPathUnits="userSpaceOnUse"
       id="clipPath945">
      <path
         d="M 0,0 H 1100 V 100 H 0 Z"
         id="path943" />
    </clipPath>
    <pattern
       patternTransform="matrix(-6.0704178e-4,-0.00253964,0.00262793,-5.86647e-4,-90.489367,517.158)"
       patternUnits="userSpaceOnUse"
       x="0"
       y="0"
       width="1100"
       height="100"
       id="pattern955">
      <g
         id="g953">
        <g
           clip-path="url(#clipPath945)"
           id="g951">
          <g
             id="g949">
            <path
               d="m 0,-50 100,0 0,200 -100,0 0,-200 z"
               style="fill:#000000;fill-opacity:1;fill-rule:nonzero;stroke:none"
               id="path947" />
          </g>
        </g>
      </g>
    </pattern>
    <clipPath
       clipPathUnits="userSpaceOnUse"
       id="clipPath969">
      <path
         d="m 201.973,72.238 h 19.559 v 24.324 h -19.559 z"
         id="path967" />
    </clipPath>
    <clipPath
       clipPathUnits="userSpaceOnUse"
       id="clipPath979">
      <path
         d="M 0,0 H 239 V 125 H 0 Z"
         id="path977" />
    </clipPath>
    <clipPath
       clipPathUnits="userSpaceOnUse"
       id="clipPath993">
      <path
         d="M 2.082,12.617 H 26.41 V 31.949 H 2.082 Z"
         id="path991" />
    </clipPath>
    <clipPath
       clipPathUnits="userSpaceOnUse"
       id="clipPath1003">
      <path
         d="M 0,0 H 239 V 125 H 0 Z"
         id="path1001" />
    </clipPath>
    <clipPath
       clipPathUnits="userSpaceOnUse"
       id="clipPath1017">
      <path
         d="M 17.93,26.594 H 37.719 V 50.922 H 17.93 Z"
         id="path1015" />
    </clipPath>
    <clipPath
       clipPathUnits="userSpaceOnUse"
       id="clipPath1027">
      <path
         d="M 0,0 H 239 V 125 H 0 Z"
         id="path1025" />
    </clipPath>
    <clipPath
       clipPathUnits="userSpaceOnUse"
       id="clipPath1041">
      <path
         d="m 182.477,26.594 h 19.789 v 24.328 h -19.789 z"
         id="path1039" />
    </clipPath>
    <clipPath
       clipPathUnits="userSpaceOnUse"
       id="clipPath1051">
      <path
         d="M 0,0 H 239 V 125 H 0 Z"
         id="path1049" />
    </clipPath>
    <clipPath
       clipPathUnits="userSpaceOnUse"
       id="clipPath1089">
      <path
         d="M 0,0 H 1100 V 100 H 0 Z"
         id="path1087" />
    </clipPath>
    <pattern
       patternTransform="matrix(5.86647e-4,0.00253967,-0.00253964,5.8665404e-4,87.449122,-517.16415)"
       patternUnits="userSpaceOnUse"
       x="0"
       y="0"
       width="1100"
       height="100"
       id="pattern1099">
      <g
         id="g1097">
        <g
           clip-path="url(#clipPath1089)"
           id="g1095">
          <g
             id="g1093">
            <path
               d="m 0,-50 100,0 0,200 -100,0 0,-200 z"
               style="fill:#000000;fill-opacity:1;fill-rule:nonzero;stroke:none"
               id="path1091" />
          </g>
        </g>
      </g>
    </pattern>
    <clipPath
       clipPathUnits="userSpaceOnUse"
       id="clipPath1147">
      <path
         d="m 186.41,91.191 h 24.328 v 19.332 H 186.41 Z"
         id="path1145" />
    </clipPath>
    <clipPath
       clipPathUnits="userSpaceOnUse"
       id="clipPath1157">
      <path
         d="M 0,0 H 239 V 125 H 0 Z"
         id="path1155" />
    </clipPath>
  </defs>
  <g
     inkscape:label="Layer 1"
     inkscape:groupmode="layer"
     id="layer1"
     transform="translate(9.5978494,-102.04025)">
    <g
       id="g827"
       inkscape:label="workingprinciple"
       transform="matrix(0.35277777,0,0,0.35277777,-9.5978494,102.04025)">
      <g
         id="g829" />
      <g
         id="g831">
        <g
           id="g833"
           clip-path="url(#clipPath837)">
          <g
             id="g839">
            <g
               id="g841">
              <g
                 id="g843"
                 clip-path="url(#clipPath847)">
                <g
                   id="g849">
                  <g
                     id="g851"
                     transform="scale(-1,0.992461)">
                    <path
                       d="m -14.449,22.679 c -0.602,0.307 -1.203,0.618 -1.762,0.925 -0.559,0.311 -1.074,0.618 -1.512,0.929 -0.433,0.307 -0.789,0.618 -1.039,0.925 -0.25,0.31 -0.394,0.617 -0.422,0.928 -0.031,0.307 0.059,0.618 0.254,0.925 0.196,0.311 0.504,0.618 0.899,0.929 0.394,0.307 0.875,0.618 1.41,0.925 0.535,0.311 1.121,0.618 1.719,0.929 0.601,0.311 1.211,0.618 1.789,0.929 0.574,0.307 1.121,0.618 1.593,0.925 0.473,0.311 0.875,0.618 1.176,0.929 0.301,0.307 0.5,0.618 0.586,0.929 0.086,0.307 0.055,0.618 -0.086,0.925 -0.14,0.311 -0.398,0.618 -0.746,0.928 -0.348,0.307 -0.793,0.618 -1.297,0.925 -0.508,0.311 -1.074,0.618 -1.668,0.929 -0.59,0.307 -1.203,0.618 -1.793,0.925 -0.59,0.311 -1.16,0.618 -1.664,0.929 -0.508,0.307 -0.949,0.618 -1.3,0.925 -0.348,0.311 -0.602,0.618 -0.743,0.929 -0.144,0.311 -0.172,0.618 -0.086,0.929 0.086,0.307 0.286,0.618 0.586,0.925 0.301,0.311 0.703,0.618 1.176,0.929 0.473,0.307 1.016,0.618 1.594,0.925 0.578,0.311 1.187,0.618 1.785,0.928 0.598,0.307 1.188,0.618 1.723,0.925 0.535,0.311 1.015,0.618 1.41,0.929 0.394,0.307 0.699,0.618 0.894,0.929 0.2,0.307 0.285,0.618 0.258,0.925 -0.031,0.311 -0.176,0.618 -0.426,0.929 -0.246,0.307 -0.601,0.618 -1.039,0.925 -0.433,0.311 -0.949,0.618 -1.508,0.929 -0.558,0.311 -1.16,0.618 -1.761,0.929 -0.602,0.307 -1.203,0.618 -1.762,0.925 -0.559,0.311 -1.074,0.618 -1.512,0.928 -0.433,0.307 -0.789,0.618 -1.039,0.925 -0.25,0.311 -0.394,0.618 -0.422,0.929 -0.031,0.307 0.059,0.618 0.254,0.925 0.196,0.311 0.504,0.618 0.899,0.929 0.394,0.307 0.875,0.618 1.41,0.925 0.535,0.311 1.121,0.618 1.719,0.929 0.601,0.307 1.211,0.618 1.789,0.925 0.574,0.311 1.121,0.622 1.593,0.929 0.473,0.311 0.872,0.618 1.176,0.929 0.301,0.307 0.5,0.618 0.586,0.925 0.086,0.311 0.055,0.618 -0.086,0.928 -0.14,0.307 -0.398,0.618 -0.746,0.925 -0.348,0.311 -0.793,0.618 -1.297,0.929 -0.508,0.311 -1.074,0.618 -1.668,0.929 -0.59,0.307 -1.203,0.618 -1.793,0.925 -0.59,0.311 -1.16,0.618 -1.664,0.929 -0.508,0.307 -0.949,0.618 -1.3,0.925 -0.348,0.311 -0.602,0.618 -0.743,0.929 -0.144,0.311 -0.172,0.618 -0.086,0.929 0.086,0.307 0.286,0.618 0.586,0.925 0.301,0.311 0.703,0.618 1.176,0.928 0.473,0.307 1.016,0.618 1.594,0.925 0.578,0.311 1.187,0.618 1.785,0.929 0.598,0.307 1.188,0.618 1.723,0.925 0.535,0.311 1.015,0.618 1.41,0.929 0.394,0.307 0.699,0.618 0.894,0.925 0.2,0.311 0.285,0.618 0.258,0.929 -0.031,0.307 -0.176,0.618 -0.426,0.925 -0.25,0.311 -0.601,0.618 -1.039,0.929 -0.433,0.311 -0.949,0.618 -1.508,0.929 -0.558,0.307 -1.16,0.618 -1.761,0.925 -0.602,0.311 -1.203,0.618 -1.762,0.928 -0.559,0.307 -1.074,0.618 -1.512,0.925 -0.433,0.311 -0.789,0.622 -1.039,0.929 -0.25,0.311 -0.394,0.618 -0.422,0.929 -0.031,0.307 0.059,0.618 0.254,0.925 0.196,0.311 0.504,0.618 0.899,0.929 0.394,0.307 0.875,0.618 1.41,0.925 0.535,0.311 1.121,0.618 1.719,0.929 0.601,0.307 1.211,0.618 1.789,0.925 0.574,0.311 1.121,0.622 1.593,0.929 0.473,0.311 0.872,0.618 1.176,0.929 0.301,0.307 0.5,0.617 0.586,0.924 0.086,0.311 0.055,0.618 -0.086,0.929 -0.14,0.307 -0.398,0.618 -0.746,0.925 -0.348,0.311 -0.793,0.618 -1.297,0.929 -0.508,0.307 -1.074,0.618 -1.668,0.925 -0.59,0.311 -1.203,0.618 -1.793,0.929 -0.59,0.307 -1.16,0.618 -1.664,0.925 -0.508,0.311 -0.949,0.622 -1.3,0.929 -0.348,0.311 -0.602,0.618 -0.743,0.929 -0.144,0.307 -0.172,0.618 -0.086,0.925 0.086,0.311 0.286,0.618 0.586,0.928 0.301,0.311 0.703,0.618 1.176,0.929 0.473,0.307 1.016,0.618 1.594,0.925 0.578,0.311 1.187,0.618 1.785,0.929 0.598,0.307 1.188,0.618 1.723,0.925 0.535,0.311 1.015,0.618 1.41,0.929 0.394,0.307 0.699,0.618 0.894,0.925 0.2,0.311 0.285,0.618 0.258,0.929 -0.031,0.307 -0.176,0.618 -0.426,0.925 -0.25,0.311 -0.605,0.618 -1.039,0.929 -0.433,0.311 -0.949,0.618 -1.508,0.929 -0.558,0.307 -1.16,0.617 -1.761,0.924"
                       style="fill:none;stroke:#ab0000;stroke-width:0.812257;stroke-linecap:butt;stroke-linejoin:miter;stroke-miterlimit:4;stroke-dasharray:none;stroke-opacity:1"
                       id="path853" />
                  </g>
                </g>
              </g>
            </g>
          </g>
        </g>
      </g>
      <g
         id="g855">
        <g
           id="g857"
           clip-path="url(#clipPath861)">
          <g
             id="g863">
            <g
               id="g865">
              <g
                 id="g867"
                 clip-path="url(#clipPath871)">
                <g
                   id="g873">
                  <g
                     id="g875"
                     transform="scale(1,0.946443)">
                    <path
                       d="m 199.898,14.214 c -0.601,0.31 -1.203,0.615 -1.761,0.929 -0.559,0.305 -1.075,0.615 -1.512,0.925 -0.434,0.309 -0.789,0.619 -1.039,0.928 -0.25,0.306 -0.395,0.615 -0.422,0.929 -0.031,0.305 0.059,0.615 0.254,0.924 0.195,0.31 0.504,0.619 0.898,0.929 0.391,0.305 0.875,0.615 1.411,0.925 0.535,0.309 1.121,0.619 1.718,0.928 0.602,0.31 1.211,0.619 1.789,0.929 0.575,0.305 1.121,0.615 1.594,0.924 0.473,0.31 0.871,0.619 1.176,0.929 0.297,0.31 0.5,0.619 0.586,0.929 0.086,0.305 0.055,0.615 -0.086,0.924 -0.141,0.31 -0.399,0.619 -0.746,0.929 -0.348,0.309 -0.793,0.619 -1.297,0.924 -0.508,0.31 -1.074,0.619 -1.668,0.929 -0.59,0.309 -1.203,0.619 -1.793,0.929 -0.59,0.309 -1.16,0.619 -1.664,0.924 -0.508,0.31 -0.949,0.619 -1.301,0.929 -0.347,0.309 -0.601,0.619 -0.746,0.928 -0.141,0.31 -0.168,0.619 -0.082,0.925 0.082,0.309 0.285,0.619 0.586,0.929 0.301,0.309 0.703,0.619 1.176,0.928 0.472,0.31 1.015,0.615 1.593,0.925 0.579,0.309 1.188,0.619 1.786,0.928 0.597,0.31 1.187,0.619 1.722,0.929 0.535,0.309 1.016,0.615 1.41,0.924 0.395,0.31 0.7,0.62 0.895,0.929 0.199,0.31 0.285,0.619 0.258,0.929 -0.031,0.309 -0.176,0.615 -0.426,0.924 -0.25,0.31 -0.605,0.619 -1.039,0.929 -0.434,0.309 -0.949,0.615 -1.508,0.929 -0.558,0.309 -1.16,0.615 -1.762,0.924 -0.601,0.31 -1.203,0.619 -1.761,0.929 -0.559,0.309 -1.075,0.615 -1.512,0.928 -0.434,0.306 -0.789,0.615 -1.039,0.925 -0.25,0.309 -0.395,0.619 -0.422,0.928 -0.031,0.31 0.059,0.615 0.254,0.925 0.195,0.31 0.504,0.619 0.898,0.929 0.391,0.309 0.875,0.619 1.411,0.928 0.535,0.31 1.121,0.615 1.718,0.925 0.602,0.309 1.211,0.619 1.789,0.928 0.575,0.31 1.121,0.62 1.594,0.929 0.473,0.306 0.871,0.615 1.172,0.925 0.301,0.309 0.504,0.619 0.59,0.928 0.086,0.31 0.055,0.619 -0.086,0.929 -0.141,0.305 -0.399,0.615 -0.746,0.924 -0.348,0.31 -0.793,0.619 -1.297,0.929 -0.508,0.31 -1.078,0.619 -1.668,0.929 -0.59,0.305 -1.203,0.615 -1.793,0.924 -0.59,0.31 -1.16,0.619 -1.664,0.929 -0.508,0.309 -0.949,0.619 -1.301,0.924 -0.347,0.31 -0.601,0.619 -0.746,0.929 -0.141,0.31 -0.168,0.619 -0.082,0.929 0.082,0.309 0.285,0.619 0.586,0.924 0.301,0.31 0.699,0.619 1.176,0.929 0.472,0.309 1.015,0.619 1.593,0.928 0.579,0.31 1.188,0.62 1.786,0.925 0.597,0.309 1.187,0.619 1.722,0.929 0.535,0.309 1.016,0.619 1.41,0.928 0.395,0.31 0.7,0.619 0.895,0.925 0.199,0.309 0.285,0.619 0.258,0.928 -0.031,0.31 -0.176,0.619 -0.426,0.929 -0.25,0.31 -0.605,0.615 -1.039,0.925 -0.434,0.309 -0.949,0.619 -1.508,0.928 -0.558,0.31 -1.16,0.619 -1.762,0.925 -0.601,0.313 -1.203,0.619 -1.761,0.928 -0.559,0.31 -1.075,0.619 -1.512,0.929 -0.434,0.31 -0.789,0.619 -1.039,0.924 -0.25,0.314 -0.395,0.62 -0.422,0.929 -0.031,0.31 0.059,0.619 0.254,0.929 0.195,0.309 0.504,0.615 0.898,0.924 0.391,0.314 0.875,0.619 1.411,0.929 0.535,0.309 1.121,0.619 1.718,0.929 0.602,0.309 1.211,0.615 1.789,0.924 0.575,0.31 1.121,0.619 1.594,0.929 0.473,0.309 0.871,0.619 1.172,0.928 0.301,0.31 0.504,0.615 0.59,0.925 0.086,0.309 0.055,0.619 -0.086,0.929 -0.145,0.309 -0.399,0.619 -0.746,0.928 -0.348,0.31 -0.793,0.615 -1.297,0.925 -0.508,0.309 -1.078,0.619 -1.668,0.928 -0.59,0.31 -1.203,0.619 -1.793,0.929 -0.59,0.305 -1.16,0.615 -1.664,0.924 -0.508,0.31 -0.949,0.62 -1.301,0.929 -0.347,0.31 -0.601,0.619 -0.746,0.929 -0.141,0.305 -0.168,0.615 -0.082,0.924 0.082,0.31 0.285,0.619 0.586,0.929 0.301,0.309 0.699,0.619 1.176,0.929 0.472,0.305 1.015,0.615 1.593,0.924 0.579,0.31 1.188,0.619 1.786,0.929 0.597,0.309 1.187,0.619 1.722,0.924 0.535,0.31 1.016,0.619 1.41,0.929 0.395,0.309 0.7,0.619 0.895,0.929 0.199,0.309 0.285,0.619 0.258,0.924 -0.031,0.31 -0.176,0.619 -0.426,0.929 -0.25,0.309 -0.605,0.619 -1.039,0.928 -0.434,0.31 -0.949,0.619 -1.508,0.925 -0.558,0.309 -1.16,0.619 -1.762,0.928"
                       style="fill:none;stroke:#ab0000;stroke-width:0.831767;stroke-linecap:butt;stroke-linejoin:miter;stroke-miterlimit:4;stroke-dasharray:none;stroke-opacity:1"
                       id="path877" />
                  </g>
                </g>
              </g>
            </g>
          </g>
        </g>
      </g>
      <g
         id="g879">
        <g
           id="g881"
           clip-path="url(#clipPath885)">
          <g
             id="g887">
            <g
               id="g889">
              <g
                 id="g891"
                 clip-path="url(#clipPath895)">
                <g
                   id="g897">
                  <g
                     id="g899"
                     transform="scale(0.837693,1)">
                    <path
                       d="m 113.122,38.551 c 0.177,-0.602 0.359,-1.203 0.541,-1.762 0.177,-0.559 0.359,-1.07 0.541,-1.508 0.177,-0.433 0.359,-0.789 0.541,-1.039 0.177,-0.25 0.359,-0.394 0.541,-0.426 0.182,-0.027 0.359,0.059 0.541,0.258 0.182,0.196 0.359,0.504 0.541,0.895 0.182,0.394 0.364,0.879 0.541,1.41 0.182,0.535 0.363,1.125 0.541,1.723 0.182,0.597 0.363,1.207 0.541,1.785 0.181,0.578 0.363,1.121 0.54,1.597 0.182,0.473 0.364,0.871 0.546,1.172 0.177,0.301 0.359,0.504 0.541,0.586 0.177,0.086 0.359,0.059 0.541,-0.082 0.182,-0.144 0.359,-0.398 0.541,-0.746 0.182,-0.348 0.359,-0.793 0.541,-1.301 0.182,-0.504 0.359,-1.074 0.541,-1.664 0.182,-0.59 0.359,-1.203 0.541,-1.793 0.181,-0.59 0.363,-1.16 0.541,-1.668 0.181,-0.504 0.363,-0.949 0.54,-1.297 0.182,-0.347 0.364,-0.601 0.546,-0.746 0.177,-0.14 0.359,-0.172 0.541,-0.086 0.177,0.086 0.359,0.289 0.541,0.59 0.177,0.301 0.359,0.699 0.541,1.172 0.177,0.473 0.359,1.02 0.541,1.598 0.182,0.574 0.359,1.183 0.541,1.785 0.181,0.598 0.359,1.187 0.541,1.719 0.181,0.535 0.359,1.019 0.54,1.414 0.182,0.39 0.364,0.699 0.541,0.894 0.182,0.199 0.364,0.285 0.541,0.254 0.182,-0.027 0.364,-0.172 0.546,-0.422 0.177,-0.25 0.359,-0.605 0.536,-1.039 0.182,-0.437 0.364,-0.953 0.546,-1.512 0.177,-0.558 0.359,-1.16 0.541,-1.761 0.177,-0.602 0.359,-1.203 0.541,-1.762 0.181,-0.559 0.359,-1.07 0.54,-1.508 0.182,-0.433 0.36,-0.789 0.541,-1.039 0.182,-0.25 0.364,-0.394 0.541,-0.426 0.182,-0.027 0.364,0.059 0.541,0.258 0.182,0.196 0.364,0.504 0.541,0.895 0.182,0.394 0.364,0.879 0.541,1.41 0.182,0.535 0.364,1.125 0.546,1.723 0.177,0.597 0.359,1.207 0.541,1.785 0.177,0.578 0.359,1.121 0.541,1.593 0.177,0.477 0.359,0.875 0.54,1.176 0.182,0.301 0.359,0.504 0.541,0.586 0.182,0.086 0.359,0.059 0.541,-0.082 0.182,-0.144 0.359,-0.398 0.541,-0.746 0.182,-0.348 0.359,-0.793 0.541,-1.301 0.182,-0.504 0.364,-1.074 0.541,-1.664 0.182,-0.59 0.364,-1.203 0.541,-1.793 0.182,-0.59 0.364,-1.16 0.546,-1.668 0.177,-0.504 0.359,-0.949 0.54,-1.297 0.178,-0.347 0.36,-0.601 0.541,-0.746 0.178,-0.14 0.359,-0.172 0.541,-0.086 0.177,0.086 0.359,0.289 0.541,0.59 0.182,0.301 0.359,0.699 0.541,1.172 0.182,0.473 0.359,1.02 0.541,1.598 0.182,0.574 0.364,1.183 0.541,1.785 0.182,0.598 0.364,1.187 0.541,1.719 0.182,0.535 0.364,1.019 0.541,1.414 0.182,0.39 0.364,0.699 0.541,0.894 0.182,0.196 0.363,0.285 0.545,0.254 0.178,-0.027 0.359,-0.172 0.541,-0.422 0.177,-0.25 0.359,-0.605 0.541,-1.039 0.182,-0.437 0.359,-0.953 0.541,-1.512 0.182,-0.558 0.359,-1.16 0.541,-1.761 0.182,-0.602 0.359,-1.203 0.541,-1.762 0.182,-0.559 0.359,-1.07 0.541,-1.508 0.182,-0.433 0.364,-0.789 0.541,-1.039 0.182,-0.25 0.363,-0.394 0.541,-0.426 0.182,-0.027 0.363,0.059 0.541,0.258 0.181,0.196 0.363,0.504 0.545,0.895 0.177,0.394 0.359,0.879 0.541,1.41 0.177,0.535 0.359,1.125 0.541,1.723 0.177,0.597 0.359,1.207 0.541,1.785 0.177,0.578 0.359,1.121 0.541,1.593 0.182,0.477 0.359,0.875 0.541,1.176 0.182,0.301 0.359,0.504 0.541,0.586 0.182,0.086 0.363,0.059 0.541,-0.082 0.181,-0.144 0.363,-0.398 0.541,-0.746 0.181,-0.348 0.363,-0.793 0.54,-1.301 0.182,-0.504 0.364,-1.074 0.541,-1.664 0.182,-0.59 0.364,-1.203 0.546,-1.793 0.177,-0.59 0.359,-1.16 0.541,-1.668 0.177,-0.504 0.359,-0.949 0.541,-1.297 0.182,-0.347 0.359,-0.601 0.541,-0.746 0.182,-0.14 0.359,-0.172 0.541,-0.086 0.182,0.086 0.359,0.289 0.541,0.59 0.181,0.301 0.359,0.699 0.54,1.172 0.182,0.473 0.364,1.02 0.541,1.598 0.182,0.574 0.364,1.183 0.541,1.785 0.182,0.598 0.364,1.187 0.541,1.719 0.182,0.535 0.364,1.019 0.546,1.41 0.177,0.394 0.359,0.703 0.541,0.898 0.177,0.196 0.359,0.285 0.541,0.254 0.182,-0.027 0.359,-0.172 0.541,-0.422 0.181,-0.25 0.359,-0.605 0.541,-1.039 0.181,-0.437 0.359,-0.953 0.54,-1.512 0.182,-0.558 0.36,-1.16 0.541,-1.761"
                       style="fill:none;stroke:#0042ac;stroke-width:0.675569;stroke-linecap:butt;stroke-linejoin:miter;stroke-miterlimit:4;stroke-dasharray:none;stroke-opacity:1"
                       id="path901" />
                  </g>
                  <g
                     id="g903"
                     transform="scale(0.837693,1)">
                    <path
                       d="m 166.715,38.551 c 0.182,-0.602 0.364,-1.203 0.541,-1.762 0.182,-0.559 0.364,-1.07 0.541,-1.508 0.182,-0.433 0.364,-0.789 0.546,-1.039 0.177,-0.25 0.359,-0.394 0.541,-0.426 0.177,-0.027 0.359,0.059 0.541,0.258 0.177,0.196 0.359,0.504 0.541,0.895 0.177,0.394 0.359,0.879 0.54,1.41 0.182,0.535 0.36,1.125 0.541,1.723 0.182,0.597 0.359,1.207 0.541,1.785 0.182,0.578 0.364,1.121 0.541,1.597 0.182,0.473 0.364,0.871 0.541,1.172 0.182,0.301 0.364,0.504 0.541,0.586 0.182,0.086 0.364,0.059 0.541,-0.082 0.182,-0.144 0.364,-0.398 0.546,-0.746 0.177,-0.348 0.359,-0.793 0.54,-1.301 0.178,-0.504 0.36,-1.074 0.541,-1.664 0.182,-0.59 0.359,-1.203 0.541,-1.793 0.182,-0.59 0.359,-1.16 0.541,-1.668 0.182,-0.504 0.359,-0.949 0.541,-1.297 0.182,-0.347 0.359,-0.601 0.541,-0.746 0.182,-0.14 0.364,-0.172 0.541,-0.086 0.182,0.086 0.364,0.289 0.541,0.59 0.182,0.301 0.364,0.699 0.541,1.172 0.182,0.473 0.364,1.02 0.545,1.598 0.178,0.574 0.359,1.183 0.541,1.785 0.178,0.598 0.359,1.187 0.541,1.719 0.177,0.535 0.359,1.019 0.541,1.414 0.177,0.39 0.359,0.699 0.541,0.894 0.182,0.199 0.359,0.285 0.541,0.254 0.182,-0.027 0.359,-0.172 0.541,-0.422 0.182,-0.25 0.364,-0.605 0.541,-1.039 0.182,-0.437 0.364,-0.953 0.541,-1.512 0.182,-0.558 0.364,-1.16 0.541,-1.761 0.182,-0.602 0.363,-1.203 0.541,-1.762 0.182,-0.559 0.363,-1.07 0.545,-1.508 0.177,-0.433 0.359,-0.789 0.541,-1.039 0.177,-0.25 0.359,-0.394 0.541,-0.426 0.182,-0.027 0.359,0.059 0.541,0.258 0.182,0.196 0.359,0.504 0.541,0.895 0.182,0.394 0.359,0.879 0.541,1.41 0.182,0.535 0.359,1.125 0.541,1.723 0.182,0.597 0.363,1.207 0.541,1.785 0.182,0.578 0.363,1.121 0.541,1.593 0.181,0.477 0.363,0.875 0.541,1.176 0.181,0.301 0.363,0.504 0.545,0.586 0.177,0.086 0.359,0.059 0.541,-0.082 0.177,-0.144 0.359,-0.398 0.541,-0.746 0.177,-0.348 0.359,-0.793 0.541,-1.301 0.182,-0.504 0.359,-1.074 0.541,-1.664 0.182,-0.59 0.359,-1.203 0.541,-1.793 0.182,-0.59 0.359,-1.16 0.541,-1.668 0.181,-0.504 0.363,-0.949 0.541,-1.297 0.181,-0.347 0.363,-0.601 0.54,-0.746 0.182,-0.14 0.364,-0.172 0.541,-0.086 0.182,0.086 0.364,0.289 0.541,0.59 0.182,0.301 0.364,0.699 0.546,1.172 0.177,0.473 0.359,1.02 0.541,1.598 0.177,0.574 0.359,1.183 0.541,1.785 0.182,0.598 0.359,1.187 0.541,1.719 0.182,0.535 0.359,1.019 0.541,1.414 0.181,0.39 0.363,0.699 0.54,0.894 0.182,0.196 0.36,0.285 0.541,0.254 0.182,-0.027 0.364,-0.172 0.541,-0.422 0.182,-0.25 0.364,-0.605 0.541,-1.039 0.182,-0.437 0.364,-0.953 0.546,-1.512 0.177,-0.558 0.359,-1.16 0.541,-1.761 0.177,-0.602 0.359,-1.203 0.541,-1.762 0.177,-0.559 0.359,-1.07 0.541,-1.508 0.181,-0.433 0.359,-0.789 0.541,-1.039 0.181,-0.25 0.359,-0.394 0.54,-0.426 0.182,-0.027 0.359,0.059 0.541,0.258 0.182,0.196 0.359,0.504 0.541,0.895 0.182,0.394 0.364,0.879 0.541,1.41 0.182,0.535 0.364,1.125 0.541,1.723 0.182,0.597 0.364,1.207 0.546,1.785 0.177,0.578 0.359,1.121 0.541,1.593 0.177,0.477 0.359,0.875 0.541,1.176 0.177,0.301 0.359,0.504 0.54,0.586 0.178,0.086 0.36,0.059 0.541,-0.082 0.182,-0.144 0.359,-0.398 0.541,-0.746 0.182,-0.348 0.359,-0.793 0.541,-1.301 0.182,-0.504 0.364,-1.074 0.541,-1.664 0.182,-0.59 0.364,-1.203 0.541,-1.793 0.182,-0.59 0.364,-1.16 0.541,-1.668 0.182,-0.504 0.364,-0.949 0.541,-1.297 0.182,-0.347 0.364,-0.601 0.545,-0.746 0.178,-0.14 0.36,-0.172 0.541,-0.086 0.178,0.086 0.359,0.289 0.541,0.59 0.182,0.301 0.359,0.699 0.541,1.172 0.182,0.473 0.359,1.02 0.541,1.598 0.182,0.574 0.359,1.183 0.541,1.785 0.182,0.598 0.359,1.187 0.541,1.719 0.182,0.535 0.364,1.019 0.541,1.41 0.182,0.394 0.364,0.703 0.541,0.898 0.182,0.196 0.364,0.285 0.541,0.254 0.182,-0.027 0.363,-0.172 0.545,-0.422 0.178,-0.25 0.359,-0.605 0.541,-1.039 0.177,-0.437 0.359,-0.953 0.541,-1.512 0.177,-0.558 0.359,-1.16 0.541,-1.761"
                       style="fill:none;stroke:#0042ac;stroke-width:0.675569;stroke-linecap:butt;stroke-linejoin:miter;stroke-miterlimit:4;stroke-dasharray:none;stroke-opacity:1"
                       id="path905" />
                  </g>
                  <g
                     id="g907"
                     transform="scale(0.837693,1)">
                    <path
                       d="m 59.525,38.551 c 0.181,-0.602 0.359,-1.203 0.54,-1.762 0.182,-0.559 0.36,-1.07 0.541,-1.508 0.182,-0.433 0.359,-0.789 0.541,-1.039 0.182,-0.25 0.364,-0.394 0.541,-0.426 0.182,-0.027 0.364,0.059 0.541,0.258 0.182,0.196 0.364,0.504 0.546,0.895 0.177,0.394 0.359,0.879 0.541,1.41 0.177,0.535 0.359,1.125 0.541,1.723 0.177,0.597 0.359,1.207 0.54,1.785 0.178,0.578 0.36,1.121 0.541,1.597 0.182,0.473 0.359,0.871 0.541,1.172 0.182,0.301 0.359,0.504 0.541,0.586 0.182,0.086 0.364,0.059 0.541,-0.082 0.182,-0.144 0.364,-0.398 0.541,-0.746 0.182,-0.348 0.364,-0.793 0.541,-1.301 0.182,-0.504 0.364,-1.074 0.541,-1.664 0.182,-0.59 0.364,-1.203 0.546,-1.793 0.177,-0.59 0.359,-1.16 0.54,-1.668 0.178,-0.504 0.359,-0.949 0.541,-1.297 0.178,-0.347 0.359,-0.601 0.541,-0.746 0.182,-0.14 0.359,-0.172 0.541,-0.086 0.182,0.086 0.359,0.289 0.541,0.59 0.182,0.301 0.359,0.699 0.541,1.172 0.182,0.473 0.359,1.02 0.541,1.598 0.182,0.574 0.364,1.183 0.541,1.785 0.182,0.598 0.364,1.187 0.541,1.719 0.182,0.535 0.364,1.019 0.545,1.414 0.178,0.39 0.359,0.699 0.541,0.894 0.178,0.199 0.359,0.285 0.541,0.254 0.177,-0.027 0.359,-0.172 0.541,-0.422 0.177,-0.25 0.359,-0.605 0.541,-1.039 0.182,-0.437 0.359,-0.953 0.541,-1.512 0.182,-0.558 0.359,-1.16 0.541,-1.761 0.182,-0.602 0.364,-1.203 0.541,-1.762 0.182,-0.559 0.364,-1.07 0.541,-1.508 0.182,-0.433 0.363,-0.789 0.541,-1.039 0.182,-0.25 0.363,-0.394 0.541,-0.426 0.181,-0.027 0.363,0.059 0.545,0.258 0.177,0.196 0.359,0.504 0.541,0.895 0.177,0.394 0.359,0.879 0.541,1.41 0.182,0.535 0.359,1.125 0.541,1.723 0.182,0.597 0.359,1.207 0.541,1.785 0.182,0.578 0.359,1.121 0.541,1.593 0.182,0.477 0.359,0.875 0.541,1.176 0.182,0.301 0.363,0.504 0.541,0.586 0.181,0.086 0.363,0.059 0.541,-0.082 0.181,-0.144 0.363,-0.398 0.54,-0.746 0.182,-0.348 0.364,-0.793 0.546,-1.301 0.177,-0.504 0.359,-1.074 0.541,-1.664 0.177,-0.59 0.359,-1.203 0.541,-1.793 0.177,-0.59 0.359,-1.16 0.541,-1.668 0.177,-0.504 0.359,-0.949 0.541,-1.297 0.182,-0.347 0.359,-0.601 0.541,-0.746 0.181,-0.14 0.359,-0.172 0.541,-0.086 0.181,0.086 0.363,0.289 0.54,0.59 0.182,0.301 0.364,0.699 0.541,1.172 0.182,0.473 0.364,1.02 0.541,1.598 0.182,0.574 0.364,1.183 0.541,1.785 0.182,0.598 0.364,1.187 0.546,1.719 0.177,0.535 0.359,1.019 0.541,1.414 0.177,0.39 0.359,0.699 0.541,0.894 0.182,0.196 0.359,0.285 0.541,0.254 0.181,-0.027 0.359,-0.172 0.541,-0.422 0.181,-0.25 0.359,-0.605 0.54,-1.039 0.182,-0.437 0.359,-0.953 0.541,-1.512 0.182,-0.558 0.364,-1.16 0.541,-1.761 0.182,-0.602 0.364,-1.203 0.541,-1.762 0.182,-0.559 0.364,-1.07 0.541,-1.508 0.182,-0.433 0.364,-0.789 0.546,-1.039 0.177,-0.25 0.359,-0.394 0.541,-0.426 0.177,-0.027 0.359,0.059 0.541,0.258 0.181,0.196 0.359,0.504 0.54,0.895 0.182,0.394 0.36,0.879 0.541,1.41 0.182,0.535 0.359,1.125 0.541,1.723 0.182,0.597 0.359,1.207 0.541,1.785 0.182,0.578 0.364,1.121 0.541,1.593 0.182,0.477 0.364,0.875 0.541,1.176 0.182,0.301 0.364,0.504 0.546,0.586 0.177,0.086 0.359,0.059 0.541,-0.082 0.177,-0.144 0.359,-0.398 0.54,-0.746 0.178,-0.348 0.36,-0.793 0.541,-1.301 0.178,-0.504 0.359,-1.074 0.541,-1.664 0.182,-0.59 0.359,-1.203 0.541,-1.793 0.182,-0.59 0.359,-1.16 0.541,-1.668 0.182,-0.504 0.364,-0.949 0.541,-1.297 0.182,-0.347 0.364,-0.601 0.541,-0.746 0.182,-0.14 0.364,-0.172 0.541,-0.086 0.182,0.086 0.364,0.289 0.541,0.59 0.182,0.301 0.364,0.699 0.545,1.172 0.178,0.473 0.359,1.02 0.541,1.598 0.178,0.574 0.359,1.183 0.541,1.785 0.177,0.598 0.359,1.187 0.541,1.719 0.182,0.535 0.359,1.019 0.541,1.41 0.182,0.394 0.359,0.703 0.541,0.898 0.182,0.196 0.359,0.285 0.541,0.254 0.182,-0.027 0.359,-0.172 0.541,-0.422 0.182,-0.25 0.364,-0.605 0.541,-1.039 0.182,-0.437 0.364,-0.953 0.541,-1.512 0.182,-0.558 0.363,-1.16 0.545,-1.761"
                       style="fill:none;stroke:#0042ac;stroke-width:0.675569;stroke-linecap:butt;stroke-linejoin:miter;stroke-miterlimit:4;stroke-dasharray:none;stroke-opacity:1"
                       id="path909" />
                  </g>
                </g>
              </g>
            </g>
          </g>
        </g>
      </g>
      <g
         id="g911">
        <path
           d="m 167.426,31.562 h 15.051 v 15.051 h -15.051 z"
           style="fill:#505050;fill-opacity:1;fill-rule:nonzero;stroke:none"
           id="path913" />
        <g
           id="g915"
           transform="scale(0.966403,-1)">
          <path
             d="m 106.092,-84.195 c -0.308,-0.602 -0.619,-1.203 -0.926,-1.762 -0.311,-0.559 -0.618,-1.074 -0.93,-1.508 -0.307,-0.437 -0.614,-0.793 -0.925,-1.043 -0.307,-0.25 -0.619,-0.394 -0.93,-0.422 -0.307,-0.027 -0.618,0.059 -0.926,0.254 -0.307,0.199 -0.618,0.504 -0.925,0.899 -0.311,0.394 -0.619,0.875 -0.926,1.41 -0.311,0.535 -0.618,1.121 -0.929,1.722 -0.312,0.598 -0.619,1.207 -0.926,1.786 -0.311,0.578 -0.619,1.121 -0.93,1.593 -0.307,0.473 -0.618,0.875 -0.925,1.176 -0.308,0.301 -0.619,0.5 -0.93,0.586 -0.307,0.086 -0.619,0.055 -0.926,-0.086 -0.307,-0.14 -0.618,-0.394 -0.925,-0.746 -0.312,-0.348 -0.619,-0.793 -0.93,-1.297 -0.307,-0.508 -0.614,-1.074 -0.926,-1.664 -0.311,-0.594 -0.618,-1.207 -0.929,-1.797 -0.308,-0.59 -0.615,-1.16 -0.926,-1.664 -0.307,-0.508 -0.618,-0.949 -0.926,-1.301 -0.311,-0.347 -0.618,-0.601 -0.929,-0.742 -0.307,-0.144 -0.619,-0.172 -0.926,-0.086 -0.311,0.086 -0.618,0.285 -0.926,0.586 -0.311,0.301 -0.618,0.703 -0.929,1.176 -0.307,0.473 -0.619,1.016 -0.926,1.594 -0.311,0.578 -0.618,1.187 -0.929,1.785 -0.308,0.601 -0.619,1.187 -0.926,1.723 -0.307,0.535 -0.619,1.015 -0.926,1.41 -0.311,0.394 -0.618,0.699 -0.929,0.898 -0.308,0.195 -0.619,0.281 -0.926,0.254 -0.311,-0.027 -0.618,-0.172 -0.93,-0.422 -0.307,-0.25 -0.614,-0.605 -0.925,-1.043 -0.308,-0.433 -0.619,-0.949 -0.926,-1.508 -0.311,-0.558 -0.618,-1.16 -0.93,-1.761 -0.307,-0.602 -0.618,-1.203 -0.925,-1.762 -0.312,-0.559 -0.619,-1.074 -0.926,-1.508 -0.311,-0.437 -0.618,-0.793 -0.93,-1.043 -0.307,-0.25 -0.618,-0.394 -0.925,-0.422 -0.311,-0.027 -0.619,0.059 -0.93,0.254 -0.307,0.199 -0.618,0.504 -0.926,0.899 -0.307,0.394 -0.618,0.875 -0.925,1.41 -0.311,0.535 -0.619,1.121 -0.93,1.722 -0.307,0.598 -0.618,1.207 -0.925,1.786 -0.312,0.578 -0.619,1.121 -0.93,1.593 -0.307,0.473 -0.615,0.875 -0.926,1.176 -0.307,0.301 -0.618,0.5 -0.925,0.586 -0.312,0.086 -0.619,0.055 -0.93,-0.086 -0.307,-0.14 -0.618,-0.394 -0.926,-0.746 -0.311,-0.348 -0.618,-0.793 -0.925,-1.297 -0.312,-0.508 -0.619,-1.074 -0.93,-1.664 -0.307,-0.594 -0.618,-1.207 -0.926,-1.797 -0.311,-0.59 -0.618,-1.16 -0.929,-1.664 -0.307,-0.508 -0.619,-0.949 -0.926,-1.301 -0.307,-0.347 -0.618,-0.601 -0.926,-0.742 -0.311,-0.144 -0.618,-0.172 -0.929,-0.086 -0.307,0.086 -0.619,0.285 -0.926,0.586 -0.311,0.301 -0.618,0.703 -0.93,1.176 -0.307,0.473 -0.614,1.016 -0.925,1.594 -0.307,0.578 -0.619,1.187 -0.926,1.785 -0.311,0.601 -0.618,1.187 -0.929,1.723 -0.308,0.535 -0.619,1.015 -0.926,1.41 -0.311,0.394 -0.618,0.699 -0.926,0.898 -0.311,0.195 -0.618,0.281 -0.929,0.254 -0.308,-0.027 -0.619,-0.172 -0.926,-0.422 -0.311,-0.25 -0.618,-0.605 -0.93,-1.043 -0.307,-0.433 -0.618,-0.949 -0.925,-1.508 -0.307,-0.558 -0.619,-1.16 -0.926,-1.761 -0.311,-0.602 -0.618,-1.203 -0.93,-1.762 -0.307,-0.559 -0.618,-1.074 -0.925,-1.508 -0.311,-0.437 -0.619,-0.793 -0.93,-1.043 -0.307,-0.25 -0.614,-0.394 -0.926,-0.422 -0.307,-0.027 -0.618,0.059 -0.925,0.254 -0.311,0.199 -0.619,0.504 -0.93,0.899 -0.307,0.394 -0.618,0.875 -0.925,1.41 -0.312,0.535 -0.619,1.121 -0.926,1.722 -0.311,0.598 -0.619,1.207 -0.93,1.786 -0.307,0.578 -0.618,1.121 -0.925,1.593 -0.312,0.473 -0.619,0.875 -0.93,1.176 -0.307,0.301 -0.618,0.5 -0.926,0.586 -0.307,0.086 -0.618,0.055 -0.925,-0.086 -0.312,-0.14 -0.619,-0.394 -0.93,-0.746 -0.307,-0.348 -0.618,-0.793 -0.926,-1.297 -0.311,-0.508 -0.618,-1.074 -0.929,-1.664 -0.307,-0.594 -0.615,-1.203 -0.926,-1.797 -0.307,-0.59 -0.618,-1.16 -0.926,-1.664 -0.311,-0.508 -0.618,-0.949 -0.929,-1.301 -0.307,-0.347 -0.619,-0.601 -0.926,-0.742 -0.311,-0.144 -0.618,-0.172 -0.925,-0.086 -0.312,0.086 -0.619,0.285 -0.93,0.586 -0.311,0.301 -0.619,0.703 -0.926,1.176 -0.311,0.473 -0.618,1.016 -0.929,1.594 -0.308,0.578 -0.619,1.187 -0.926,1.785 -0.307,0.601 -0.619,1.187 -0.926,1.723 -0.311,0.535 -0.622,1.015 -0.929,1.41 -0.308,0.394 -0.619,0.699 -0.926,0.898 -0.311,0.195 -0.618,0.281 -0.93,0.254 -0.307,-0.027 -0.614,-0.172 -0.925,-0.422 -0.312,-0.25 -0.619,-0.605 -0.93,-1.043 -0.307,-0.433 -0.614,-0.949 -0.926,-1.508 -0.307,-0.558 -0.618,-1.16 -0.925,-1.761"
             style="fill:none;stroke:#ab0000;stroke-width:0.823131;stroke-linecap:butt;stroke-linejoin:miter;stroke-miterlimit:4;stroke-dasharray:none;stroke-opacity:1"
             id="path917" />
        </g>
        <g
           id="g919"
           transform="scale(0.966403,-1)">
          <path
             d="m 197.883,-84.195 c -0.308,-0.602 -0.615,-1.203 -0.926,-1.762 -0.307,-0.559 -0.619,-1.074 -0.926,-1.508 -0.311,-0.437 -0.618,-0.793 -0.929,-1.043 -0.308,-0.25 -0.619,-0.394 -0.926,-0.422 -0.311,-0.027 -0.618,0.059 -0.926,0.254 -0.311,0.199 -0.618,0.504 -0.929,0.899 -0.308,0.394 -0.619,0.875 -0.926,1.41 -0.311,0.535 -0.618,1.121 -0.93,1.722 -0.307,0.598 -0.618,1.207 -0.925,1.786 -0.307,0.578 -0.619,1.121 -0.926,1.593 -0.311,0.473 -0.618,0.875 -0.93,1.176 -0.307,0.301 -0.618,0.5 -0.925,0.586 -0.311,0.086 -0.619,0.055 -0.93,-0.086 -0.307,-0.14 -0.614,-0.394 -0.925,-0.746 -0.308,-0.348 -0.619,-0.793 -0.926,-1.297 -0.311,-0.508 -0.619,-1.074 -0.93,-1.664 -0.307,-0.594 -0.618,-1.203 -0.925,-1.797 -0.312,-0.59 -0.619,-1.16 -0.926,-1.664 -0.311,-0.508 -0.618,-0.949 -0.93,-1.301 -0.307,-0.347 -0.618,-0.601 -0.925,-0.742 -0.312,-0.144 -0.619,-0.172 -0.93,-0.086 -0.307,0.086 -0.618,0.285 -0.926,0.586 -0.307,0.301 -0.618,0.703 -0.925,1.176 -0.311,0.473 -0.619,1.016 -0.93,1.594 -0.307,0.578 -0.618,1.187 -0.926,1.785 -0.311,0.601 -0.618,1.187 -0.929,1.723 -0.307,0.535 -0.615,1.015 -0.926,1.41 -0.307,0.394 -0.618,0.699 -0.93,0.898 -0.307,0.195 -0.614,0.281 -0.925,0.254 -0.307,-0.027 -0.619,-0.172 -0.926,-0.422 -0.311,-0.25 -0.618,-0.605 -0.925,-1.043 -0.312,-0.433 -0.619,-0.949 -0.93,-1.508 -0.311,-0.558 -0.619,-1.16 -0.926,-1.761 -0.311,-0.602 -0.618,-1.203 -0.929,-1.762 -0.308,-0.559 -0.619,-1.074 -0.926,-1.508 -0.307,-0.437 -0.618,-0.793 -0.926,-1.043 -0.311,-0.25 -0.622,-0.394 -0.929,-0.422 -0.308,-0.027 -0.619,0.059 -0.926,0.254 -0.311,0.199 -0.618,0.504 -0.93,0.899 -0.307,0.394 -0.614,0.875 -0.925,1.41 -0.311,0.535 -0.619,1.121 -0.93,1.722 -0.307,0.598 -0.614,1.207 -0.926,1.786 -0.307,0.578 -0.618,1.121 -0.925,1.593 -0.307,0.473 -0.619,0.875 -0.926,1.176 -0.311,0.301 -0.622,0.5 -0.929,0.586 -0.312,0.086 -0.619,0.055 -0.926,-0.086 -0.311,-0.14 -0.619,-0.394 -0.93,-0.746 -0.307,-0.348 -0.614,-0.793 -0.925,-1.297 -0.312,-0.508 -0.619,-1.074 -0.93,-1.664 -0.307,-0.594 -0.619,-1.207 -0.926,-1.797 -0.307,-0.59 -0.618,-1.16 -0.925,-1.664 -0.312,-0.508 -0.619,-0.949 -0.926,-1.301 -0.311,-0.347 -0.622,-0.601 -0.93,-0.742 -0.311,-0.144 -0.618,-0.172 -0.929,-0.086 -0.308,0.086 -0.615,0.285 -0.926,0.586 -0.307,0.301 -0.618,0.703 -0.926,1.176 -0.311,0.473 -0.618,1.016 -0.929,1.594 -0.307,0.578 -0.619,1.187 -0.926,1.785 -0.311,0.601 -0.618,1.187 -0.925,1.723 -0.312,0.535 -0.619,1.015 -0.93,1.41 -0.307,0.394 -0.619,0.699 -0.926,0.898 -0.311,0.195 -0.618,0.281 -0.929,0.254 -0.308,-0.027 -0.619,-0.172 -0.926,-0.422 -0.307,-0.25 -0.619,-0.605 -0.926,-1.043 -0.311,-0.433 -0.618,-0.949 -0.929,-1.508 -0.308,-0.558 -0.619,-1.16 -0.926,-1.761 -0.311,-0.602 -0.618,-1.203 -0.93,-1.762 -0.307,-0.559 -0.614,-1.074 -0.925,-1.508 -0.308,-0.437 -0.619,-0.793 -0.926,-1.043 -0.311,-0.25 -0.618,-0.394 -0.93,-0.422 -0.307,-0.027 -0.618,0.059 -0.925,0.254 -0.307,0.199 -0.619,0.504 -0.926,0.899 -0.311,0.394 -0.618,0.875 -0.93,1.41 -0.307,0.535 -0.618,1.121 -0.925,1.722 -0.311,0.598 -0.619,1.207 -0.93,1.786 -0.307,0.578 -0.614,1.121 -0.925,1.593 -0.308,0.473 -0.619,0.875 -0.926,1.176 -0.311,0.301 -0.619,0.5 -0.93,0.586 -0.307,0.086 -0.618,0.055 -0.925,-0.086 -0.312,-0.14 -0.619,-0.394 -0.926,-0.746 -0.311,-0.348 -0.618,-0.789 -0.93,-1.297 -0.307,-0.508 -0.618,-1.074 -0.925,-1.664 -0.312,-0.594 -0.619,-1.203 -0.93,-1.797 -0.307,-0.59 -0.618,-1.16 -0.926,-1.664 -0.307,-0.508 -0.618,-0.949 -0.925,-1.297 -0.312,-0.351 -0.619,-0.605 -0.93,-0.746 -0.307,-0.144 -0.618,-0.172 -0.926,-0.086 -0.311,0.086 -0.618,0.285 -0.929,0.586 -0.307,0.301 -0.615,0.703 -0.926,1.176 -0.307,0.473 -0.618,1.016 -0.926,1.594 -0.311,0.578 -0.618,1.187 -0.929,1.785 -0.307,0.601 -0.619,1.187 -0.926,1.723 -0.311,0.535 -0.618,1.015 -0.925,1.41 -0.312,0.394 -0.619,0.699 -0.93,0.898 -0.307,0.195 -0.619,0.281 -0.926,0.254 -0.311,-0.027 -0.618,-0.172 -0.929,-0.422 -0.308,-0.25 -0.619,-0.605 -0.926,-1.043 -0.307,-0.433 -0.618,-0.949 -0.926,-1.508 -0.311,-0.558 -0.618,-1.16 -0.929,-1.761"
             style="fill:none;stroke:#ab0000;stroke-width:0.823131;stroke-linecap:butt;stroke-linejoin:miter;stroke-miterlimit:4;stroke-dasharray:none;stroke-opacity:1"
             id="path921" />
        </g>
        <path
           d="m 195.809,119.012 h 5.386 l -1.343,2.332 -1.348,2.332 z"
           style="fill:#ab0000;fill-opacity:1;fill-rule:nonzero;stroke:none"
           id="path923" />
        <g
           id="g925">
          <path
             d="M 198.504,120.59 V 107.863"
             style="fill:none;stroke:#ab0000;stroke-width:0.935431;stroke-linecap:butt;stroke-linejoin:miter;stroke-miterlimit:4;stroke-dasharray:none;stroke-opacity:1"
             id="path927" />
        </g>
        <path
           d="m 232.457,86.07 v -5.382 l 2.332,1.343 2.332,1.348 -2.332,1.348 z"
           style="fill:#ab0000;fill-opacity:1;fill-rule:nonzero;stroke:none"
           id="path929" />
        <g
           id="g931"
           transform="rotate(-90)">
          <path
             d="M -83.379,234.035 V 221.309"
             style="fill:none;stroke:#ab0000;stroke-width:0.935431;stroke-linecap:butt;stroke-linejoin:miter;stroke-miterlimit:4;stroke-dasharray:none;stroke-opacity:1"
             id="path933" />
        </g>
        <path
           d="m 11.703,11.148 h 5.387 l -1.348,2.332 -1.344,2.332 z"
           style="fill:#ab0000;fill-opacity:1;fill-rule:nonzero;stroke:none"
           id="path935" />
        <g
           id="g937">
          <path
             d="M 14.398,12.727 V 0"
             style="fill:none;stroke:#ab0000;stroke-width:0.935431;stroke-linecap:butt;stroke-linejoin:miter;stroke-miterlimit:4;stroke-dasharray:none;stroke-opacity:1"
             id="path939" />
        </g>
        <g
           id="g941">
          <path
             d="M 0,80.801 5.289,75.512 22.02,92.238 16.727,97.527"
             style="fill:url(#pattern1899);fill-opacity:1;fill-rule:nonzero;stroke:none"
             id="path957" />
        </g>
        <g
           id="g959"
           transform="matrix(1,1,-1,1,0,0)">
          <path
             d="M 40.4,35.111 57.129,35.109"
             style="fill:none;stroke:#000000;stroke-width:0.770469;stroke-linecap:butt;stroke-linejoin:miter;stroke-miterlimit:4;stroke-dasharray:none;stroke-opacity:1"
             id="path961" />
        </g>
      </g>
      <g
         id="g963">
        <g
           id="g965"
           clip-path="url(#clipPath969)">
          <g
             id="g971">
            <g
               id="g973">
              <g
                 id="g975"
                 clip-path="url(#clipPath979)">
                <g
                   id="g981">
                  <g
                     id="g983"
                     transform="scale(0.859024,1)">
                    <path
                       d="m 331.194,84.195 c -0.309,-0.601 -0.614,-1.203 -0.927,-1.761 -0.305,-0.559 -0.614,-1.075 -0.924,-1.508 -0.309,-0.438 -0.618,-0.793 -0.927,-1.043 -0.309,-0.25 -0.619,-0.395 -0.928,-0.422 -0.309,-0.027 -0.618,0.059 -0.927,0.254 -0.31,0.199 -0.619,0.504 -0.928,0.898 -0.309,0.395 -0.619,0.875 -0.928,1.41 -0.309,0.536 -0.618,1.122 -0.927,1.723 -0.31,0.598 -0.619,1.207 -0.928,1.785 -0.309,0.578 -0.619,1.121 -0.923,1.594 -0.314,0.473 -0.619,0.875 -0.928,1.176 -0.309,0.301 -0.618,0.5 -0.927,0.586 -0.31,0.086 -0.619,0.058 -0.928,-0.086 -0.309,-0.141 -0.619,-0.395 -0.928,-0.746 -0.309,-0.348 -0.618,-0.789 -0.927,-1.297 -0.31,-0.504 -0.619,-1.074 -0.928,-1.664 -0.309,-0.59 -0.619,-1.203 -0.928,-1.797 -0.309,-0.59 -0.618,-1.156 -0.927,-1.664 -0.31,-0.504 -0.619,-0.949 -0.928,-1.297 -0.305,-0.352 -0.618,-0.606 -0.928,-0.746 -0.304,-0.141 -0.618,-0.172 -0.923,-0.086 -0.314,0.086 -0.618,0.285 -0.927,0.586 -0.31,0.301 -0.619,0.703 -0.928,1.176 -0.309,0.472 -0.619,1.019 -0.928,1.593 -0.309,0.579 -0.618,1.188 -0.927,1.789 -0.31,0.598 -0.619,1.184 -0.928,1.719 -0.309,0.535 -0.618,1.016 -0.928,1.41 -0.309,0.395 -0.618,0.7 -0.927,0.899 -0.31,0.195 -0.619,0.281 -0.928,0.254 -0.309,-0.028 -0.614,-0.172 -0.928,-0.422 -0.304,-0.25 -0.618,-0.606 -0.923,-1.039 -0.309,-0.438 -0.618,-0.953 -0.927,-1.512 -0.31,-0.559 -0.619,-1.16 -0.928,-1.762 -0.309,-0.601 -0.618,-1.203 -0.928,-1.761 -0.309,-0.559 -0.618,-1.075 -0.927,-1.508 -0.31,-0.438 -0.619,-0.793 -0.928,-1.043 -0.309,-0.25 -0.618,-0.395 -0.928,-0.422 -0.309,-0.027 -0.618,0.059 -0.927,0.254 -0.31,0.199 -0.619,0.504 -0.928,0.898 -0.309,0.395 -0.614,0.875 -0.928,1.41 -0.309,0.536 -0.614,1.122 -0.927,1.723 -0.305,0.598 -0.614,1.207 -0.923,1.785 -0.31,0.578 -0.619,1.121 -0.928,1.594 -0.309,0.473 -0.618,0.875 -0.928,1.176 -0.309,0.301 -0.618,0.5 -0.927,0.586 -0.31,0.086 -0.619,0.058 -0.928,-0.086 -0.309,-0.141 -0.618,-0.395 -0.928,-0.746 -0.309,-0.348 -0.618,-0.789 -0.927,-1.297 -0.309,-0.504 -0.619,-1.074 -0.928,-1.664 -0.309,-0.59 -0.618,-1.203 -0.923,-1.797 -0.314,-0.59 -0.618,-1.156 -0.928,-1.664 -0.309,-0.508 -0.618,-0.949 -0.927,-1.297 -0.31,-0.352 -0.619,-0.606 -0.928,-0.746 -0.309,-0.141 -0.618,-0.172 -0.928,-0.086 -0.309,0.086 -0.618,0.285 -0.927,0.586 -0.31,0.301 -0.619,0.703 -0.928,1.176 -0.309,0.472 -0.618,1.019 -0.928,1.593 -0.309,0.579 -0.618,1.188 -0.927,1.789 -0.309,0.598 -0.619,1.184 -0.928,1.719 -0.305,0.535 -0.618,1.016 -0.923,1.41 -0.309,0.395 -0.623,0.7 -0.928,0.899 -0.309,0.195 -0.618,0.281 -0.927,0.254 -0.31,-0.028 -0.619,-0.172 -0.928,-0.422 -0.309,-0.25 -0.618,-0.606 -0.928,-1.039 -0.309,-0.438 -0.618,-0.953 -0.927,-1.512 -0.309,-0.559 -0.619,-1.16 -0.928,-1.762 -0.309,-0.601 -0.618,-1.203 -0.928,-1.761 -0.309,-0.559 -0.618,-1.075 -0.927,-1.508 -0.309,-0.438 -0.619,-0.793 -0.928,-1.043 -0.309,-0.25 -0.614,-0.395 -0.928,-0.422 -0.304,-0.027 -0.613,0.059 -0.923,0.254 -0.309,0.199 -0.618,0.504 -0.927,0.898 -0.309,0.395 -0.619,0.875 -0.928,1.41 -0.309,0.536 -0.618,1.122 -0.928,1.723 -0.309,0.598 -0.618,1.207 -0.927,1.785 -0.309,0.578 -0.619,1.121 -0.928,1.594 -0.309,0.473 -0.618,0.875 -0.928,1.176 -0.309,0.301 -0.618,0.5 -0.927,0.586 -0.309,0.086 -0.619,0.058 -0.923,-0.086 -0.314,-0.141 -0.619,-0.395 -0.928,-0.746 -0.314,-0.348 -0.618,-0.789 -0.932,-1.297 -0.305,-0.504 -0.614,-1.074 -0.923,-1.664 -0.309,-0.59 -0.619,-1.203 -0.928,-1.797 -0.309,-0.59 -0.618,-1.156 -0.928,-1.664 -0.309,-0.508 -0.618,-0.949 -0.927,-1.297 -0.309,-0.352 -0.619,-0.606 -0.928,-0.746 -0.309,-0.141 -0.618,-0.172 -0.927,-0.086 -0.31,0.086 -0.619,0.285 -0.928,0.586 -0.309,0.301 -0.619,0.703 -0.928,1.176 -0.309,0.472 -0.618,1.015 -0.923,1.593 -0.314,0.579 -0.618,1.188 -0.928,1.786 -0.309,0.601 -0.618,1.187 -0.927,1.722 -0.309,0.535 -0.619,1.016 -0.928,1.41 -0.309,0.395 -0.618,0.7 -0.928,0.899 -0.309,0.195 -0.618,0.281 -0.927,0.254 -0.309,-0.028 -0.619,-0.172 -0.928,-0.422 -0.309,-0.25 -0.618,-0.606 -0.927,-1.043 -0.31,-0.434 -0.619,-0.949 -0.928,-1.508 -0.309,-0.559 -0.619,-1.16 -0.928,-1.762"
                       style="fill:none;stroke:#ab0000;stroke-width:0.873065;stroke-linecap:butt;stroke-linejoin:miter;stroke-miterlimit:4;stroke-dasharray:none;stroke-opacity:1"
                       id="path985" />
                  </g>
                </g>
              </g>
            </g>
          </g>
        </g>
      </g>
      <g
         id="g987">
        <g
           id="g989"
           clip-path="url(#clipPath993)">
          <g
             id="g995">
            <g
               id="g997">
              <g
                 id="g999"
                 clip-path="url(#clipPath1003)">
                <g
                   id="g1005">
                  <g
                     id="g1007"
                     transform="matrix(0,0.849241,-1,0,0,0)">
                    <path
                       d="m 110.935,-14.449 c -0.312,-0.602 -0.62,-1.203 -0.929,-1.762 -0.308,-0.559 -0.616,-1.074 -0.924,-1.512 -0.313,-0.433 -0.621,-0.789 -0.929,-1.039 -0.309,-0.25 -0.617,-0.394 -0.929,-0.422 -0.309,-0.031 -0.617,0.059 -0.925,0.254 -0.308,0.196 -0.616,0.504 -0.929,0.899 -0.308,0.394 -0.617,0.875 -0.925,1.41 -0.312,0.535 -0.621,1.121 -0.929,1.719 -0.308,0.601 -0.616,1.211 -0.929,1.789 -0.308,0.574 -0.616,1.121 -0.925,1.593 -0.308,0.473 -0.616,0.872 -0.929,1.176 -0.308,0.301 -0.616,0.5 -0.924,0.586 -0.308,0.086 -0.621,0.055 -0.929,-0.086 -0.309,-0.14 -0.617,-0.398 -0.925,-0.746 -0.308,-0.348 -0.621,-0.793 -0.929,-1.297 -0.308,-0.508 -0.616,-1.074 -0.925,-1.668 -0.312,-0.59 -0.621,-1.203 -0.929,-1.793 -0.308,-0.59 -0.621,-1.16 -0.929,-1.664 -0.308,-0.508 -0.616,-0.949 -0.924,-1.3 -0.309,-0.348 -0.621,-0.602 -0.93,-0.743 -0.308,-0.144 -0.616,-0.172 -0.924,-0.086 -0.313,0.086 -0.621,0.286 -0.929,0.586 -0.308,0.301 -0.617,0.703 -0.925,1.176 -0.312,0.473 -0.621,1.016 -0.929,1.594 -0.308,0.578 -0.616,1.187 -0.929,1.785 -0.308,0.598 -0.616,1.188 -0.925,1.723 -0.312,0.535 -0.62,1.015 -0.929,1.41 -0.308,0.394 -0.616,0.699 -0.929,0.894 -0.308,0.2 -0.616,0.285 -0.924,0.258 -0.309,-0.031 -0.617,-0.176 -0.929,-0.426 -0.309,-0.246 -0.617,-0.601 -0.925,-1.039 -0.308,-0.433 -0.616,-0.949 -0.929,-1.508 -0.308,-0.558 -0.617,-1.16 -0.925,-1.761 -0.308,-0.602 -0.621,-1.203 -0.929,-1.762 -0.308,-0.559 -0.616,-1.074 -0.924,-1.512 -0.313,-0.433 -0.621,-0.789 -0.93,-1.039 -0.308,-0.25 -0.62,-0.394 -0.929,-0.422 -0.308,-0.031 -0.616,0.059 -0.924,0.254 -0.308,0.196 -0.621,0.504 -0.929,0.899 -0.309,0.394 -0.617,0.875 -0.925,1.41 -0.313,0.535 -0.621,1.121 -0.929,1.719 -0.308,0.601 -0.616,1.211 -0.925,1.789 -0.312,0.574 -0.621,1.121 -0.929,1.593 -0.308,0.473 -0.616,0.872 -0.924,1.176 -0.313,0.301 -0.621,0.5 -0.929,0.586 -0.313,0.086 -0.621,0.055 -0.93,-0.086 -0.308,-0.14 -0.616,-0.398 -0.924,-0.746 -0.313,-0.348 -0.621,-0.793 -0.929,-1.297 -0.308,-0.508 -0.617,-1.074 -0.929,-1.668 -0.309,-0.59 -0.617,-1.203 -0.925,-1.793 -0.308,-0.59 -0.616,-1.16 -0.929,-1.664 -0.308,-0.508 -0.616,-0.949 -0.925,-1.3 -0.308,-0.348 -0.621,-0.602 -0.929,-0.743 -0.308,-0.144 -0.616,-0.172 -0.924,-0.086 -0.313,0.086 -0.621,0.286 -0.929,0.586 -0.309,0.301 -0.617,0.703 -0.929,1.176 -0.309,0.473 -0.617,1.016 -0.925,1.594 -0.308,0.578 -0.621,1.187 -0.929,1.785 -0.308,0.598 -0.617,1.188 -0.925,1.723 -0.308,0.535 -0.621,1.015 -0.929,1.41 -0.308,0.394 -0.616,0.699 -0.924,0.894 -0.313,0.2 -0.621,0.285 -0.93,0.258 -0.308,-0.031 -0.616,-0.176 -0.924,-0.426 -0.313,-0.246 -0.621,-0.601 -0.929,-1.039 -0.313,-0.433 -0.621,-0.949 -0.929,-1.508 -0.309,-0.558 -0.617,-1.16 -0.925,-1.761 -0.313,-0.602 -0.621,-1.203 -0.929,-1.762 -0.308,-0.559 -0.616,-1.074 -0.925,-1.512 -0.312,-0.433 -0.621,-0.789 -0.929,-1.039 -0.308,-0.25 -0.616,-0.394 -0.929,-0.422 -0.308,-0.031 -0.616,0.059 -0.924,0.254 -0.309,0.196 -0.617,0.504 -0.93,0.899 -0.308,0.39 -0.616,0.875 -0.924,1.41 -0.313,0.535 -0.621,1.121 -0.929,1.719 -0.308,0.601 -0.617,1.211 -0.929,1.789 -0.309,0.574 -0.617,1.121 -0.925,1.593 -0.308,0.473 -0.621,0.872 -0.929,1.176 -0.308,0.301 -0.616,0.5 -0.925,0.586 -0.308,0.086 -0.621,0.055 -0.929,-0.086 -0.308,-0.14 -0.616,-0.398 -0.924,-0.746 -0.313,-0.348 -0.621,-0.793 -0.929,-1.297 -0.309,-0.508 -0.617,-1.074 -0.925,-1.668 -0.313,-0.59 -0.621,-1.203 -0.929,-1.793 -0.308,-0.59 -0.621,-1.16 -0.929,-1.664 -0.308,-0.508 -0.617,-0.949 -0.925,-1.3 -0.313,-0.348 -0.621,-0.602 -0.929,-0.747 -0.308,-0.14 -0.616,-0.168 -0.924,-0.082 -0.313,0.086 -0.621,0.286 -0.93,0.586 -0.308,0.301 -0.616,0.703 -0.929,1.176 -0.308,0.473 -0.616,1.016 -0.924,1.594 -0.308,0.578 -0.617,1.187 -0.929,1.785 -0.309,0.598 -0.617,1.188 -0.925,1.723 -0.313,0.535 -0.621,1.015 -0.929,1.41 -0.308,0.394 -0.616,0.699 -0.929,0.894 -0.308,0.2 -0.617,0.285 -0.925,0.258 -0.308,-0.031 -0.616,-0.176 -0.929,-0.426 -0.308,-0.25 -0.616,-0.605 -0.924,-1.039 -0.309,-0.433 -0.621,-0.949 -0.93,-1.508 -0.308,-0.558 -0.616,-1.16 -0.924,-1.761"
                       style="fill:none;stroke:#ab0000;stroke-width:0.878077;stroke-linecap:butt;stroke-linejoin:miter;stroke-miterlimit:4;stroke-dasharray:none;stroke-opacity:1"
                       id="path1009" />
                  </g>
                </g>
              </g>
            </g>
          </g>
        </g>
      </g>
      <g
         id="g1011">
        <g
           id="g1013"
           clip-path="url(#clipPath1017)">
          <g
             id="g1019">
            <g
               id="g1021">
              <g
                 id="g1023"
                 clip-path="url(#clipPath1027)">
                <g
                   id="g1029">
                  <g
                     id="g1031"
                     transform="scale(0.869197,1)">
                    <path
                       d="m 116.707,38.551 c -0.31,-0.602 -0.62,-1.203 -0.93,-1.762 -0.306,-0.559 -0.616,-1.07 -0.926,-1.508 -0.31,-0.433 -0.616,-0.789 -0.926,-1.039 -0.31,-0.25 -0.62,-0.394 -0.93,-0.426 -0.306,-0.027 -0.616,0.059 -0.926,0.258 -0.31,0.196 -0.616,0.504 -0.926,0.895 -0.31,0.394 -0.62,0.879 -0.925,1.41 -0.311,0.535 -0.621,1.125 -0.931,1.723 -0.31,0.597 -0.615,1.207 -0.926,1.785 -0.31,0.578 -0.62,1.121 -0.925,1.593 -0.31,0.477 -0.62,0.875 -0.931,1.176 -0.305,0.301 -0.615,0.504 -0.925,0.586 -0.31,0.086 -0.621,0.059 -0.926,-0.082 -0.31,-0.144 -0.62,-0.398 -0.93,-0.746 -0.306,-0.348 -0.616,-0.793 -0.926,-1.301 -0.31,-0.504 -0.616,-1.074 -0.926,-1.664 -0.31,-0.59 -0.62,-1.203 -0.93,-1.793 -0.306,-0.59 -0.616,-1.16 -0.926,-1.668 -0.31,-0.504 -0.616,-0.949 -0.926,-1.297 -0.31,-0.347 -0.62,-0.601 -0.93,-0.746 -0.306,-0.14 -0.616,-0.172 -0.926,-0.086 -0.31,0.086 -0.616,0.289 -0.926,0.59 -0.31,0.301 -0.62,0.699 -0.925,1.172 -0.311,0.473 -0.621,1.02 -0.931,1.598 -0.31,0.574 -0.615,1.183 -0.926,1.785 -0.31,0.598 -0.62,1.187 -0.925,1.719 -0.31,0.535 -0.62,1.019 -0.931,1.414 -0.305,0.39 -0.615,0.699 -0.925,0.894 -0.31,0.199 -0.621,0.285 -0.926,0.254 -0.31,-0.027 -0.62,-0.172 -0.93,-0.422 -0.306,-0.25 -0.616,-0.605 -0.926,-1.039 -0.31,-0.437 -0.616,-0.953 -0.926,-1.512 -0.31,-0.558 -0.62,-1.16 -0.93,-1.761 -0.306,-0.602 -0.616,-1.203 -0.926,-1.762 -0.31,-0.559 -0.616,-1.07 -0.926,-1.508 -0.31,-0.433 -0.62,-0.789 -0.926,-1.039 -0.31,-0.25 -0.62,-0.394 -0.93,-0.426 -0.31,-0.027 -0.616,0.059 -0.926,0.258 -0.31,0.196 -0.62,0.504 -0.925,0.895 -0.311,0.394 -0.621,0.875 -0.931,1.41 -0.31,0.535 -0.615,1.125 -0.925,1.723 -0.311,0.597 -0.621,1.207 -0.926,1.785 -0.31,0.578 -0.62,1.121 -0.931,1.593 -0.305,0.477 -0.615,0.875 -0.925,1.176 -0.31,0.301 -0.621,0.504 -0.926,0.586 -0.31,0.086 -0.62,0.059 -0.93,-0.082 -0.306,-0.144 -0.616,-0.398 -0.926,-0.746 -0.31,-0.348 -0.616,-0.793 -0.926,-1.301 -0.31,-0.504 -0.62,-1.074 -0.93,-1.664 -0.306,-0.59 -0.616,-1.203 -0.926,-1.793 -0.31,-0.594 -0.616,-1.16 -0.926,-1.668 -0.31,-0.504 -0.62,-0.949 -0.926,-1.297 -0.31,-0.347 -0.62,-0.601 -0.93,-0.746 -0.31,-0.14 -0.616,-0.172 -0.926,-0.086 -0.31,0.086 -0.62,0.289 -0.925,0.59 -0.311,0.301 -0.621,0.699 -0.931,1.172 -0.31,0.473 -0.615,1.02 -0.925,1.598 -0.311,0.574 -0.621,1.183 -0.926,1.785 -0.31,0.598 -0.62,1.187 -0.931,1.719 -0.305,0.535 -0.615,1.019 -0.925,1.41 -0.31,0.394 -0.621,0.703 -0.926,0.898 -0.31,0.199 -0.62,0.285 -0.93,0.254 -0.306,-0.027 -0.616,-0.172 -0.926,-0.422 -0.31,-0.25 -0.616,-0.605 -0.926,-1.039 -0.31,-0.437 -0.62,-0.953 -0.93,-1.512 -0.306,-0.558 -0.616,-1.16 -0.926,-1.761 -0.31,-0.602 -0.616,-1.203 -0.926,-1.762 -0.31,-0.559 -0.62,-1.07 -0.926,-1.508 -0.31,-0.433 -0.62,-0.789 -0.93,-1.039 -0.31,-0.25 -0.616,-0.394 -0.926,-0.426 -0.31,-0.027 -0.62,0.059 -0.925,0.258 -0.311,0.196 -0.621,0.5 -0.931,0.895 -0.31,0.394 -0.615,0.875 -0.925,1.41 -0.311,0.535 -0.621,1.125 -0.926,1.723 -0.31,0.597 -0.62,1.207 -0.931,1.785 -0.305,0.578 -0.615,1.121 -0.925,1.593 -0.31,0.473 -0.621,0.875 -0.926,1.176 -0.31,0.301 -0.62,0.504 -0.93,0.586 -0.306,0.086 -0.616,0.059 -0.926,-0.082 -0.31,-0.144 -0.616,-0.398 -0.926,-0.746 -0.31,-0.348 -0.62,-0.793 -0.93,-1.301 -0.306,-0.504 -0.616,-1.074 -0.926,-1.664 -0.31,-0.59 -0.616,-1.203 -0.926,-1.793 -0.31,-0.594 -0.62,-1.16 -0.926,-1.668 -0.31,-0.504 -0.62,-0.949 -0.93,-1.297 -0.31,-0.347 -0.616,-0.605 -0.926,-0.746 -0.31,-0.14 -0.62,-0.172 -0.925,-0.086 -0.31,0.086 -0.621,0.289 -0.931,0.59 -0.31,0.301 -0.615,0.699 -0.925,1.172 -0.311,0.473 -0.621,1.02 -0.926,1.598 -0.31,0.574 -0.62,1.183 -0.931,1.785 -0.305,0.598 -0.615,1.187 -0.925,1.719 -0.31,0.535 -0.62,1.015 -0.926,1.41 -0.31,0.394 -0.62,0.703 -0.93,0.898 -0.306,0.196 -0.616,0.285 -0.926,0.254 -0.31,-0.027 -0.616,-0.172 -0.926,-0.422 -0.31,-0.25 -0.62,-0.605 -0.93,-1.039 -0.306,-0.437 -0.616,-0.953 -0.926,-1.512 -0.31,-0.558 -0.616,-1.16 -0.926,-1.761"
                       style="fill:none;stroke:#ab0000;stroke-width:0.86794;stroke-linecap:butt;stroke-linejoin:miter;stroke-miterlimit:4;stroke-dasharray:none;stroke-opacity:1"
                       id="path1033" />
                  </g>
                </g>
              </g>
            </g>
          </g>
        </g>
      </g>
      <g
         id="g1035">
        <g
           id="g1037"
           clip-path="url(#clipPath1041)">
          <g
             id="g1043">
            <g
               id="g1045">
              <g
                 id="g1047"
                 clip-path="url(#clipPath1051)">
                <g
                   id="g1053">
                  <g
                     id="g1055"
                     transform="scale(-0.869197,1)">
                    <path
                       d="m -136.625,38.551 c -0.31,-0.602 -0.62,-1.203 -0.93,-1.762 -0.306,-0.559 -0.616,-1.07 -0.926,-1.508 -0.31,-0.433 -0.616,-0.789 -0.926,-1.039 -0.31,-0.25 -0.62,-0.394 -0.93,-0.426 -0.306,-0.027 -0.616,0.059 -0.926,0.258 -0.31,0.196 -0.615,0.504 -0.925,0.895 -0.311,0.394 -0.621,0.879 -0.926,1.41 -0.31,0.535 -0.62,1.125 -0.931,1.723 -0.31,0.597 -0.615,1.207 -0.925,1.785 -0.31,0.578 -0.621,1.121 -0.926,1.593 -0.31,0.477 -0.62,0.875 -0.93,1.176 -0.306,0.301 -0.616,0.504 -0.926,0.586 -0.31,0.086 -0.62,0.059 -0.926,-0.082 -0.31,-0.144 -0.62,-0.398 -0.93,-0.746 -0.306,-0.348 -0.616,-0.793 -0.926,-1.301 -0.31,-0.504 -0.616,-1.074 -0.926,-1.664 -0.31,-0.59 -0.62,-1.203 -0.93,-1.793 -0.306,-0.59 -0.616,-1.16 -0.926,-1.668 -0.31,-0.504 -0.616,-0.949 -0.926,-1.297 -0.31,-0.347 -0.62,-0.601 -0.93,-0.746 -0.306,-0.14 -0.616,-0.172 -0.926,-0.086 -0.31,0.086 -0.615,0.289 -0.925,0.59 -0.311,0.301 -0.621,0.699 -0.926,1.172 -0.31,0.473 -0.62,1.02 -0.931,1.598 -0.31,0.574 -0.615,1.183 -0.925,1.785 -0.31,0.598 -0.621,1.187 -0.926,1.719 -0.31,0.535 -0.62,1.019 -0.93,1.414 -0.306,0.39 -0.616,0.699 -0.926,0.894 -0.31,0.199 -0.62,0.285 -0.926,0.254 -0.31,-0.027 -0.62,-0.172 -0.93,-0.422 -0.306,-0.25 -0.616,-0.605 -0.926,-1.039 -0.31,-0.437 -0.616,-0.953 -0.926,-1.512 -0.31,-0.558 -0.62,-1.16 -0.93,-1.761 -0.306,-0.602 -0.616,-1.203 -0.926,-1.762 -0.31,-0.559 -0.616,-1.07 -0.926,-1.508 -0.31,-0.433 -0.62,-0.789 -0.925,-1.039 -0.31,-0.25 -0.621,-0.394 -0.931,-0.426 -0.31,-0.027 -0.615,0.059 -0.925,0.258 -0.311,0.196 -0.621,0.504 -0.926,0.895 -0.31,0.394 -0.62,0.875 -0.931,1.41 -0.31,0.535 -0.615,1.125 -0.925,1.723 -0.31,0.597 -0.62,1.207 -0.926,1.785 -0.31,0.578 -0.62,1.121 -0.93,1.593 -0.306,0.477 -0.616,0.875 -0.926,1.176 -0.31,0.301 -0.62,0.504 -0.926,0.586 -0.31,0.086 -0.62,0.059 -0.93,-0.082 -0.306,-0.144 -0.616,-0.398 -0.926,-0.746 -0.31,-0.348 -0.616,-0.793 -0.926,-1.301 -0.31,-0.504 -0.62,-1.074 -0.93,-1.664 -0.306,-0.59 -0.616,-1.203 -0.926,-1.793 -0.31,-0.594 -0.616,-1.16 -0.926,-1.668 -0.31,-0.504 -0.62,-0.949 -0.925,-1.297 -0.31,-0.347 -0.621,-0.601 -0.931,-0.746 -0.31,-0.14 -0.615,-0.172 -0.925,-0.086 -0.311,0.086 -0.621,0.289 -0.926,0.59 -0.31,0.301 -0.62,0.699 -0.931,1.172 -0.31,0.473 -0.615,1.02 -0.925,1.598 -0.31,0.574 -0.62,1.183 -0.926,1.785 -0.31,0.598 -0.62,1.187 -0.93,1.719 -0.306,0.535 -0.616,1.019 -0.926,1.41 -0.31,0.394 -0.62,0.703 -0.926,0.898 -0.31,0.199 -0.62,0.285 -0.93,0.254 -0.306,-0.027 -0.616,-0.172 -0.926,-0.422 -0.31,-0.25 -0.616,-0.605 -0.926,-1.039 -0.31,-0.437 -0.62,-0.953 -0.93,-1.512 -0.306,-0.558 -0.616,-1.16 -0.926,-1.761 -0.31,-0.602 -0.616,-1.203 -0.926,-1.762 -0.31,-0.559 -0.62,-1.07 -0.925,-1.508 -0.31,-0.433 -0.621,-0.789 -0.931,-1.039 -0.31,-0.25 -0.615,-0.394 -0.925,-0.426 -0.311,-0.027 -0.621,0.059 -0.926,0.258 -0.31,0.196 -0.62,0.5 -0.931,0.895 -0.31,0.394 -0.615,0.875 -0.925,1.41 -0.31,0.535 -0.62,1.125 -0.926,1.723 -0.31,0.597 -0.62,1.207 -0.93,1.785 -0.306,0.578 -0.616,1.121 -0.926,1.593 -0.31,0.473 -0.62,0.875 -0.926,1.176 -0.31,0.301 -0.62,0.504 -0.93,0.586 -0.306,0.086 -0.616,0.059 -0.926,-0.082 -0.31,-0.144 -0.616,-0.398 -0.926,-0.746 -0.31,-0.348 -0.62,-0.793 -0.93,-1.301 -0.306,-0.504 -0.616,-1.074 -0.926,-1.664 -0.31,-0.59 -0.615,-1.203 -0.926,-1.793 -0.31,-0.594 -0.62,-1.16 -0.925,-1.668 -0.31,-0.504 -0.621,-0.949 -0.931,-1.297 -0.31,-0.347 -0.615,-0.605 -0.925,-0.746 -0.311,-0.14 -0.621,-0.172 -0.926,-0.086 -0.31,0.086 -0.62,0.289 -0.93,0.59 -0.311,0.301 -0.616,0.699 -0.926,1.172 -0.31,0.473 -0.62,1.02 -0.926,1.598 -0.31,0.574 -0.62,1.183 -0.93,1.785 -0.306,0.598 -0.616,1.187 -0.926,1.719 -0.31,0.535 -0.62,1.015 -0.926,1.41 -0.31,0.394 -0.62,0.703 -0.93,0.898 -0.306,0.196 -0.616,0.285 -0.926,0.254 -0.31,-0.027 -0.616,-0.172 -0.926,-0.422 -0.31,-0.25 -0.62,-0.605 -0.93,-1.039 -0.306,-0.437 -0.616,-0.953 -0.926,-1.512 -0.31,-0.558 -0.615,-1.16 -0.926,-1.761"
                       style="fill:none;stroke:#ab0000;stroke-width:0.86794;stroke-linecap:butt;stroke-linejoin:miter;stroke-miterlimit:4;stroke-dasharray:none;stroke-opacity:1"
                       id="path1057" />
                  </g>
                </g>
              </g>
            </g>
          </g>
        </g>
      </g>
      <g
         id="g1059">
        <path
           d="M 35.863,31.562 H 50.914 V 46.613 H 35.863 Z"
           style="fill:#505050;fill-opacity:1;fill-rule:nonzero;stroke:none"
           id="path1061" />
        <g
           id="g1063"
           transform="scale(-1,0.999988)">
          <path
             d="M -7.113,31.621 H -21.679 V 46.188 H -7.113 Z"
             style="fill:none;stroke:#000000;stroke-width:1.06318;stroke-linecap:butt;stroke-linejoin:miter;stroke-miterlimit:4;stroke-dasharray:none;stroke-opacity:1"
             id="path1065" />
        </g>
        <path
           d="M 7.113,31.621 H 21.679 V 46.187 H 7.113 Z"
           style="fill:#05abff;fill-opacity:0.280097;fill-rule:nonzero;stroke:none"
           id="path1067" />
        <g
           id="g1069"
           transform="scale(-1,0.999988)">
          <path
             d="M -7.113,31.621 -21.68,46.188"
             style="fill:none;stroke:#000000;stroke-width:0.560358;stroke-linecap:butt;stroke-linejoin:miter;stroke-miterlimit:4;stroke-dasharray:none;stroke-opacity:1"
             id="path1071" />
        </g>
        <g
           id="g1073"
           transform="scale(-1,0.999988)">
          <path
             d="m -191.234,76.11 h -14.539 v 14.539 h 14.539 z"
             style="fill:none;stroke:#000000;stroke-width:1.08961;stroke-linecap:butt;stroke-linejoin:miter;stroke-miterlimit:4;stroke-dasharray:none;stroke-opacity:1"
             id="path1075" />
        </g>
        <path
           d="m 191.234,76.109 h 14.539 v 14.539 h -14.539 z"
           style="fill:#05abff;fill-opacity:0.280097;fill-rule:nonzero;stroke:none"
           id="path1077" />
        <g
           id="g1079"
           transform="scale(-1,0.999988)">
          <path
             d="m -191.234,76.11 -14.539,14.54"
             style="fill:none;stroke:#000000;stroke-width:0.57429;stroke-linecap:butt;stroke-linejoin:miter;stroke-miterlimit:4;stroke-dasharray:none;stroke-opacity:1"
             id="path1081" />
        </g>
        <path
           d="m 109.512,12.766 c 0.078,-0.36 0.109,-0.469 1.047,-0.469 0.296,0 0.375,0 0.375,-0.188 0,-0.125 -0.11,-0.125 -0.157,-0.125 -0.328,0 -1.14,0.032 -1.468,0.032 -0.297,0 -1.032,-0.032 -1.329,-0.032 -0.062,0 -0.187,0 -0.187,0.204 0,0.109 0.094,0.109 0.281,0.109 0.016,0 0.203,0 0.375,0.015 0.172,0.032 0.266,0.032 0.266,0.172 0,0.032 0,0.063 -0.031,0.188 l -1.344,5.344 c -0.094,0.39 -0.11,0.468 -0.906,0.468 -0.172,0 -0.266,0 -0.266,0.204 0,0.109 0.094,0.109 0.266,0.109 h 4.625 c 0.234,0 0.234,0 0.296,-0.172 l 0.797,-2.156 c 0.032,-0.11 0.032,-0.125 0.032,-0.141 0,-0.031 -0.032,-0.109 -0.11,-0.109 -0.094,0 -0.109,0.062 -0.172,0.219 -0.343,0.906 -0.781,2.046 -2.5,2.046 h -0.937 c -0.141,0 -0.172,0 -0.219,0 -0.109,-0.015 -0.141,-0.031 -0.141,-0.109 0,-0.031 0,-0.047 0.047,-0.219 z"
           style="fill:#000000;fill-opacity:1;fill-rule:nonzero;stroke:none"
           id="path1083" />
        <g
           id="g1085">
          <path
             d="M 213.289,42.816 208,48.105 191.273,31.379 196.562,26.09"
             style="fill:url(#pattern1901);fill-opacity:1;fill-rule:nonzero;stroke:none"
             id="path1101" />
        </g>
        <g
           id="g1103"
           transform="matrix(-1,-1,1,-1,0,0)">
          <path
             d="m -128.053,79.947 h 16.727"
             style="fill:none;stroke:#000000;stroke-width:0.770469;stroke-linecap:butt;stroke-linejoin:miter;stroke-miterlimit:4;stroke-dasharray:none;stroke-opacity:1"
             id="path1105" />
        </g>
        <g
           id="g1107">
          <path
             d="M 50.914,29.789 V 21.332"
             style="fill:none;stroke:#000000;stroke-width:0.997795;stroke-linecap:butt;stroke-linejoin:miter;stroke-miterlimit:4;stroke-dasharray:none;stroke-opacity:1"
             id="path1109" />
        </g>
        <g
           id="g1111">
          <path
             d="M 167.438,29.789 V 21.332"
             style="fill:none;stroke:#000000;stroke-width:0.997795;stroke-linecap:butt;stroke-linejoin:miter;stroke-miterlimit:4;stroke-dasharray:none;stroke-opacity:1"
             id="path1113" />
        </g>
        <g
           id="g1115">
          <path
             d="M 50.914,25.562 H 167.438"
             style="fill:none;stroke:#000000;stroke-width:0.935433;stroke-linecap:butt;stroke-linejoin:miter;stroke-miterlimit:4;stroke-dasharray:none;stroke-opacity:1"
             id="path1117" />
        </g>
        <path
           d="m 174.277,38.691 c 0.125,0 0.258,0 0.258,-0.144 0,-0.137 -0.133,-0.137 -0.258,-0.137 h -3.882 c -0.122,0 -0.247,0 -0.247,0.137 0,0.144 0.125,0.144 0.247,0.144 z"
           style="fill:#ffffff;fill-opacity:1;fill-rule:nonzero;stroke:none"
           id="path1119" />
        <path
           d="m 176.719,37.211 h 0.773 c 0.184,0 0.27,0 0.27,-0.184 0,-0.097 -0.086,-0.097 -0.239,-0.097 h -0.746 l 0.184,-1.028 c 0.039,-0.183 0.168,-0.816 0.223,-0.929 0.07,-0.168 0.226,-0.309 0.421,-0.309 0.028,0 0.27,0 0.438,0.168 -0.395,0.027 -0.492,0.352 -0.492,0.48 0,0.211 0.168,0.321 0.336,0.321 0.238,0 0.492,-0.211 0.492,-0.547 0,-0.406 -0.406,-0.617 -0.774,-0.617 -0.308,0 -0.871,0.168 -1.136,1.054 -0.059,0.18 -0.086,0.282 -0.297,1.407 h -0.617 c -0.184,0 -0.282,0 -0.282,0.168 0,0.113 0.082,0.113 0.25,0.113 h 0.594 l -0.664,3.543 c -0.168,0.871 -0.32,1.687 -0.785,1.687 -0.043,0 -0.254,0 -0.438,-0.168 0.422,-0.031 0.508,-0.351 0.508,-0.48 0,-0.211 -0.168,-0.324 -0.34,-0.324 -0.238,0 -0.492,0.211 -0.492,0.551 0,0.394 0.395,0.617 0.762,0.617 0.492,0 0.855,-0.535 1.012,-0.871 0.297,-0.563 0.492,-1.645 0.508,-1.715 z"
           style="fill:#ffffff;fill-opacity:1;fill-rule:nonzero;stroke:none"
           id="path1121" />
        <path
           d="m 179.754,39.582 c 0,-0.02 -0.024,-0.066 -0.066,-0.066 -0.036,0 -0.036,0.011 -0.102,0.078 l -0.25,0.281 c -0.191,-0.27 -0.504,-0.359 -0.809,-0.359 -0.707,0 -1.339,0.574 -1.339,1.16 0,0.066 0.023,0.269 0.167,0.461 0.172,0.191 0.364,0.234 0.7,0.324 0.101,0.023 0.347,0.078 0.425,0.101 0.161,0.036 0.465,0.149 0.465,0.52 0,0.402 -0.429,0.887 -0.992,0.887 -0.449,0 -0.976,-0.157 -0.976,-0.707 0,-0.059 0.007,-0.168 0.031,-0.262 0,-0.02 0,-0.02 0,-0.02 0,-0.07 -0.055,-0.07 -0.078,-0.07 -0.067,0 -0.078,0.012 -0.09,0.102 l -0.258,1.004 c -0.012,0.019 -0.023,0.043 -0.023,0.078 0,0.023 0.023,0.054 0.078,0.054 0.023,0 0.035,-0.011 0.101,-0.066 0.055,-0.066 0.18,-0.227 0.239,-0.281 0.269,0.293 0.652,0.347 0.953,0.347 0.765,0 1.375,-0.652 1.375,-1.246 0,-0.214 -0.09,-0.418 -0.203,-0.531 -0.168,-0.18 -0.25,-0.203 -0.903,-0.359 -0.097,-0.024 -0.269,-0.055 -0.312,-0.078 -0.125,-0.047 -0.34,-0.168 -0.34,-0.45 0,-0.406 0.453,-0.8 0.969,-0.8 0.55,0 0.808,0.304 0.808,0.777 0,0.066 -0.019,0.18 -0.019,0.227 0,0.078 0.054,0.078 0.09,0.078 0.066,0 0.078,-0.036 0.089,-0.114 z"
           style="fill:#ffffff;fill-opacity:1;fill-rule:nonzero;stroke:none"
           id="path1123" />
        <path
           d="m 40.91,38.691 h 2.004 c 0.102,0 0.234,0 0.234,-0.144 0,-0.137 -0.132,-0.137 -0.234,-0.137 H 40.91 v -2.012 c 0,-0.101 0,-0.238 -0.144,-0.238 -0.149,0 -0.149,0.137 -0.149,0.238 v 2.012 h -2.004 c -0.097,0 -0.234,0 -0.234,0.137 0,0.144 0.137,0.144 0.234,0.144 h 2.004 v 2.016 c 0,0.102 0,0.234 0.149,0.234 0.144,0 0.144,-0.132 0.144,-0.234 z"
           style="fill:#ffffff;fill-opacity:1;fill-rule:nonzero;stroke:none"
           id="path1125" />
        <path
           d="m 45.25,37.211 h 0.773 c 0.184,0 0.27,0 0.27,-0.184 0,-0.097 -0.086,-0.097 -0.242,-0.097 h -0.742 l 0.179,-1.028 c 0.043,-0.183 0.172,-0.816 0.227,-0.929 0.07,-0.168 0.226,-0.309 0.422,-0.309 0.027,0 0.265,0 0.437,0.168 -0.394,0.027 -0.492,0.352 -0.492,0.48 0,0.211 0.168,0.321 0.336,0.321 0.238,0 0.492,-0.211 0.492,-0.547 0,-0.406 -0.406,-0.617 -0.773,-0.617 -0.309,0 -0.871,0.168 -1.141,1.054 -0.055,0.18 -0.082,0.282 -0.293,1.407 h -0.621 c -0.18,0 -0.281,0 -0.281,0.168 0,0.113 0.086,0.113 0.254,0.113 h 0.59 l -0.661,3.543 c -0.168,0.871 -0.324,1.687 -0.785,1.687 -0.043,0 -0.254,0 -0.437,-0.168 0.422,-0.031 0.508,-0.351 0.508,-0.48 0,-0.211 -0.172,-0.324 -0.34,-0.324 -0.239,0 -0.492,0.211 -0.492,0.551 0,0.394 0.394,0.617 0.761,0.617 0.492,0 0.856,-0.535 1.012,-0.871 0.293,-0.563 0.492,-1.645 0.504,-1.715 z"
           style="fill:#ffffff;fill-opacity:1;fill-rule:nonzero;stroke:none"
           id="path1127" />
        <path
           d="m 48.398,39.602 c 0,-0.02 -0.023,-0.067 -0.066,-0.067 -0.035,0 -0.035,0.012 -0.102,0.078 l -0.25,0.282 c -0.191,-0.27 -0.503,-0.36 -0.808,-0.36 -0.707,0 -1.34,0.574 -1.34,1.16 0,0.067 0.023,0.27 0.168,0.461 0.172,0.192 0.363,0.235 0.699,0.324 0.102,0.024 0.348,0.082 0.426,0.102 0.16,0.035 0.465,0.148 0.465,0.52 0,0.406 -0.43,0.886 -0.992,0.886 -0.45,0 -0.977,-0.156 -0.977,-0.707 0,-0.054 0.008,-0.168 0.031,-0.258 0,-0.023 0,-0.023 0,-0.023 0,-0.066 -0.054,-0.066 -0.078,-0.066 -0.066,0 -0.078,0.011 -0.09,0.101 l -0.257,1 c -0.012,0.024 -0.024,0.043 -0.024,0.078 0,0.024 0.024,0.055 0.078,0.055 0.024,0 0.035,-0.008 0.102,-0.066 0.055,-0.067 0.179,-0.223 0.238,-0.282 0.27,0.293 0.652,0.348 0.953,0.348 0.766,0 1.375,-0.652 1.375,-1.246 0,-0.215 -0.09,-0.418 -0.203,-0.531 -0.168,-0.18 -0.25,-0.2 -0.902,-0.36 -0.098,-0.023 -0.27,-0.054 -0.313,-0.078 -0.125,-0.043 -0.34,-0.168 -0.34,-0.449 0,-0.406 0.454,-0.801 0.969,-0.801 0.551,0 0.809,0.305 0.809,0.777 0,0.067 -0.02,0.18 -0.02,0.227 0,0.078 0.055,0.078 0.09,0.078 0.066,0 0.078,-0.035 0.09,-0.113 z"
           style="fill:#ffffff;fill-opacity:1;fill-rule:nonzero;stroke:none"
           id="path1129" />
        <text
           transform="translate(22.955451,52.751119)"
           style="font-variant:normal;font-weight:normal;font-size:6.12573px;font-family:FreeSans;-inkscape-font-specification:FreeSans;writing-mode:lr-tb;fill:#000000;fill-opacity:1;fill-rule:nonzero;stroke:none"
           id="text1139"><tspan
             x="0 4.067482"
             y="0"
             sodipodi:role="line"
             id="tspan1131">BS</tspan><tspan
             x="183.72601 187.79349"
             y="44.034824"
             sodipodi:role="line"
             id="tspan1133">BS</tspan><tspan
             x="167.51088 172.48497 173.84488 175.87862 177.91237 181.1835 183.21724"
             y="-28.330227"
             sodipodi:role="line"
             id="tspan1135">mirror</tspan><tspan
             x="-16.595818 -11.621727 -10.261816 -8.228075 -6.194334 -2.9231966 -0.88945544"
             y="52.532993"
             sodipodi:role="line"
             id="tspan1137">mirror</tspan></text>
        <rect
           style="fill:#ffffff;stroke:#ffffff;stroke-width:0.56693;paint-order:markers fill stroke"
           id="rect1640"
           width="23.204973"
           height="10.235669"
           x="1.993729"
           y="97.955528" />
        <rect
           style="fill:#ffffff;stroke:#ffffff;stroke-width:0.56693;paint-order:markers fill stroke"
           id="rect1642"
           width="25.509327"
           height="8.5252581"
           x="186.14375"
           y="16.859303" />
      </g>
      <g
         id="g1141">
        <g
           id="g1143"
           clip-path="url(#clipPath1147)">
          <g
             id="g1149">
            <g
               id="g1151">
              <g
                 id="g1153"
                 clip-path="url(#clipPath1157)">
                <g
                   id="g1159">
                  <g
                     id="g1161"
                     transform="matrix(0,-0.849241,1,0,0,0)">
                    <path
                       d="m -34.065,198.371 c -0.313,-0.601 -0.621,-1.203 -0.929,-1.762 -0.309,-0.558 -0.617,-1.074 -0.925,-1.511 -0.313,-0.434 -0.621,-0.789 -0.929,-1.039 -0.308,-0.25 -0.617,-0.395 -0.929,-0.422 -0.308,-0.032 -0.617,0.058 -0.925,0.254 -0.308,0.195 -0.621,0.504 -0.929,0.898 -0.308,0.395 -0.616,0.875 -0.925,1.41 -0.312,0.535 -0.62,1.121 -0.929,1.719 -0.308,0.602 -0.616,1.211 -0.929,1.789 -0.308,0.574 -0.616,1.121 -0.924,1.594 -0.309,0.472 -0.617,0.871 -0.929,1.176 -0.309,0.3 -0.617,0.5 -0.925,0.585 -0.308,0.086 -0.621,0.055 -0.929,-0.085 -0.308,-0.141 -0.617,-0.399 -0.925,-0.747 -0.308,-0.347 -0.621,-0.792 -0.929,-1.296 -0.308,-0.508 -0.616,-1.075 -0.929,-1.668 -0.308,-0.59 -0.616,-1.204 -0.925,-1.793 -0.308,-0.59 -0.62,-1.161 -0.929,-1.664 -0.308,-0.508 -0.616,-0.95 -0.924,-1.301 -0.308,-0.348 -0.621,-0.602 -0.929,-0.746 -0.309,-0.141 -0.617,-0.168 -0.925,-0.082 -0.313,0.086 -0.621,0.285 -0.929,0.586 -0.308,0.3 -0.616,0.703 -0.925,1.175 -0.312,0.473 -0.62,1.016 -0.929,1.594 -0.308,0.578 -0.621,1.188 -0.929,1.785 -0.308,0.598 -0.616,1.188 -0.924,1.723 -0.313,0.535 -0.621,1.016 -0.929,1.41 -0.309,0.395 -0.617,0.699 -0.93,0.895 -0.308,0.199 -0.616,0.285 -0.924,0.257 -0.308,-0.031 -0.617,-0.175 -0.929,-0.425 -0.308,-0.25 -0.617,-0.602 -0.925,-1.039 -0.308,-0.434 -0.616,-0.95 -0.929,-1.508 -0.308,-0.559 -0.616,-1.16 -0.925,-1.762 -0.308,-0.601 -0.62,-1.203 -0.929,-1.762 -0.308,-0.558 -0.616,-1.074 -0.929,-1.511 -0.308,-0.434 -0.616,-0.789 -0.924,-1.039 -0.309,-0.25 -0.621,-0.395 -0.929,-0.422 -0.309,-0.032 -0.617,0.058 -0.925,0.254 -0.308,0.195 -0.621,0.504 -0.929,0.898 -0.308,0.391 -0.617,0.875 -0.925,1.41 -0.312,0.535 -0.621,1.121 -0.929,1.719 -0.308,0.602 -0.616,1.211 -0.924,1.789 -0.313,0.574 -0.621,1.121 -0.93,1.594 -0.308,0.472 -0.62,0.871 -0.929,1.176 -0.308,0.296 -0.616,0.5 -0.924,0.585 -0.313,0.086 -0.621,0.055 -0.929,-0.085 -0.309,-0.141 -0.617,-0.399 -0.925,-0.747 -0.313,-0.347 -0.621,-0.792 -0.929,-1.296 -0.308,-0.508 -0.616,-1.075 -0.929,-1.668 -0.308,-0.59 -0.617,-1.204 -0.925,-1.793 -0.308,-0.59 -0.616,-1.161 -0.929,-1.664 -0.308,-0.508 -0.616,-0.95 -0.924,-1.301 -0.309,-0.348 -0.621,-0.602 -0.93,-0.746 -0.308,-0.141 -0.616,-0.168 -0.929,-0.082 -0.308,0.086 -0.616,0.285 -0.924,0.586 -0.308,0.3 -0.617,0.703 -0.929,1.175 -0.308,0.473 -0.617,1.016 -0.925,1.594 -0.308,0.578 -0.621,1.188 -0.929,1.785 -0.308,0.598 -0.616,1.188 -0.925,1.723 -0.308,0.535 -0.62,1.016 -0.929,1.41 -0.308,0.395 -0.616,0.699 -0.924,0.895 -0.313,0.199 -0.621,0.285 -0.929,0.257 -0.309,-0.031 -0.621,-0.175 -0.929,-0.425 -0.309,-0.25 -0.617,-0.606 -0.925,-1.039 -0.313,-0.434 -0.621,-0.95 -0.929,-1.508 -0.308,-0.559 -0.617,-1.16 -0.925,-1.762 -0.312,-0.601 -0.621,-1.203 -0.929,-1.762 -0.308,-0.558 -0.616,-1.074 -0.924,-1.511 -0.313,-0.434 -0.621,-0.789 -0.93,-1.039 -0.308,-0.25 -0.616,-0.395 -0.929,-0.422 -0.308,-0.032 -0.616,0.058 -0.924,0.254 -0.308,0.195 -0.621,0.504 -0.929,0.898 -0.309,0.391 -0.617,0.875 -0.929,1.41 -0.309,0.535 -0.617,1.121 -0.925,1.719 -0.308,0.602 -0.616,1.211 -0.929,1.789 -0.308,0.574 -0.617,1.121 -0.925,1.594 -0.308,0.472 -0.621,0.871 -0.929,1.172 -0.308,0.3 -0.616,0.504 -0.924,0.589 -0.309,0.086 -0.621,0.055 -0.93,-0.085 -0.308,-0.141 -0.616,-0.399 -0.924,-0.747 -0.313,-0.347 -0.621,-0.792 -0.929,-1.296 -0.308,-0.508 -0.621,-1.075 -0.929,-1.668 -0.309,-0.59 -0.617,-1.204 -0.925,-1.793 -0.308,-0.59 -0.621,-1.161 -0.929,-1.664 -0.308,-0.508 -0.616,-0.95 -0.925,-1.301 -0.312,-0.348 -0.621,-0.602 -0.929,-0.746 -0.308,-0.141 -0.616,-0.168 -0.924,-0.082 -0.313,0.082 -0.621,0.285 -0.929,0.586 -0.309,0.3 -0.617,0.703 -0.929,1.175 -0.309,0.473 -0.617,1.016 -0.925,1.594 -0.308,0.578 -0.621,1.188 -0.929,1.785 -0.308,0.598 -0.617,1.188 -0.925,1.723 -0.312,0.535 -0.621,1.016 -0.929,1.41 -0.308,0.395 -0.616,0.699 -0.929,0.895 -0.308,0.199 -0.616,0.285 -0.925,0.257 -0.308,-0.031 -0.616,-0.175 -0.929,-0.425 -0.308,-0.25 -0.616,-0.606 -0.924,-1.039 -0.308,-0.434 -0.621,-0.95 -0.929,-1.508 -0.309,-0.559 -0.617,-1.16 -0.925,-1.762"
                       style="fill:none;stroke:#ab0000;stroke-width:0.878077;stroke-linecap:butt;stroke-linejoin:miter;stroke-miterlimit:4;stroke-dasharray:none;stroke-opacity:1"
                       id="path1163" />
                  </g>
                </g>
              </g>
            </g>
          </g>
        </g>
      </g>
    </g>
  </g>
</svg>
