<?xml version="1.0" encoding="UTF-8" standalone="no"?>
<svg
   width="352.95312pt"
   height="569.80878pt"
   viewBox="0 0 352.95314 569.80877"
   version="1.1"
   id="svg348"
   sodipodi:docname="transiciones.svg"
   inkscape:version="1.3.2 (091e20e, 2023-11-25, custom)"
   xmlns:inkscape="http://www.inkscape.org/namespaces/inkscape"
   xmlns:sodipodi="http://sodipodi.sourceforge.net/DTD/sodipodi-0.dtd"
   xmlns="http://www.w3.org/2000/svg"
   xmlns:svg="http://www.w3.org/2000/svg"
   xmlns:ns1="http://www.iki.fi/pav/software/textext/">
  <sodipodi:namedview
     id="namedview350"
     pagecolor="#ffffff"
     bordercolor="#000000"
     borderopacity="0.25"
     inkscape:showpageshadow="2"
     inkscape:pageopacity="0.0"
     inkscape:pagecheckerboard="0"
     inkscape:deskcolor="#d1d1d1"
     inkscape:document-units="pt"
     showgrid="false"
     inkscape:zoom="1.4142136"
     inkscape:cx="172.88761"
     inkscape:cy="220.97087"
     inkscape:window-width="2560"
     inkscape:window-height="1369"
     inkscape:window-x="-8"
     inkscape:window-y="-8"
     inkscape:window-maximized="1"
     inkscape:current-layer="svg348" />
  <defs
     id="defs150">
    <clipPath
       id="clip-0">
      <path
         clip-rule="nonzero"
         d="m 316,453 h 7 v 25.53125 h -7 z m 0,0"
         id="path132" />
    </clipPath>
    <clipPath
       id="clip-1">
      <path
         clip-rule="nonzero"
         d="m 337,453 h 7 v 25.53125 h -7 z m 0,0"
         id="path135" />
    </clipPath>
    <clipPath
       id="clip-2">
      <path
         clip-rule="nonzero"
         d="m 347,170 h 5.95312 v 26 H 347 Z m 0,0"
         id="path138" />
    </clipPath>
    <clipPath
       id="clip-3">
      <path
         clip-rule="nonzero"
         d="m 347,113 h 5.95312 v 26 H 347 Z m 0,0"
         id="path141" />
    </clipPath>
    <clipPath
       id="clip-4">
      <path
         clip-rule="nonzero"
         d="m 347,56 h 5.95312 V 82 H 347 Z m 0,0"
         id="path144" />
    </clipPath>
    <clipPath
       id="clip-5">
      <path
         clip-rule="nonzero"
         d="m 347,0 h 5.95312 V 26 H 347 Z m 0,0"
         id="path147" />
    </clipPath>
  </defs>
  <path
     fill="none"
     stroke-width="1.98424"
     stroke-linecap="round"
     stroke-linejoin="miter"
     stroke="#000000"
     stroke-opacity="1"
     stroke-miterlimit="4"
     d="M 177.10547,557.32829 H 231.8125"
     id="path152" />
  <path
     fill="none"
     stroke-width="1.98424"
     stroke-linecap="round"
     stroke-linejoin="miter"
     stroke="#000000"
     stroke-opacity="1"
     stroke-miterlimit="4"
     d="M 177.10547,500.63688 H 231.8125"
     id="path154" />
  <path
     fill="none"
     stroke-width="1.98425"
     stroke-linecap="round"
     stroke-linejoin="miter"
     stroke="#000000"
     stroke-opacity="1"
     stroke-miterlimit="4"
     d="M 177.10547,338.36345 H 231.8125"
     id="path156" />
  <path
     fill="none"
     stroke-width="1.98425"
     stroke-linecap="round"
     stroke-linejoin="miter"
     stroke="#000000"
     stroke-opacity="1"
     stroke-miterlimit="4"
     d="M 177.10547,281.67204 H 231.8125"
     id="path158" />
  <path
     fill="none"
     stroke-width="1.98425"
     stroke-linecap="round"
     stroke-linejoin="miter"
     stroke="#000000"
     stroke-opacity="1"
     stroke-miterlimit="4"
     d="M 177.10547,224.97673 H 231.8125"
     id="path160" />
  <path
     fill="none"
     stroke-width="1.98424"
     stroke-linecap="round"
     stroke-linejoin="miter"
     stroke="#000000"
     stroke-opacity="1"
     stroke-miterlimit="4"
     d="M 177.10547,168.28533 H 231.8125"
     id="path162" />
  <path
     fill="none"
     stroke-width="1.98425"
     stroke-linecap="round"
     stroke-linejoin="miter"
     stroke="#000000"
     stroke-opacity="1"
     stroke-miterlimit="4"
     d="M 177.10547,168.28533 136.00391,252.3322"
     id="path164" />
  <path
     fill="none"
     stroke-width="1.98425"
     stroke-linecap="round"
     stroke-linejoin="miter"
     stroke="#000000"
     stroke-opacity="1"
     stroke-miterlimit="4"
     d="M 177.10547,224.97673 136.00391,252.3322"
     id="path166" />
  <path
     fill="none"
     stroke-width="1.98425"
     stroke-linecap="round"
     stroke-linejoin="miter"
     stroke="#000000"
     stroke-opacity="1"
     stroke-miterlimit="4"
     d="M 177.10547,281.67204 136.00391,252.3322"
     id="path168" />
  <path
     fill="none"
     stroke-width="1.98425"
     stroke-linecap="round"
     stroke-linejoin="miter"
     stroke="#000000"
     stroke-opacity="1"
     stroke-miterlimit="4"
     d="M 177.10547,338.36345 136.00391,252.3322"
     id="path170" />
  <path
     fill="none"
     stroke-width="1.98425"
     stroke-linecap="round"
     stroke-linejoin="miter"
     stroke="#000000"
     stroke-opacity="1"
     stroke-miterlimit="4"
     d="M 136.00391,252.3322 H 81.292969"
     id="path172" />
  <path
     fill="none"
     stroke-width="1.98425"
     stroke-linecap="round"
     stroke-linejoin="miter"
     stroke="#000000"
     stroke-opacity="1"
     stroke-miterlimit="4"
     d="m 177.10547,500.63688 -41.10156,27.35157"
     id="path174" />
  <path
     fill="none"
     stroke-width="1.98425"
     stroke-linecap="round"
     stroke-linejoin="miter"
     stroke="#000000"
     stroke-opacity="1"
     stroke-miterlimit="4"
     d="M 177.10547,557.32829 136.00391,527.98845"
     id="path176" />
  <path
     fill="none"
     stroke-width="1.98425"
     stroke-linecap="round"
     stroke-linejoin="miter"
     stroke="#000000"
     stroke-opacity="1"
     stroke-miterlimit="4"
     d="M 136.00391,527.98845 H 81.292969"
     id="path178" />
  <path
     fill-rule="nonzero"
     fill="#000000"
     fill-opacity="1"
     d="m 11.480469,528.87517 c 0,-2.96875 -2.03125,-5.46875 -4.726563,-5.46875 -1.171875,0 -2.265625,0.39062 -3.164062,1.28906 v -4.88281 c 0.507812,0.15625 1.328125,0.3125 2.109375,0.3125 3.085937,0 4.84375,-2.26563 4.84375,-2.57813 0,-0.15625 -0.07813,-0.27344 -0.273438,-0.27344 0,0 -0.07813,0 -0.195312,0.0781 -0.507813,0.23437 -1.71875,0.74219 -3.398438,0.74219 -0.976562,0 -2.148437,-0.19532 -3.320312,-0.70313 -0.195313,-0.0781 -0.273438,-0.0781 -0.273438,-0.0781 -0.273437,0 -0.273437,0.19531 -0.273437,0.58593 v 7.38282 c 0,0.42968 0,0.625 0.351562,0.625 0.195313,0 0.234375,-0.0391 0.351563,-0.19532 0.273437,-0.39062 1.171875,-1.75781 3.203125,-1.75781 1.289062,0 1.914062,1.13281 2.109375,1.60156 0.390625,0.9375 0.46875,1.875 0.46875,3.125 0,0.89844 0,2.38282 -0.625,3.4375 -0.585938,0.97657 -1.523438,1.60157 -2.65625,1.60157 -1.796875,0 -3.242188,-1.32813 -3.671875,-2.77344 0.078125,0 0.15625,0.0391 0.429687,0.0391 0.820313,0 1.25,-0.625 1.25,-1.21094 0,-0.625 -0.429687,-1.25 -1.25,-1.25 -0.351562,0 -1.210937,0.19532 -1.210937,1.32813 0,2.14844 1.71875,4.57031 4.492187,4.57031 2.890625,0 5.429688,-2.38281 5.429688,-5.54687 z m 0,0"
     id="path180" />
  <path
     fill-rule="nonzero"
     fill="#000000"
     fill-opacity="1"
     d="m 27.082031,521.67204 h -0.585937 c -0.03906,0.39063 -0.234375,1.40625 -0.46875,1.5625 -0.117188,0.11719 -1.445313,0.11719 -1.71875,0.11719 h -3.203125 c 1.835937,-1.60156 2.460937,-2.10938 3.476562,-2.92969 1.289063,-1.01562 2.5,-2.10937 2.5,-3.75 0,-2.10937 -1.835937,-3.39844 -4.0625,-3.39844 -2.148437,0 -3.628906,1.52344 -3.628906,3.125 0,0.85938 0.738281,0.97657 0.933594,0.97657 0.390625,0 0.898437,-0.3125 0.898437,-0.9375 0,-0.3125 -0.117187,-0.9375 -1.015625,-0.9375 0.546875,-1.21094 1.71875,-1.60157 2.539063,-1.60157 1.757812,0 2.65625,1.36719 2.65625,2.77344 0,1.52344 -1.09375,2.69531 -1.640625,3.32031 l -4.175781,4.17969 c -0.195313,0.15625 -0.195313,0.19531 -0.195313,0.66406 h 7.183594 z m 0,0"
     id="path182" />
  <path
     fill-rule="nonzero"
     fill="#000000"
     fill-opacity="1"
     d="m 41.890625,529.22673 c 0,-2.46094 -1.640625,-4.53125 -3.710937,-5.03906 l -3.203125,-0.74219 c -1.5625,-0.39063 -2.5,-1.71875 -2.5,-3.16406 0,-1.75782 1.328125,-3.28125 3.28125,-3.28125 4.140625,0 4.6875,4.10156 4.84375,5.19531 0.03906,0.15625 0.03906,0.3125 0.3125,0.3125 0.3125,0 0.3125,-0.11719 0.3125,-0.58594 v -5 c 0,-0.42969 0,-0.625 -0.273438,-0.625 -0.15625,0 -0.195312,0.0391 -0.351562,0.35156 l -0.898438,1.40625 c -0.742187,-0.74218 -1.757812,-1.75781 -3.984375,-1.75781 -2.773437,0 -4.84375,2.1875 -4.84375,4.84375 0,2.07031 1.328125,3.90625 3.242188,4.57031 0.273437,0.0781 1.5625,0.39063 3.320312,0.82032 0.664063,0.15625 1.40625,0.35156 2.109375,1.25 0.507813,0.66406 0.78125,1.48437 0.78125,2.30468 0,1.75782 -1.25,3.55469 -3.359375,3.55469 -0.703125,0 -2.617187,-0.11719 -3.945312,-1.32812 C 31.578125,530.94548 31.5,529.38298 31.5,528.48454 c -0.03906,-0.27344 -0.234375,-0.27344 -0.3125,-0.27344 -0.3125,0 -0.3125,0.19532 -0.3125,0.625 v 5 c 0,0.42969 0,0.58594 0.273438,0.58594 0.15625,0 0.195312,-0.0391 0.351562,-0.3125 0,0 0.07813,-0.11719 0.898438,-1.44531 0.78125,0.85937 2.382812,1.75781 4.609375,1.75781 2.890625,0 4.882812,-2.42187 4.882812,-5.19531 z m 0,0"
     id="path184" />
  <path
     fill-rule="nonzero"
     fill="#000000"
     fill-opacity="1"
     d="m 51.546875,538.37126 v -0.625 h -0.664062 c -1.757813,0 -1.757813,-0.23438 -1.757813,-0.82031 v -9.64844 c 0,-0.46875 0,-0.46875 -0.507812,-0.46875 -1.132813,1.09375 -2.695313,1.09375 -3.398438,1.09375 v 0.625 c 0.390625,0 1.5625,0 2.5,-0.46875 v 8.86719 c 0,0.58593 0,0.82031 -1.71875,0.82031 h -0.664062 v 0.625 l 3.085937,-0.0781 z m 0,0"
     id="path186" />
  <path
     fill-rule="nonzero"
     fill="#000000"
     fill-opacity="1"
     d="m 62.0625,525.75407 c 0,-0.27344 -0.234375,-0.42969 -0.429687,-0.42969 -0.273438,0 -0.351563,0.19532 -0.46875,0.42969 l -6.484375,16.21094 c -0.117188,0.23437 -0.117188,0.27344 -0.117188,0.3125 0,0.27344 0.234375,0.42969 0.429688,0.42969 0.3125,0 0.390625,-0.19532 0.46875,-0.42969 l 6.484375,-16.21094 c 0.117187,-0.23437 0.117187,-0.27344 0.117187,-0.3125 z m 0,0"
     id="path188" />
  <path
     fill-rule="nonzero"
     fill="#000000"
     fill-opacity="1"
     d="m 72.226563,535.2072 h -0.585938 c -0.03906,0.39062 -0.234375,1.40625 -0.46875,1.5625 -0.117187,0.11718 -1.445312,0.11718 -1.71875,0.11718 H 66.25 c 1.835938,-1.60156 2.460938,-2.10937 3.476563,-2.92968 1.289062,-1.01563 2.5,-2.10938 2.5,-3.75 0,-2.10938 -1.835938,-3.39844 -4.0625,-3.39844 -2.148438,0 -3.632813,1.52344 -3.632813,3.125 0,0.85937 0.742188,0.97656 0.9375,0.97656 0.390625,0 0.898438,-0.3125 0.898438,-0.9375 0,-0.3125 -0.117188,-0.9375 -1.015625,-0.9375 0.546875,-1.21094 1.71875,-1.60156 2.539062,-1.60156 1.757813,0 2.65625,1.36719 2.65625,2.77344 0,1.52343 -1.09375,2.69531 -1.640625,3.32031 l -4.179687,4.17969 c -0.195313,0.15625 -0.195313,0.19531 -0.195313,0.66406 h 7.1875 z m 0,0"
     id="path190" />
  <g
     id="g4"
     transform="translate(0,91.277513)">
    <path
       fill-rule="nonzero"
       fill="#000000"
       fill-opacity="1"
       d="m 9.921875,161.94141 c 0,-2.96875 -2.03125,-5.46875 -4.726562,-5.46875 -1.171875,0 -2.265625,0.39062 -3.164063,1.28906 v -4.88281 c 0.507813,0.15625 1.328125,0.3125 2.109375,0.3125 3.085938,0 4.84375,-2.26563 4.84375,-2.57813 0,-0.15625 -0.078125,-0.27344 -0.273437,-0.27344 0,0 -0.078125,0 -0.195313,0.0781 -0.507812,0.23438 -1.71875,0.74219 -3.398437,0.74219 -0.976563,0 -2.148438,-0.19531 -3.320313,-0.70312 -0.195312,-0.0781 -0.273437,-0.0781 -0.273437,-0.0781 C 1.25,150.37891 1.25,150.57422 1.25,150.96484 v 7.38282 c 0,0.42968 0,0.625 0.351563,0.625 0.195312,0 0.234375,-0.0391 0.351562,-0.19532 0.273438,-0.39062 1.171875,-1.75781 3.203125,-1.75781 1.289063,0 1.914063,1.13281 2.109375,1.60156 0.390625,0.9375 0.46875,1.875 0.46875,3.125 0,0.89844 0,2.38282 -0.625,3.4375 -0.585937,0.97657 -1.523437,1.60157 -2.65625,1.60157 -1.796875,0 -3.242187,-1.32813 -3.671875,-2.77344 0.078125,0 0.15625,0.0391 0.429688,0.0391 0.820312,0 1.25,-0.625 1.25,-1.21094 0,-0.625 -0.429688,-1.25 -1.25,-1.25 C 0.859375,161.58984 0,161.78516 0,162.91797 c 0,2.14844 1.71875,4.57031 4.492188,4.57031 2.890625,0 5.429687,-2.38281 5.429687,-5.54687 z m 0,0"
       id="path192" />
    <path
       fill-rule="nonzero"
       fill="#000000"
       fill-opacity="1"
       d="m 25.527344,154.73437 h -0.585938 c -0.03906,0.39063 -0.234375,1.40625 -0.46875,1.5625 -0.117187,0.11719 -1.445312,0.11719 -1.71875,0.11719 h -3.203125 c 1.835938,-1.60156 2.460938,-2.10937 3.476563,-2.92969 1.289062,-1.01562 2.5,-2.10937 2.5,-3.75 0,-2.10937 -1.835938,-3.39843 -4.0625,-3.39843 -2.148438,0 -3.632813,1.52343 -3.632813,3.125 0,0.85937 0.742188,0.97656 0.9375,0.97656 0.390625,0 0.898438,-0.3125 0.898438,-0.9375 0,-0.3125 -0.117188,-0.9375 -1.015625,-0.9375 0.546875,-1.21094 1.71875,-1.60156 2.539062,-1.60156 1.757813,0 2.65625,1.36718 2.65625,2.77343 0,1.52344 -1.09375,2.69532 -1.640625,3.32032 l -4.179687,4.17968 c -0.195313,0.15625 -0.195313,0.19532 -0.195313,0.66407 h 7.1875 z m 0,0"
       id="path194" />
    <path
       fill-rule="nonzero"
       fill="#000000"
       fill-opacity="1"
       d="m 43.460938,154.55859 c 0,-2.46093 -2.460938,-4.64843 -5.859375,-4.64843 h -8.828125 v 0.78125 h 0.625 c 1.914062,0 1.953125,0.27343 1.953125,1.17187 v 13.125 c 0,0.89844 -0.03906,1.17188 -1.953125,1.17188 h -0.625 v 0.78125 c 0.898437,-0.0781 2.734375,-0.0781 3.671875,-0.0781 0.9375,0 2.8125,0 3.710937,0.0781 v -0.78125 h -0.625 c -1.914062,0 -1.953125,-0.27344 -1.953125,-1.17188 v -5.9375 h 4.21875 c 2.96875,0 5.664063,-1.99219 5.664063,-4.49219 z m -2.578125,0 c 0,1.17188 0,3.86719 -3.945313,3.86719 H 33.5 v -6.71875 c 0,-0.85937 0.03906,-1.01562 1.210938,-1.01562 H 36.9375 c 3.945313,0 3.945313,2.65625 3.945313,3.86718 z m 0,0"
       id="path196" />
    <path
       fill-rule="nonzero"
       fill="#000000"
       fill-opacity="1"
       d="m 53.808594,168.42578 c 0,-1.36719 -1.09375,-2.73437 -3.007813,-3.125 1.796875,-0.66406 2.460938,-1.95312 2.460938,-3.04687 0,-1.36719 -1.5625,-2.38282 -3.515625,-2.38282 -1.914063,0 -3.398438,0.9375 -3.398438,2.34375 0,0.58594 0.390625,0.89844 0.898438,0.89844 0.546875,0 0.898437,-0.39062 0.898437,-0.85937 0,-0.50782 -0.351562,-0.89844 -0.898437,-0.9375 0.625,-0.74219 1.796875,-0.9375 2.460937,-0.9375 0.78125,0 1.875,0.39062 1.875,1.875 0,0.74218 -0.234375,1.5625 -0.703125,2.07031 -0.546875,0.66406 -1.054687,0.70312 -1.914062,0.78125 -0.429688,0.0391 -0.46875,0.0391 -0.546875,0.0391 0,0 -0.195313,0.0391 -0.195313,0.23438 0,0.23437 0.15625,0.23437 0.46875,0.23437 h 0.9375 c 1.367188,0 2.34375,0.9375 2.34375,2.8125 0,2.14844 -1.289062,2.8125 -2.265625,2.8125 -0.703125,0 -2.265625,-0.19531 -2.96875,-1.25 0.820313,0 1.015625,-0.58594 1.015625,-0.97656 0,-0.54688 -0.429687,-0.9375 -0.976562,-0.9375 -0.46875,0 -0.976563,0.3125 -0.976563,1.01562 0,1.64063 1.796875,2.69532 3.90625,2.69532 2.421875,0 4.101563,-1.64063 4.101563,-3.35938 z m 0,0"
       id="path198" />
    <path
       fill-rule="nonzero"
       fill="#000000"
       fill-opacity="1"
       d="m 63.617188,158.81641 c 0,-0.27344 -0.234375,-0.42969 -0.429688,-0.42969 -0.273437,0 -0.351562,0.19531 -0.46875,0.42969 l -6.484375,16.21093 c -0.117187,0.23438 -0.117187,0.27344 -0.117187,0.3125 0,0.27344 0.234375,0.42969 0.429687,0.42969 0.3125,0 0.390625,-0.19531 0.46875,-0.42969 L 63.5,159.12891 c 0.117188,-0.23438 0.117188,-0.27344 0.117188,-0.3125 z m 0,0"
       id="path200" />
    <path
       fill-rule="nonzero"
       fill="#000000"
       fill-opacity="1"
       d="m 73.785156,168.26953 h -0.585937 c -0.03906,0.39063 -0.234375,1.40625 -0.46875,1.5625 -0.117188,0.11719 -1.445313,0.11719 -1.71875,0.11719 h -3.203125 c 1.835937,-1.60156 2.460937,-2.10938 3.476562,-2.92969 1.289063,-1.01562 2.5,-2.10937 2.5,-3.75 0,-2.10937 -1.835937,-3.39844 -4.0625,-3.39844 -2.148437,0 -3.632812,1.52344 -3.632812,3.125 0,0.85938 0.742187,0.97657 0.9375,0.97657 0.390625,0 0.898437,-0.3125 0.898437,-0.9375 0,-0.3125 -0.117187,-0.9375 -1.015625,-0.9375 0.546875,-1.21094 1.71875,-1.60157 2.539063,-1.60157 1.757812,0 2.65625,1.36719 2.65625,2.77344 0,1.52344 -1.09375,2.69531 -1.640625,3.32031 l -4.179688,4.17969 c -0.195312,0.15625 -0.195312,0.19531 -0.195312,0.66406 h 7.1875 z m 0,0"
       id="path202" />
  </g>
  <g
     id="g1"
     transform="matrix(1,0,0,0.9694768,0,103.74171)"
     style="stroke-width:1.01562">
    <path
       fill-rule="evenodd"
       fill="#007d00"
       fill-opacity="1"
       d="m 182.79687,108.66035 9.27735,-25.511742 9.27734,25.511742 c -5.40625,-4.63673 -13.1289,-4.63673 -18.55469,0 z m 0,0"
       id="path204"
       style="stroke-width:1.03148" />
    <path
       fill-rule="evenodd"
       fill="#007d00"
       fill-opacity="1"
       d="m 201.35156,382.83984 -9.27734,25.51172 -9.27735,-25.51172 c 5.40235,4.64063 13.125,4.64063 18.55469,0 z m 0,0"
       id="path206"
       style="stroke-width:1.03148" />
    <path
       fill="none"
       stroke-width="4.31839"
       stroke-linecap="round"
       stroke-linejoin="miter"
       stroke="#007d00"
       stroke-opacity="1"
       stroke-miterlimit="4"
       d="M 192.07422,98.889417 V 387.87245"
       id="path208" />
  </g>
  <path
     fill-rule="evenodd"
     fill="#c87d00"
     fill-opacity="1"
     d="m 211.32422,251.48063 9.27734,-25.51171 9.27735,25.51171 c -5.40235,-4.63671 -13.125,-4.63671 -18.55469,0 z m 0,0"
     id="path210" />
  <path
     fill-rule="evenodd"
     fill="#c87d00"
     fill-opacity="1"
     d="m 229.87891,530.78532 -9.27735,25.51172 -9.27734,-25.51172 c 5.40625,4.63672 13.1289,4.63672 18.55469,0 z m 0,0"
     id="path212" />
  <path
     fill="none"
     stroke-width="3.53845"
     stroke-linecap="round"
     stroke-linejoin="miter"
     stroke="#c87d00"
     stroke-opacity="1"
     stroke-miterlimit="4"
     d="M 220.60156,241.95031 V 535.7788"
     id="path214" />
  <g
     id="g2"
     transform="translate(0,91.277513)">
    <path
       fill-rule="nonzero"
       fill="#007d00"
       fill-opacity="1"
       d="m 171.77344,369.54297 v 0.70312 c 2.69531,1.25 3.28125,2.30469 3.28125,5.89844 v 0.66406 c 0,1.21094 -0.11719,2.26563 -0.27344,2.42188 -0.0781,0.11719 -0.35156,0.19531 -0.78125,0.19531 h -6.17188 v -3.82812 c 0,-2.07032 0.35157,-2.42188 2.42188,-2.77344 v -0.54688 h -5.78125 v 0.54688 c 1.01562,0.19531 1.36719,0.27344 1.71875,0.54687 0.42969,0.35157 0.625,1.05469 0.625,2.22657 v 3.82812 h -5.50781 c -0.70313,0 -0.85938,-0.15625 -0.85938,-0.82031 v -3.35938 c 0,-2.85156 0.35156,-3.39843 2.61719,-3.78906 v -0.625 l -3.55469,0.0781 v 13.20312 h 0.46875 c 0.15625,-1.83594 0.50781,-2.14844 2.22656,-2.14844 h 11.05469 c 1.75781,0 2.14844,0.35157 2.26563,2.14844 h 0.46875 v -13.4375 z m 0,0"
       id="path216" />
    <path
       fill-rule="nonzero"
       fill="#007d00"
       fill-opacity="1"
       d="m 166.07031,368.81641 c -0.0781,-0.15625 -0.0781,-0.39063 -0.0781,-0.66407 0,-0.70312 0.35156,-0.9375 1.5625,-0.9375 h 6.21093 c 1.40625,0 1.75782,0.27344 1.83594,1.5625 h 0.39063 v -5.3125 h -0.39063 c -0.0781,1.28907 -0.39062,1.64063 -1.28906,1.64063 h -6.99219 c -1.13281,-1.17188 -1.40625,-1.71875 -1.40625,-2.53906 0,-1.25 0.74219,-1.83594 2.38281,-1.83594 h 5.23438 c 1.5625,0 1.99219,0.3125 2.07031,1.5625 h 0.39063 v -5.15625 h -0.39063 c -0.11719,1.21094 -0.39062,1.48437 -1.64062,1.48437 h -5.70313 c -2.34375,0 -3.71094,1.13282 -3.71094,2.96875 0,1.13282 0.39063,1.91407 1.99219,3.59375 h -1.95312 l -0.0391,0.19532 c 0.42969,1.21093 0.70313,2.07031 1.09375,3.4375 z m 0,0"
       id="path218" />
    <path
       fill-rule="nonzero"
       fill="#007d00"
       fill-opacity="1"
       d="m 164.78125,349.05859 v 3.04688 h -2.89063 c -1.44531,0 -2.22656,-0.46875 -2.22656,-1.40625 0,-0.50781 0.23438,-0.85938 0.97656,-1.32813 0.66407,-0.39062 0.89844,-0.70312 0.89844,-1.13281 0,-0.54687 -0.46875,-1.01562 -1.01562,-1.01562 -0.89844,0 -1.5625,1.09375 -1.5625,2.57812 0,1.5625 0.66406,2.85156 1.83593,3.51563 1.09375,0.66406 1.99219,0.85937 3.98438,0.85937 v 2.07031 h 0.78125 v -2.07031 h 7.85156 c 1.79688,0 2.10938,0.27344 2.1875,2.07031 h 0.39063 v -6.48437 h -0.39063 c -0.0391,2.07031 -0.35156,2.34375 -2.1875,2.34375 h -7.85156 v -3.04688 z m 0,0"
       id="path220" />
    <path
       fill-rule="nonzero"
       fill="#007d00"
       fill-opacity="1"
       d="m 166.26562,348.30469 c -0.0781,-0.35157 -0.0781,-0.58594 -0.0781,-0.89844 0,-0.625 0.39062,-0.82031 1.48437,-0.82031 h 6.21094 c 1.25,0 1.44531,0.15625 1.71875,1.75781 h 0.39063 v -5.97656 h -0.39063 c -0.0391,1.67968 -0.42969,2.10937 -1.83594,2.10937 h -5.625 c -0.78125,0 -2.03125,-1.09375 -2.03125,-1.75781 0,-0.15625 0.11719,-0.35156 0.35157,-0.625 0.35156,-0.42969 0.50781,-0.70313 0.50781,-1.01563 0,-0.58593 -0.42969,-0.97656 -1.13281,-0.97656 -0.82032,0 -1.28907,0.54688 -1.28907,1.36719 0,1.05469 0.54688,1.79687 2.30469,3.00781 h -2.26562 l -0.0391,0.11719 c 0.54688,1.32812 0.85938,2.22656 1.32813,3.71094 z m 0,0"
       id="path222" />
    <path
       fill-rule="nonzero"
       fill="#007d00"
       fill-opacity="1"
       d="m 164.54687,335.78906 1.36719,3.86719 h 0.35156 v -0.19531 c -0.0781,-0.3125 -0.0781,-0.625 -0.0781,-0.85938 0,-0.58594 0.39062,-0.82031 1.48437,-0.82031 h 5.78125 c 1.79688,0 2.07032,0.27344 2.14844,1.99219 h 0.39063 V 333.875 h -0.39063 c -0.11719,1.64062 -0.35156,1.83594 -2.14844,1.83594 h -8.86718 z m -5.58593,1.17188 c 0,0.70312 0.58593,1.25 1.28906,1.25 0.70312,0 1.25,-0.54688 1.25,-1.25 0,-0.70313 -0.54688,-1.28907 -1.25,-1.28907 -0.70313,0 -1.28906,0.58594 -1.28906,1.28907 z m 0,0"
       id="path224" />
    <path
       fill-rule="nonzero"
       fill="#007d00"
       fill-opacity="1"
       d="m 174.35156,322.22656 c 0.35156,0.42969 0.46875,0.74219 0.46875,1.09375 0,0.58594 -0.35156,0.74219 -1.44531,0.74219 h -4.84375 c -1.32813,0 -2.03125,0.11719 -2.61719,0.50781 -0.89844,0.54688 -1.36719,1.60156 -1.36719,3.08594 0,2.34375 1.21094,4.17969 2.77344,4.17969 0.58594,0 1.05469,-0.46875 1.05469,-1.05469 0,-0.58594 -0.46875,-1.13281 -1.01563,-1.13281 -0.11718,0 -0.23437,0.0391 -0.42968,0.0391 -0.19532,0.0781 -0.39063,0.0781 -0.58594,0.0781 -0.66406,0 -1.21094,-0.78125 -1.21094,-1.79687 0,-1.21094 0.70313,-1.875 2.07031,-1.875 h 1.52344 c 1.52344,3.82812 1.71875,4.25781 2.69531,5.3125 0.46875,0.54687 1.32813,0.89844 2.14844,0.89844 1.5625,0 2.65625,-1.09375 2.65625,-2.61719 0,-1.09375 -0.50781,-2.10938 -1.79687,-3.63281 1.28906,-0.11719 1.79687,-0.54688 1.79687,-1.60157 0,-0.82031 -0.27344,-1.36718 -1.25,-2.22656 z m -1.40625,3.86719 c 0.74219,0 0.97656,0.11719 1.28906,0.625 0.35157,0.625 0.54688,1.32812 0.54688,1.83594 0,0.85937 -0.82031,1.5625 -1.91406,1.5625 h -0.0781 c -1.48437,0 -2.38281,-1.01563 -3.47656,-4.02344 z m 0,0"
       id="path226" />
    <path
       fill-rule="nonzero"
       fill="#007d00"
       fill-opacity="1"
       d="m 166.07031,321.71094 c -0.0781,-0.3125 -0.0781,-0.54688 -0.0781,-0.82032 0,-0.625 0.39062,-0.85937 1.5625,-0.85937 h 6.32812 c 1.32813,0 1.71875,0.35156 1.71875,1.75781 h 0.39063 v -5.54687 h -0.39063 c -0.0391,1.32812 -0.3125,1.71875 -1.28906,1.71875 h -7.03125 c -0.0391,0 -0.27344,-0.23438 -0.46875,-0.39063 -0.54688,-0.625 -0.97656,-1.67969 -0.97656,-2.57812 0,-1.08985 0.85937,-1.63672 2.61718,-1.63672 h 5.39063 c 1.40625,0 1.67969,0.27344 1.75781,1.71484 h 0.39063 v -5.58203 h -0.39063 c 0,1.40625 -0.42969,1.79688 -1.99219,1.79688 h -6.25 c -1.09375,-0.78125 -1.52343,-1.60157 -1.52343,-2.73438 0,-1.40625 0.66406,-1.875 2.73437,-1.875 h 5.23438 c 1.44531,0 1.64062,0.19531 1.79687,1.64063 h 0.39063 v -5.42969 h -0.39063 l -0.0391,0.625 c -0.0391,0.74219 -0.50781,1.09375 -1.44531,1.09375 h -5.15625 c -2.92969,0 -4.41407,0.9375 -4.41407,2.89062 0,1.44532 0.625,2.69532 2.07032,4.0625 -1.40625,0.42969 -2.07032,1.28907 -2.07032,2.61719 0,1.08984 0.3125,1.79297 1.91407,3.86328 h -1.875 l -0.0391,0.19531 c 0.46875,1.25 0.74219,2.10938 1.09375,3.47657 z m 0,0"
       id="path228" />
    <path
       fill-rule="nonzero"
       fill="#007d00"
       fill-opacity="1"
       d="m 164.54687,298.43359 1.36719,3.86719 h 0.35156 v -0.19531 c -0.0781,-0.3125 -0.0781,-0.625 -0.0781,-0.85938 0,-0.58593 0.39062,-0.82031 1.48437,-0.82031 h 5.78125 c 1.79688,0 2.07032,0.27344 2.14844,1.99219 h 0.39063 v -5.89844 h -0.39063 c -0.11719,1.64063 -0.35156,1.83594 -2.14844,1.83594 h -8.86718 z m -5.58593,1.17188 c 0,0.70312 0.58593,1.25 1.28906,1.25 0.70312,0 1.25,-0.54688 1.25,-1.25 0,-0.70313 -0.54688,-1.28906 -1.25,-1.28906 -0.70313,0 -1.28906,0.58593 -1.28906,1.28906 z m 0,0"
       id="path230" />
    <path
       fill-rule="nonzero"
       fill="#007d00"
       fill-opacity="1"
       d="m 171.89062,285.72656 c 1.91407,1.17188 2.61719,2.26563 2.61719,3.86719 0,1.40625 -0.70312,2.46094 -2.14844,3.20312 -0.9375,0.42969 -1.75781,0.625 -3.28125,0.66407 v -7.65625 c -1.60156,0.19531 -2.34375,0.42968 -3.125,1.05468 -0.89843,0.74219 -1.40625,1.91407 -1.40625,3.20313 0,1.25 0.42969,2.42187 1.28907,3.35937 1.01562,1.17188 2.77343,1.83594 4.80468,1.83594 3.47657,0 5.58594,-1.79687 5.58594,-4.64844 0,-2.38281 -1.44531,-4.25781 -4.14062,-5.3125 z m -3.59375,7.69531 c -1.95312,-0.27343 -2.89062,-1.13281 -2.89062,-2.65625 0,-1.52343 0.70312,-2.10937 2.89062,-2.42187 z m 0,0"
       id="path232" />
    <path
       fill-rule="nonzero"
       fill="#007d00"
       fill-opacity="1"
       d="m 166.07031,284.43359 c -0.0781,-0.15625 -0.0781,-0.39062 -0.0781,-0.66406 0,-0.70312 0.35156,-0.9375 1.5625,-0.9375 h 6.21093 c 1.40625,0 1.75782,0.27344 1.83594,1.5625 h 0.39063 v -5.3125 h -0.39063 c -0.0781,1.28906 -0.39062,1.64063 -1.28906,1.64063 h -6.99219 c -1.13281,-1.17188 -1.40625,-1.71875 -1.40625,-2.53907 0,-1.25 0.74219,-1.83593 2.38281,-1.83593 h 5.23438 c 1.5625,0 1.99219,0.3125 2.07031,1.5625 h 0.39063 v -5.15625 h -0.39063 c -0.11719,1.21093 -0.39062,1.48437 -1.64062,1.48437 h -5.70313 c -2.34375,0 -3.71094,1.13281 -3.71094,2.96875 0,1.13281 0.39063,1.91406 1.99219,3.59375 h -1.95312 l -0.0391,0.19531 c 0.42969,1.21094 0.70313,2.07032 1.09375,3.4375 z m 0,0"
       id="path234" />
    <path
       fill-rule="nonzero"
       fill="#007d00"
       fill-opacity="1"
       d="m 164.78125,266.00391 v 2.53906 h -2.89063 c -0.23437,0 -0.3125,0 -0.3125,0.15625 0.19532,0.19531 0.42969,0.35156 0.66407,0.50781 1.40625,0.9375 2.57812,2.03125 2.69531,2.42188 0.15625,0.27343 0.35156,0.42968 0.46875,0.42968 0.0781,0 0.11719,-0.0391 0.15625,-0.11718 v -1.32813 h 7.5 c 2.10937,0 3.16406,-0.74219 3.16406,-2.1875 0,-1.25 -0.58594,-2.1875 -1.875,-3.00781 l -0.27344,0.3125 c 0.625,0.54687 0.85938,0.97656 0.85938,1.52344 0,0.89843 -0.66406,1.28906 -2.22656,1.28906 h -7.14844 v -2.53906 z m 0,0"
       id="path236" />
    <path
       fill-rule="nonzero"
       fill="#007d00"
       fill-opacity="1"
       d="m 164.54687,259.19531 c 0,3.24219 2.38282,5.50781 5.82032,5.50781 3.35937,0 5.85937,-2.30468 5.85937,-5.42968 0,-3.16407 -2.61719,-5.54688 -6.05469,-5.54688 -3.28125,0 -5.625,2.30469 -5.625,5.46875 z m 0.66407,0.35156 c 0,-2.10937 2.42187,-3.55468 5.82031,-3.55468 2.8125,0 4.53125,1.09375 4.53125,2.96875 0,0.97656 -0.625,1.91406 -1.60156,2.42187 -1.28907,0.70313 -3.04688,1.09375 -4.80469,1.09375 -2.38281,0 -3.94531,-1.17187 -3.94531,-2.92969 z m 0,0"
       id="path238" />
  </g>
  <g
     id="g3"
     transform="translate(0,90.232573)">
    <path
       fill-rule="nonzero"
       fill="#c87d00"
       fill-opacity="1"
       d="m 250.76172,357.36719 c -0.0781,0.9375 -0.3125,1.44531 -1.17188,2.14843 l -6.32812,5.11719 c -0.3125,-1.64062 -0.58594,-2.38281 -1.28906,-3.20312 -0.625,-0.82032 -1.67969,-1.28907 -2.85157,-1.28907 -1.09375,0 -1.99218,0.3125 -2.73437,0.97657 -1.01563,0.9375 -1.64063,3.00781 -1.64063,5.35156 v 6.875 h 0.46875 c 0.19532,-1.875 0.46875,-2.10938 2.22657,-2.10938 h 10.78125 c 2.07031,0 2.38281,0.23438 2.53906,2.10938 h 0.46875 v -6.91406 h -0.46875 c -0.11719,1.95312 -0.46875,2.26562 -2.26563,2.26562 h -4.88281 l -0.0781,-1.40625 7.69531,-5.9375 v -3.98437 z m -14.21875,11.32812 c -0.70313,0 -0.89844,-0.27344 -0.89844,-1.28906 0,-3.08594 1.09375,-4.53125 3.4375,-4.53125 1.25,0 2.26563,0.50781 2.73438,1.40625 0.66406,1.13281 0.82031,2.03125 0.85937,4.41406 z m 0,0"
       id="path240" />
    <path
       fill-rule="nonzero"
       fill="#c87d00"
       fill-opacity="1"
       d="m 247.12891,347.00391 c 1.91406,1.17187 2.61718,2.26562 2.61718,3.86718 0,1.40625 -0.70312,2.46094 -2.14843,3.20313 -0.9375,0.42969 -1.75782,0.625 -3.28125,0.66406 v -7.65625 c -1.60157,0.19531 -2.34375,0.42969 -3.125,1.05469 -0.89844,0.74219 -1.40625,1.91406 -1.40625,3.20312 0,1.25 0.42968,2.42188 1.28906,3.35938 1.01562,1.17187 2.77344,1.83594 4.80469,1.83594 3.47656,0 5.58593,-1.79688 5.58593,-4.64844 0,-2.38281 -1.44531,-4.25781 -4.14062,-5.3125 z m -3.59375,7.69531 c -1.95313,-0.27344 -2.89063,-1.13281 -2.89063,-2.65625 0,-1.52344 0.70313,-2.10938 2.89063,-2.42188 z m 0,0"
       id="path242" />
    <path
       fill-rule="nonzero"
       fill="#c87d00"
       fill-opacity="1"
       d="m 234.27734,342.27344 -0.0781,0.15625 c 0.39062,1.01562 0.58594,1.71875 0.89844,2.89062 l 0.19531,0.70313 h 0.42969 c -0.0391,-0.15625 -0.0391,-0.23438 -0.0391,-0.42969 0,-0.97656 0.23438,-1.21094 1.25,-1.21094 h 12.96875 c 0.74219,0 1.5625,-2.10937 1.5625,-4.10156 0,-3.32031 -2.73437,-5.85938 -6.28906,-5.85938 -3.08594,0 -5.39062,1.91407 -5.39062,4.41407 0,1.52343 0.85937,2.96875 2.10937,3.4375 z m 8.94532,0 c -0.97657,0 -1.875,-1.17188 -1.875,-2.46094 0,-1.95313 1.91406,-3.16406 4.96093,-3.16406 2.77344,0 4.375,1.17187 4.375,3.20312 0,1.32813 -0.58593,2.42188 -1.21093,2.42188 z m 0,0"
       id="path244" />
    <path
       fill-rule="nonzero"
       fill="#c87d00"
       fill-opacity="1"
       d="m 239.78516,327.39844 c 0,3.24218 2.38281,5.50781 5.82031,5.50781 3.35937,0 5.85937,-2.30469 5.85937,-5.42969 0,-3.16406 -2.61718,-5.54687 -6.05468,-5.54687 -3.28125,0 -5.625,2.30468 -5.625,5.46875 z m 0.66406,0.35156 c 0,-2.10938 2.42187,-3.55469 5.82031,-3.55469 2.8125,0 4.53125,1.09375 4.53125,2.96875 0,0.97656 -0.625,1.91406 -1.60156,2.42188 -1.28906,0.70312 -3.04688,1.09375 -4.80469,1.09375 -2.38281,0 -3.94531,-1.17188 -3.94531,-2.92969 z m 0,0"
       id="path246" />
    <path
       fill-rule="nonzero"
       fill="#c87d00"
       fill-opacity="1"
       d="m 241.30859,320.72656 c -0.0781,-0.3125 -0.0781,-0.54687 -0.0781,-0.82031 0,-0.625 0.39062,-0.85938 1.5625,-0.85938 h 6.32812 c 1.32813,0 1.71875,0.35157 1.71875,1.75782 h 0.39063 v -5.54688 h -0.39063 c -0.0391,1.32813 -0.3125,1.71875 -1.28906,1.71875 h -7.03125 c -0.0391,0 -0.27344,-0.23437 -0.46875,-0.39062 -0.54687,-0.625 -0.97656,-1.67969 -0.97656,-2.57813 0,-1.09375 0.85937,-1.64062 2.61719,-1.64062 h 5.39062 c 1.40625,0 1.67969,0.27343 1.75781,1.71875 h 0.39063 V 308.5 h -0.39063 c 0,1.40625 -0.42968,1.79687 -1.99218,1.79687 h -6.25 c -1.09375,-0.78125 -1.52344,-1.60156 -1.52344,-2.73437 0,-1.40625 0.66406,-1.875 2.73437,-1.875 h 5.23438 c 1.44531,0 1.64062,0.19531 1.79687,1.64062 h 0.39063 v -5.42968 h -0.39063 l -0.0391,0.625 c -0.0391,0.74218 -0.50781,1.09375 -1.44531,1.09375 h -5.15625 c -2.92969,0 -4.41406,0.9375 -4.41406,2.89062 0,1.44531 0.625,2.69531 2.07031,4.0625 -1.40625,0.42969 -2.07031,1.28906 -2.07031,2.61719 0,1.09375 0.3125,1.79687 1.91406,3.86719 h -1.875 l -0.0391,0.19531 c 0.46875,1.25 0.74218,2.10937 1.09375,3.47656 z m 0,0"
       id="path248" />
    <path
       fill-rule="nonzero"
       fill="#c87d00"
       fill-opacity="1"
       d="m 234.27734,297.98828 -0.0781,0.15625 c 0.39062,1.01563 0.58594,1.71875 0.89844,2.89063 l 0.19531,0.70312 h 0.42969 c -0.0391,-0.15625 -0.0391,-0.23437 -0.0391,-0.42969 0,-0.97656 0.23438,-1.21093 1.25,-1.21093 h 12.96875 c 0.74219,0 1.5625,-2.10938 1.5625,-4.10157 0,-3.32031 -2.73437,-5.85937 -6.28906,-5.85937 -3.08594,0 -5.39062,1.91406 -5.39062,4.41406 0,1.52344 0.85937,2.96875 2.10937,3.4375 z m 8.94532,0 c -0.97657,0 -1.875,-1.17187 -1.875,-2.46094 0,-1.95312 1.91406,-3.16406 4.96093,-3.16406 2.77344,0 4.375,1.17188 4.375,3.20313 0,1.32812 -0.58593,2.42187 -1.21093,2.42187 z m 0,0"
       id="path250" />
    <path
       fill-rule="nonzero"
       fill="#c87d00"
       fill-opacity="1"
       d="m 247.12891,279.20703 c 1.91406,1.17188 2.61718,2.26563 2.61718,3.86719 0,1.40625 -0.70312,2.46094 -2.14843,3.20312 -0.9375,0.42969 -1.75782,0.625 -3.28125,0.66407 v -7.65625 c -1.60157,0.19531 -2.34375,0.42968 -3.125,1.05468 -0.89844,0.74219 -1.40625,1.91407 -1.40625,3.20313 0,1.25 0.42968,2.42187 1.28906,3.35937 1.01562,1.17188 2.77344,1.83594 4.80469,1.83594 3.47656,0 5.58593,-1.79687 5.58593,-4.64844 0,-2.38281 -1.44531,-4.25781 -4.14062,-5.3125 z m -3.59375,7.69531 c -1.95313,-0.27343 -2.89063,-1.13281 -2.89063,-2.65625 0,-1.52343 0.70313,-2.10937 2.89063,-2.42187 z m 0,0"
       id="path252" />
    <path
       fill-rule="nonzero"
       fill="#c87d00"
       fill-opacity="1"
       d="m 239.78516,272.05469 c 0,3.24218 2.38281,5.50781 5.82031,5.50781 3.35937,0 5.85937,-2.30469 5.85937,-5.42969 0,-3.16406 -2.61718,-5.54687 -6.05468,-5.54687 -3.28125,0 -5.625,2.30468 -5.625,5.46875 z m 0.66406,0.35156 c 0,-2.10938 2.42187,-3.55469 5.82031,-3.55469 2.8125,0 4.53125,1.09375 4.53125,2.96875 0,0.97656 -0.625,1.91406 -1.60156,2.42188 -1.28906,0.70312 -3.04688,1.09375 -4.80469,1.09375 -2.38281,0 -3.94531,-1.17188 -3.94531,-2.92969 z m 0,0"
       id="path254" />
  </g>
  <path
     fill-rule="nonzero"
     fill="#000000"
     fill-opacity="1"
     d="m 261.58203,551.60563 0.50781,-4.33593 c 0.0781,-0.66407 -0.0391,-0.66407 -0.66406,-0.66407 h -12.22656 c -0.46875,0 -0.74219,0 -0.74219,0.50782 0,0.27343 0.23438,0.27343 0.70313,0.27343 0.9375,0 1.64062,0 1.64062,0.42969 0,0.11719 0,0.15625 -0.15625,0.625 l -3.28125,13.16406 c -0.23437,0.97657 -0.27344,1.17188 -2.26562,1.17188 -0.42969,0 -0.70313,0 -0.70313,0.46875 0,0.3125 0.3125,0.3125 0.39063,0.3125 l 3.28125,-0.0781 3.71093,0.0781 c 0.23438,0 0.50782,0 0.50782,-0.46875 0,-0.19531 -0.11719,-0.27344 -0.11719,-0.27344 -0.0781,-0.0391 -0.15625,-0.0391 -0.70313,-0.0391 -0.54687,0 -0.66406,0 -1.28906,-0.0391 -0.74219,-0.0781 -0.82031,-0.19532 -0.82031,-0.50782 0,0 0,-0.19531 0.11719,-0.54687 l 1.52343,-6.21094 h 2.42188 c 1.875,0 2.07031,0.39063 2.07031,1.09375 0,0.19531 0,0.46875 -0.15625,1.25 -0.0781,0.11719 -0.0781,0.27344 -0.0781,0.27344 0,0.19531 0.15625,0.27344 0.27343,0.27344 0.27344,0 0.27344,-0.0781 0.39063,-0.50782 l 1.36719,-5.42968 c 0.0781,-0.27344 0.0781,-0.3125 0.0781,-0.39063 0,0 -0.0391,-0.27344 -0.3125,-0.27344 -0.23437,0 -0.27344,0.11719 -0.35156,0.54688 -0.54688,1.91406 -1.09375,2.38281 -3.24219,2.38281 h -2.26562 l 1.60156,-6.32812 c 0.23437,-0.89844 0.27344,-0.97657 1.36719,-0.97657 h 3.28125 c 3.04687,0 3.63281,0.82032 3.63281,2.73438 0,0.58594 0,0.66406 -0.0781,1.36719 -0.0391,0.3125 -0.0391,0.35156 -0.0391,0.42968 0,0.11719 0.0781,0.3125 0.3125,0.3125 0.27344,0 0.27344,-0.15625 0.3125,-0.625 z m 0,0"
     id="path256" />
  <path
     fill-rule="nonzero"
     fill="#000000"
     fill-opacity="1"
     d="m 287.82031,554.92595 c 0,-0.50782 -0.46875,-0.50782 -0.82031,-0.50782 h -14.92188 c -0.35156,0 -0.82031,0 -0.82031,0.50782 0,0.46875 0.46875,0.46875 0.82031,0.46875 h 14.88282 c 0.39062,0 0.85937,0 0.85937,-0.46875 z m 0,4.80468 c 0,-0.46875 -0.46875,-0.46875 -0.85937,-0.46875 h -14.88282 c -0.35156,0 -0.82031,0 -0.82031,0.46875 0,0.50782 0.46875,0.50782 0.82031,0.50782 H 287 c 0.35156,0 0.82031,0 0.82031,-0.50782 z m 0,0"
     id="path258" />
  <path
     fill-rule="nonzero"
     fill="#000000"
     fill-opacity="1"
     d="m 307.32031,559.22282 h -0.58594 c -0.15625,0.74219 -0.3125,1.83594 -0.58593,2.22656 -0.15625,0.19532 -1.79688,0.19532 -2.34375,0.19532 h -4.49219 l 2.65625,-2.57813 c 3.86719,-3.4375 5.35156,-4.76562 5.35156,-7.26562 0,-2.85157 -2.22656,-4.84375 -5.27344,-4.84375 -2.8125,0 -4.64453,2.30468 -4.64453,4.53125 0,1.36718 1.25,1.36718 1.32813,1.36718 0.42578,0 1.28515,-0.27343 1.28515,-1.32812 0,-0.625 -0.46875,-1.28906 -1.32421,-1.28906 -0.19532,0 -0.23438,0 -0.3125,0.0391 0.54687,-1.64063 1.91015,-2.53906 3.35546,-2.53906 2.26563,0 3.32032,2.03125 3.32032,4.0625 0,1.99218 -1.21094,3.94531 -2.61719,5.50781 l -4.76172,5.3125 c -0.27344,0.27344 -0.27344,0.35156 -0.27344,0.9375 h 9.25391 z m 0,0"
     id="path260" />
  <g
     clip-path="url(#clip-0)"
     id="g264"
     transform="translate(0,91.277513)">
    <path
       fill-rule="nonzero"
       fill="#000000"
       fill-opacity="1"
       d="m 322.375,478.25781 c 0,-0.0781 0,-0.11719 -0.42969,-0.54687 -3.08594,-3.125 -3.90625,-7.85157 -3.90625,-11.67969 0,-4.33594 0.9375,-8.67188 4.02344,-11.75781 0.3125,-0.3125 0.3125,-0.35157 0.3125,-0.42969 0,-0.19531 -0.0781,-0.27344 -0.23438,-0.27344 -0.27343,0 -2.5,1.71875 -3.98437,4.88281 -1.25,2.73438 -1.5625,5.50782 -1.5625,7.57813 0,1.95312 0.27344,4.96094 1.64062,7.8125 1.52344,3.04687 3.63282,4.6875 3.90625,4.6875 0.15625,0 0.23438,-0.0781 0.23438,-0.27344 z m 0,0"
       id="path262" />
  </g>
  <path
     fill-rule="nonzero"
     fill="#000000"
     fill-opacity="1"
     d="m 334.24609,563.55876 v -0.78125 h -0.78125 c -2.26562,0 -2.30468,-0.27344 -2.30468,-1.17188 v -13.98437 c 0,-0.625 0,-0.66406 -0.58594,-0.66406 -1.5625,1.60156 -3.75,1.60156 -4.53125,1.60156 v 0.78125 c 0.50781,0 1.95312,0 3.24219,-0.66406 v 12.92968 c 0,0.89844 -0.0781,1.17188 -2.30469,1.17188 h -0.78125 v 0.78125 c 0.85937,-0.0781 3.00781,-0.0781 4.02344,-0.0781 0.97656,0 3.16406,0 4.02343,0.0781 z m 0,0"
     id="path266" />
  <g
     clip-path="url(#clip-1)"
     id="g270"
     transform="translate(0,91.277513)">
    <path
       fill-rule="nonzero"
       fill="#000000"
       fill-opacity="1"
       d="m 343.45703,466.03125 c 0,-1.91406 -0.27344,-4.92188 -1.64062,-7.77344 -1.48438,-3.04687 -3.63282,-4.6875 -3.86719,-4.6875 -0.15625,0 -0.27344,0.11719 -0.27344,0.27344 0,0.0781 0,0.11719 0.46875,0.58594 2.46094,2.46093 3.86719,6.40625 3.86719,11.60156 0,4.29687 -0.89844,8.67187 -3.98438,11.79687 -0.35156,0.3125 -0.35156,0.35157 -0.35156,0.42969 0,0.15625 0.11719,0.27344 0.27344,0.27344 0.23437,0 2.5,-1.71875 3.94531,-4.88281 1.28906,-2.73438 1.5625,-5.50782 1.5625,-7.61719 z m 0,0"
       id="path268" />
  </g>
  <path
     fill-rule="nonzero"
     fill="#000000"
     fill-opacity="1"
     d="m 261.58203,494.91032 0.50781,-4.33594 c 0.0781,-0.66406 -0.0391,-0.66406 -0.66406,-0.66406 h -12.22656 c -0.46875,0 -0.74219,0 -0.74219,0.50781 0,0.27344 0.23438,0.27344 0.70313,0.27344 0.9375,0 1.64062,0 1.64062,0.42969 0,0.11719 0,0.15625 -0.15625,0.625 l -3.28125,13.16406 c -0.23437,0.97656 -0.27344,1.17188 -2.26562,1.17188 -0.42969,0 -0.70313,0 -0.70313,0.46875 0,0.3125 0.3125,0.3125 0.39063,0.3125 l 3.28125,-0.0781 3.71093,0.0781 c 0.23438,0 0.50782,0 0.50782,-0.46875 0,-0.19532 -0.11719,-0.27344 -0.11719,-0.27344 -0.0781,-0.0391 -0.15625,-0.0391 -0.70313,-0.0391 -0.54687,0 -0.66406,0 -1.28906,-0.0391 -0.74219,-0.0781 -0.82031,-0.19531 -0.82031,-0.50781 0,0 0,-0.19531 0.11719,-0.54687 l 1.52343,-6.21087 h 2.42188 c 1.875,0 2.07031,0.39062 2.07031,1.09375 0,0.19531 0,0.46875 -0.15625,1.25 -0.0781,0.11719 -0.0781,0.27344 -0.0781,0.27344 0,0.19531 0.15625,0.27343 0.27343,0.27343 0.27344,0 0.27344,-0.0781 0.39063,-0.50781 l 1.36719,-5.42969 c 0.0781,-0.27343 0.0781,-0.3125 0.0781,-0.39062 0,0 -0.0391,-0.27344 -0.3125,-0.27344 -0.23437,0 -0.27344,0.11719 -0.35156,0.54688 -0.54688,1.91406 -1.09375,2.38281 -3.24219,2.38281 h -2.26562 l 1.60156,-6.32813 c 0.23437,-0.89843 0.27344,-0.97656 1.36719,-0.97656 h 3.28125 c 3.04687,0 3.63281,0.82031 3.63281,2.73438 0,0.58593 0,0.66406 -0.0781,1.36718 -0.0391,0.3125 -0.0391,0.35157 -0.0391,0.42969 0,0.11719 0.0781,0.3125 0.3125,0.3125 0.27344,0 0.27344,-0.15625 0.3125,-0.625 z m 0,0"
     id="path272" />
  <path
     fill-rule="nonzero"
     fill="#000000"
     fill-opacity="1"
     d="m 287.82031,498.23063 c 0,-0.50781 -0.46875,-0.50781 -0.82031,-0.50781 h -14.92188 c -0.35156,0 -0.82031,0 -0.82031,0.50781 0,0.46875 0.46875,0.46875 0.82031,0.46875 h 14.88282 c 0.39062,0 0.85937,0 0.85937,-0.46875 z m 0,4.80469 c 0,-0.46875 -0.46875,-0.46875 -0.85937,-0.46875 h -14.88282 c -0.35156,0 -0.82031,0 -0.82031,0.46875 0,0.50781 0.46875,0.50781 0.82031,0.50781 H 287 c 0.35156,0 0.82031,0 0.82031,-0.50781 z m 0,0"
     id="path274" />
  <path
     fill-rule="nonzero"
     fill="#000000"
     fill-opacity="1"
     d="m 307.55469,502.60563 c 0,-2.03125 -1.60157,-3.98437 -4.17969,-4.53125 2.03125,-0.66406 3.47656,-2.38281 3.47656,-4.375 0,-2.03125 -2.1875,-3.4375 -4.57031,-3.4375 -2.5,0 -4.41016,1.48438 -4.41016,3.39844 0,0.82031 0.54688,1.28906 1.28516,1.28906 0.74219,0 1.25,-0.54687 1.25,-1.28906 0,-1.21094 -1.17188,-1.21094 -1.51953,-1.21094 0.73828,-1.25 2.3789,-1.5625 3.27734,-1.5625 1.05469,0 2.42188,0.54688 2.42188,2.77344 0,0.3125 -0.0781,1.75781 -0.70313,2.85156 -0.74219,1.21094 -1.60156,1.28907 -2.22656,1.28907 -0.19531,0.0391 -0.78125,0.0781 -0.97656,0.0781 -0.19532,0.0391 -0.35157,0.0781 -0.35157,0.3125 0,0.27344 0.15625,0.27344 0.58594,0.27344 h 1.09375 c 2.03125,0 2.96875,1.67969 2.96875,4.14062 0,3.39844 -1.71875,4.10157 -2.8125,4.10157 -1.09375,0 -2.96875,-0.42969 -3.82422,-1.875 0.85547,0.11718 1.63672,-0.42969 1.63672,-1.36719 0,-0.89844 -0.66406,-1.40625 -1.36328,-1.40625 -0.625,0 -1.40625,0.35156 -1.40625,1.44531 0,2.26563 2.30078,3.90625 5.03516,3.90625 3.04687,0 5.3125,-2.26562 5.3125,-4.80469 z m 0,0"
     id="path276" />
  <path
     fill-rule="nonzero"
     fill="#000000"
     fill-opacity="1"
     d="m 322.375,512.84001 c 0,-0.0781 0,-0.11719 -0.42969,-0.54688 -3.08594,-3.125 -3.90625,-7.85156 -3.90625,-11.67968 0,-4.33594 0.9375,-8.67188 4.02344,-11.75782 0.3125,-0.3125 0.3125,-0.35156 0.3125,-0.42968 0,-0.19532 -0.0781,-0.27344 -0.23438,-0.27344 -0.27343,0 -2.5,1.71875 -3.98437,4.88281 -1.25,2.73438 -1.5625,5.50781 -1.5625,7.57813 0,1.95312 0.27344,4.96093 1.64062,7.8125 1.52344,3.04687 3.63282,4.6875 3.90625,4.6875 0.15625,0 0.23438,-0.0781 0.23438,-0.27344 z m 0,0"
     id="path278" />
  <path
     fill-rule="nonzero"
     fill="#000000"
     fill-opacity="1"
     d="m 334.98828,502.52751 h -0.58594 c -0.15625,0.74219 -0.3125,1.83594 -0.58593,2.22656 -0.15625,0.19531 -1.79688,0.19531 -2.34375,0.19531 h -4.49219 l 2.65625,-2.57812 c 3.86719,-3.4375 5.35156,-4.76563 5.35156,-7.26563 0,-2.85156 -2.22656,-4.84375 -5.27344,-4.84375 -2.8125,0 -4.64843,2.30469 -4.64843,4.53125 0,1.36719 1.25,1.36719 1.32812,1.36719 0.42969,0 1.28906,-0.27344 1.28906,-1.32812 0,-0.625 -0.46875,-1.28907 -1.32812,-1.28907 -0.19531,0 -0.23438,0 -0.3125,0.0391 0.54687,-1.64063 1.91406,-2.53907 3.35937,-2.53907 2.26563,0 3.32032,2.03125 3.32032,4.0625 0,1.99219 -1.21094,3.94532 -2.61719,5.50782 l -4.76563,5.3125 c -0.27343,0.27343 -0.27343,0.35156 -0.27343,0.9375 h 9.25781 z m 0,0"
     id="path280" />
  <path
     fill-rule="nonzero"
     fill="#000000"
     fill-opacity="1"
     d="m 343.45703,500.61345 c 0,-1.91407 -0.27344,-4.92188 -1.64062,-7.77344 -1.48438,-3.04688 -3.63282,-4.6875 -3.86719,-4.6875 -0.15625,0 -0.27344,0.11719 -0.27344,0.27344 0,0.0781 0,0.11718 0.46875,0.58593 2.46094,2.46094 3.86719,6.40625 3.86719,11.60157 0,4.29687 -0.89844,8.67187 -3.98438,11.79687 -0.35156,0.3125 -0.35156,0.35156 -0.35156,0.42969 0,0.15625 0.11719,0.27344 0.27344,0.27344 0.23437,0 2.5,-1.71875 3.94531,-4.88282 1.28906,-2.73437 1.5625,-5.50781 1.5625,-7.61718 z m 0,0"
     id="path282" />
  <path
     fill-rule="nonzero"
     fill="#000000"
     fill-opacity="1"
     d="m 264.08984,332.66813 0.50782,-4.33593 c 0.0781,-0.66407 -0.0391,-0.66407 -0.66407,-0.66407 h -12.22656 c -0.46875,0 -0.74219,0 -0.74219,0.50782 0,0.27343 0.23438,0.27343 0.70313,0.27343 0.9375,0 1.64062,0 1.64062,0.42969 0,0.11719 0,0.15625 -0.15625,0.625 l -3.28125,13.16406 c -0.23437,0.97657 -0.27343,1.17188 -2.26562,1.17188 -0.42969,0 -0.70313,0 -0.70313,0.46875 0,0.3125 0.3125,0.3125 0.39063,0.3125 l 3.28125,-0.0781 3.71094,0.0781 c 0.23437,0 0.50781,0 0.50781,-0.46875 0,-0.19531 -0.11719,-0.27344 -0.11719,-0.27344 -0.0781,-0.0391 -0.15625,-0.0391 -0.70312,-0.0391 -0.54688,0 -0.66407,0 -1.28907,-0.0391 -0.74218,-0.0781 -0.82031,-0.19532 -0.82031,-0.50782 0,0 0,-0.19531 0.11719,-0.54687 l 1.52344,-6.21094 h 2.42187 c 1.875,0 2.07031,0.39063 2.07031,1.09375 0,0.19531 0,0.46875 -0.15625,1.25 -0.0781,0.11719 -0.0781,0.27344 -0.0781,0.27344 0,0.19531 0.15625,0.27344 0.27344,0.27344 0.27343,0 0.27343,-0.0781 0.39062,-0.50782 l 1.36719,-5.42968 c 0.0781,-0.27344 0.0781,-0.3125 0.0781,-0.39063 0,0 -0.0391,-0.27344 -0.3125,-0.27344 -0.23437,0 -0.27343,0.11719 -0.35156,0.54688 -0.54687,1.91406 -1.09375,2.38281 -3.24219,2.38281 h -2.26562 l 1.60156,-6.32812 c 0.23438,-0.89844 0.27344,-0.97657 1.36719,-0.97657 h 3.28125 c 3.04687,0 3.63281,0.82032 3.63281,2.73438 0,0.58594 0,0.66406 -0.0781,1.36719 -0.0391,0.3125 -0.0391,0.35156 -0.0391,0.42968 0,0.11719 0.0781,0.3125 0.3125,0.3125 0.27344,0 0.27344,-0.15625 0.3125,-0.625 z m 0,0"
     id="path284" />
  <path
     fill-rule="nonzero"
     fill="#000000"
     fill-opacity="1"
     d="m 270.63672,326.79313 c 0,-0.54687 -0.46875,-0.9375 -1.01563,-0.9375 -0.70312,0 -0.85937,0.54688 -0.9375,0.78125 l -2.30468,7.53907 -0.11719,0.3125 c 0,0.19531 0.54687,0.39062 0.70312,0.39062 0.11719,0 0.19532,-0.11719 0.23438,-0.27344 l 3.32031,-7.26562 c 0.0781,-0.15625 0.11719,-0.3125 0.11719,-0.54688 z m 0,0"
     id="path286" />
  <path
     fill-rule="nonzero"
     fill="#000000"
     fill-opacity="1"
     d="m 297.31641,335.98845 c 0,-0.50782 -0.46875,-0.50782 -0.82032,-0.50782 h -14.92187 c -0.35156,0 -0.82031,0 -0.82031,0.50782 0,0.46875 0.46875,0.46875 0.82031,0.46875 h 14.88281 c 0.39063,0 0.85938,0 0.85938,-0.46875 z m 0,4.80468 c 0,-0.46875 -0.46875,-0.46875 -0.85938,-0.46875 h -14.88281 c -0.35156,0 -0.82031,0 -0.82031,0.46875 0,0.50782 0.46875,0.50782 0.82031,0.50782 h 14.92187 c 0.35157,0 0.82032,0 0.82032,-0.50782 z m 0,0"
     id="path288" />
  <path
     fill-rule="nonzero"
     fill="#000000"
     fill-opacity="1"
     d="m 316.07422,344.62126 v -0.78125 h -0.78125 c -2.26563,0 -2.30469,-0.27344 -2.30469,-1.17188 v -13.98437 c 0,-0.625 0,-0.66406 -0.58594,-0.66406 -1.5625,1.60156 -3.75,1.60156 -4.53125,1.60156 v 0.78125 c 0.50782,0 1.95313,0 3.24219,-0.66406 v 12.92968 c 0,0.89844 -0.0781,1.17188 -2.30469,1.17188 h -0.78125 v 0.78125 c 0.85938,-0.0781 3.00782,-0.0781 4.02344,-0.0781 0.97656,0 3.16406,0 4.02344,0.0781 z m 0,0"
     id="path290" />
  <path
     fill-rule="nonzero"
     fill="#000000"
     fill-opacity="1"
     d="m 331.86719,350.59782 c 0,-0.0781 0,-0.11719 -0.42969,-0.54687 -3.08594,-3.125 -3.90625,-7.85157 -3.90625,-11.67969 0,-4.33594 0.9375,-8.67188 4.02344,-11.75781 0.3125,-0.3125 0.3125,-0.35157 0.3125,-0.42969 0,-0.19531 -0.0781,-0.27344 -0.23438,-0.27344 -0.27344,0 -2.5,1.71875 -3.98437,4.88281 -1.25,2.73438 -1.5625,5.50782 -1.5625,7.57813 0,1.95312 0.27343,4.96094 1.64062,7.8125 1.52344,3.04687 3.63281,4.6875 3.90625,4.6875 0.15625,0 0.23438,-0.0781 0.23438,-0.27344 z m 0,0"
     id="path292" />
  <path
     fill-rule="nonzero"
     fill="#000000"
     fill-opacity="1"
     d="m 344.75781,336.65251 c 0,-1.99219 -0.11719,-3.98438 -0.97656,-5.82031 -1.13281,-2.42188 -3.20313,-2.8125 -4.21875,-2.8125 -1.52344,0 -3.32031,0.66406 -4.375,2.96875 -0.78125,1.71875 -0.89844,3.67187 -0.89844,5.66406 0,1.875 0.0781,4.10156 1.13281,6.01562 1.05469,1.99219 2.89063,2.5 4.10157,2.5 1.32812,0 3.24218,-0.50781 4.33593,-2.89062 0.78125,-1.71875 0.89844,-3.67188 0.89844,-5.625 z m -2.03125,-0.3125 c 0,1.875 0,3.55469 -0.27344,5.15625 -0.39062,2.38281 -1.79687,3.125 -2.92968,3.125 -0.97657,0 -2.46094,-0.625 -2.89063,-3.00781 -0.27344,-1.48438 -0.27344,-3.78907 -0.27344,-5.27344 0,-1.60156 0,-3.24219 0.19532,-4.57031 0.46875,-2.96875 2.34375,-3.20313 2.96875,-3.20313 0.82031,0 2.46093,0.46875 2.92968,2.92969 0.27344,1.40625 0.27344,3.28125 0.27344,4.84375 z m 0,0"
     id="path294" />
  <g
     clip-path="url(#clip-2)"
     id="g298"
     transform="translate(0,155.77751)">
    <path
       fill-rule="nonzero"
       fill="#000000"
       fill-opacity="1"
       d="m 352.95312,182.59375 c 0,-1.91406 -0.27343,-4.92188 -1.64062,-7.77344 -1.48438,-3.04687 -3.63281,-4.6875 -3.86719,-4.6875 -0.15625,0 -0.27344,0.11719 -0.27344,0.27344 0,0.0781 0,0.11719 0.46875,0.58594 2.46094,2.46093 3.86719,6.40625 3.86719,11.60156 0,4.29687 -0.89844,8.67187 -3.98437,11.79687 -0.35157,0.3125 -0.35157,0.35157 -0.35157,0.42969 0,0.15625 0.11719,0.27344 0.27344,0.27344 0.23438,0 2.5,-1.71875 3.94531,-4.88281 1.28907,-2.73438 1.5625,-5.50782 1.5625,-7.61719 z m 0,0"
       id="path296" />
  </g>
  <path
     fill-rule="nonzero"
     fill="#000000"
     fill-opacity="1"
     d="m 264.08984,275.97673 0.50782,-4.33594 c 0.0781,-0.66406 -0.0391,-0.66406 -0.66407,-0.66406 h -12.22656 c -0.46875,0 -0.74219,0 -0.74219,0.50781 0,0.27344 0.23438,0.27344 0.70313,0.27344 0.9375,0 1.64062,0 1.64062,0.42969 0,0.11718 0,0.15625 -0.15625,0.625 l -3.28125,13.16406 c -0.23437,0.97656 -0.27343,1.17187 -2.26562,1.17187 -0.42969,0 -0.70313,0 -0.70313,0.46875 0,0.3125 0.3125,0.3125 0.39063,0.3125 l 3.28125,-0.0781 3.71094,0.0781 c 0.23437,0 0.50781,0 0.50781,-0.46875 0,-0.19531 -0.11719,-0.27343 -0.11719,-0.27343 -0.0781,-0.0391 -0.15625,-0.0391 -0.70312,-0.0391 -0.54688,0 -0.66407,0 -1.28907,-0.0391 -0.74218,-0.0781 -0.82031,-0.19531 -0.82031,-0.50781 0,0 0,-0.19531 0.11719,-0.54688 l 1.52344,-6.21093 h 2.42187 c 1.875,0 2.07031,0.39062 2.07031,1.09375 0,0.19531 0,0.46875 -0.15625,1.25 -0.0781,0.11718 -0.0781,0.27343 -0.0781,0.27343 0,0.19532 0.15625,0.27344 0.27344,0.27344 0.27343,0 0.27343,-0.0781 0.39062,-0.50781 l 1.36719,-5.42969 c 0.0781,-0.27344 0.0781,-0.3125 0.0781,-0.39062 0,0 -0.0391,-0.27344 -0.3125,-0.27344 -0.23437,0 -0.27343,0.11719 -0.35156,0.54687 -0.54687,1.91407 -1.09375,2.38282 -3.24219,2.38282 h -2.26562 l 1.60156,-6.32813 c 0.23438,-0.89844 0.27344,-0.97656 1.36719,-0.97656 h 3.28125 c 3.04687,0 3.63281,0.82031 3.63281,2.73437 0,0.58594 0,0.66407 -0.0781,1.36719 -0.0391,0.3125 -0.0391,0.35156 -0.0391,0.42969 0,0.11719 0.0781,0.3125 0.3125,0.3125 0.27344,0 0.27344,-0.15625 0.3125,-0.625 z m 0,0"
     id="path300" />
  <path
     fill-rule="nonzero"
     fill="#000000"
     fill-opacity="1"
     d="m 270.63672,270.10173 c 0,-0.54688 -0.46875,-0.9375 -1.01563,-0.9375 -0.70312,0 -0.85937,0.54687 -0.9375,0.78125 l -2.30468,7.53906 -0.11719,0.3125 c 0,0.19531 0.54687,0.39063 0.70312,0.39063 0.11719,0 0.19532,-0.11719 0.23438,-0.27344 l 3.32031,-7.26563 c 0.0781,-0.15625 0.11719,-0.3125 0.11719,-0.54687 z m 0,0"
     id="path302" />
  <path
     fill-rule="nonzero"
     fill="#000000"
     fill-opacity="1"
     d="m 297.31641,279.29704 c 0,-0.50781 -0.46875,-0.50781 -0.82032,-0.50781 h -14.92187 c -0.35156,0 -0.82031,0 -0.82031,0.50781 0,0.46875 0.46875,0.46875 0.82031,0.46875 h 14.88281 c 0.39063,0 0.85938,0 0.85938,-0.46875 z m 0,4.80469 c 0,-0.46875 -0.46875,-0.46875 -0.85938,-0.46875 h -14.88281 c -0.35156,0 -0.82031,0 -0.82031,0.46875 0,0.50781 0.46875,0.50781 0.82031,0.50781 h 14.92187 c 0.35157,0 0.82032,0 0.82032,-0.50781 z m 0,0"
     id="path304" />
  <path
     fill-rule="nonzero"
     fill="#000000"
     fill-opacity="1"
     d="m 316.81641,283.59392 h -0.58594 c -0.15625,0.74218 -0.3125,1.83593 -0.58594,2.22656 -0.15625,0.19531 -1.79687,0.19531 -2.34375,0.19531 h -4.49219 l 2.65625,-2.57812 c 3.86719,-3.4375 5.35157,-4.76563 5.35157,-7.26563 0,-2.85156 -2.22657,-4.84375 -5.27344,-4.84375 -2.8125,0 -4.64844,2.30469 -4.64844,4.53125 0,1.36719 1.25,1.36719 1.32813,1.36719 0.42968,0 1.28906,-0.27344 1.28906,-1.32813 0,-0.625 -0.46875,-1.28906 -1.32813,-1.28906 -0.19531,0 -0.23437,0 -0.3125,0.0391 0.54688,-1.64062 1.91407,-2.53906 3.35938,-2.53906 2.26562,0 3.32031,2.03125 3.32031,4.0625 0,1.99219 -1.21094,3.94531 -2.61719,5.50781 l -4.76562,5.3125 c -0.27344,0.27344 -0.27344,0.35157 -0.27344,0.9375 h 9.25781 z m 0,0"
     id="path306" />
  <path
     fill-rule="nonzero"
     fill="#000000"
     fill-opacity="1"
     d="m 331.86719,293.90642 c 0,-0.0781 0,-0.11719 -0.42969,-0.54688 -3.08594,-3.125 -3.90625,-7.85156 -3.90625,-11.67969 0,-4.33593 0.9375,-8.67187 4.02344,-11.75781 0.3125,-0.3125 0.3125,-0.35156 0.3125,-0.42969 0,-0.19531 -0.0781,-0.27343 -0.23438,-0.27343 -0.27344,0 -2.5,1.71875 -3.98437,4.88281 -1.25,2.73437 -1.5625,5.50781 -1.5625,7.57812 0,1.95313 0.27343,4.96094 1.64062,7.8125 1.52344,3.04688 3.63281,4.6875 3.90625,4.6875 0.15625,0 0.23438,-0.0781 0.23438,-0.27343 z m 0,0"
     id="path308" />
  <path
     fill-rule="nonzero"
     fill="#000000"
     fill-opacity="1"
     d="m 343.74219,287.92985 v -0.78125 h -0.78125 c -2.26563,0 -2.30469,-0.27343 -2.30469,-1.17187 v -13.98438 c 0,-0.625 0,-0.66406 -0.58594,-0.66406 -1.5625,1.60156 -3.75,1.60156 -4.53125,1.60156 v 0.78125 c 0.50781,0 1.95313,0 3.24219,-0.66406 v 12.92969 c 0,0.89844 -0.0781,1.17187 -2.30469,1.17187 h -0.78125 v 0.78125 c 0.85938,-0.0781 3.00781,-0.0781 4.02344,-0.0781 0.97656,0 3.16406,0 4.02344,0.0781 z m 0,0"
     id="path310" />
  <g
     clip-path="url(#clip-3)"
     id="g314"
     transform="translate(0,155.77751)">
    <path
       fill-rule="nonzero"
       fill="#000000"
       fill-opacity="1"
       d="m 352.95312,125.90234 c 0,-1.91406 -0.27343,-4.92187 -1.64062,-7.77343 -1.48438,-3.04688 -3.63281,-4.6875 -3.86719,-4.6875 -0.15625,0 -0.27344,0.11718 -0.27344,0.27343 0,0.0781 0,0.11719 0.46875,0.58594 2.46094,2.46094 3.86719,6.40625 3.86719,11.60156 0,4.29688 -0.89844,8.67188 -3.98437,11.79688 -0.35157,0.3125 -0.35157,0.35156 -0.35157,0.42969 0,0.15625 0.11719,0.27343 0.27344,0.27343 0.23438,0 2.5,-1.71875 3.94531,-4.88281 1.28907,-2.73437 1.5625,-5.50781 1.5625,-7.61719 z m 0,0"
       id="path312" />
  </g>
  <path
     fill-rule="nonzero"
     fill="#000000"
     fill-opacity="1"
     d="m 264.08984,219.28532 0.50782,-4.33594 c 0.0781,-0.66406 -0.0391,-0.66406 -0.66407,-0.66406 h -12.22656 c -0.46875,0 -0.74219,0 -0.74219,0.50781 0,0.27344 0.23438,0.27344 0.70313,0.27344 0.9375,0 1.64062,0 1.64062,0.42969 0,0.11719 0,0.15625 -0.15625,0.625 l -3.28125,13.16406 c -0.23437,0.97656 -0.27343,1.17188 -2.26562,1.17188 -0.42969,0 -0.70313,0 -0.70313,0.46875 0,0.3125 0.3125,0.3125 0.39063,0.3125 l 3.28125,-0.0781 3.71094,0.0781 c 0.23437,0 0.50781,0 0.50781,-0.46875 0,-0.19532 -0.11719,-0.27344 -0.11719,-0.27344 -0.0781,-0.0391 -0.15625,-0.0391 -0.70312,-0.0391 -0.54688,0 -0.66407,0 -1.28907,-0.0391 -0.74218,-0.0781 -0.82031,-0.19531 -0.82031,-0.50781 0,0 0,-0.19532 0.11719,-0.54688 l 1.52344,-6.21086 h 2.42187 c 1.875,0 2.07031,0.39062 2.07031,1.09375 0,0.19531 0,0.46875 -0.15625,1.25 -0.0781,0.11719 -0.0781,0.27344 -0.0781,0.27344 0,0.19531 0.15625,0.27343 0.27344,0.27343 0.27343,0 0.27343,-0.0781 0.39062,-0.50781 l 1.36719,-5.42969 c 0.0781,-0.27343 0.0781,-0.3125 0.0781,-0.39062 0,0 -0.0391,-0.27344 -0.3125,-0.27344 -0.23437,0 -0.27343,0.11719 -0.35156,0.54688 -0.54687,1.91406 -1.09375,2.38281 -3.24219,2.38281 h -2.26562 l 1.60156,-6.32812 c 0.23438,-0.89844 0.27344,-0.97657 1.36719,-0.97657 h 3.28125 c 3.04687,0 3.63281,0.82032 3.63281,2.73438 0,0.58593 0,0.66406 -0.0781,1.36718 -0.0391,0.3125 -0.0391,0.35157 -0.0391,0.42969 0,0.11719 0.0781,0.3125 0.3125,0.3125 0.27344,0 0.27344,-0.15625 0.3125,-0.625 z m 0,0"
     id="path316" />
  <path
     fill-rule="nonzero"
     fill="#000000"
     fill-opacity="1"
     d="m 270.63672,213.40642 c 0,-0.54688 -0.46875,-0.9375 -1.01563,-0.9375 -0.70312,0 -0.85937,0.54687 -0.9375,0.78125 l -2.30468,7.53906 -0.11719,0.3125 c 0,0.19531 0.54687,0.39062 0.70312,0.39062 0.11719,0 0.19532,-0.11718 0.23438,-0.27343 l 3.32031,-7.26563 c 0.0781,-0.15625 0.11719,-0.3125 0.11719,-0.54687 z m 0,0"
     id="path318" />
  <path
     fill-rule="nonzero"
     fill="#000000"
     fill-opacity="1"
     d="m 297.31641,222.60563 c 0,-0.50781 -0.46875,-0.50781 -0.82032,-0.50781 h -14.92187 c -0.35156,0 -0.82031,0 -0.82031,0.50781 0,0.46875 0.46875,0.46875 0.82031,0.46875 h 14.88281 c 0.39063,0 0.85938,0 0.85938,-0.46875 z m 0,4.80469 c 0,-0.46875 -0.46875,-0.46875 -0.85938,-0.46875 h -14.88281 c -0.35156,0 -0.82031,0 -0.82031,0.46875 0,0.50781 0.46875,0.50781 0.82031,0.50781 h 14.92187 c 0.35157,0 0.82032,0 0.82032,-0.50781 z m 0,0"
     id="path320" />
  <path
     fill-rule="nonzero"
     fill="#000000"
     fill-opacity="1"
     d="m 317.05078,226.98063 c 0,-2.03125 -1.60156,-3.98437 -4.17969,-4.53125 2.03125,-0.66406 3.47657,-2.38281 3.47657,-4.375 0,-2.03125 -2.1875,-3.4375 -4.57032,-3.4375 -2.5,0 -4.41406,1.48438 -4.41406,3.39844 0,0.82031 0.54688,1.28906 1.28906,1.28906 0.74219,0 1.25,-0.54687 1.25,-1.28906 0,-1.21094 -1.17187,-1.21094 -1.52343,-1.21094 0.74218,-1.24999 2.38281,-1.56249 3.28125,-1.56249 1.05468,0 2.42187,0.54687 2.42187,2.77343 0,0.3125 -0.0781,1.75781 -0.70312,2.85156 -0.74219,1.21094 -1.60157,1.28907 -2.22657,1.28907 -0.19531,0.0391 -0.78125,0.0781 -0.97656,0.0781 -0.19531,0.0391 -0.35156,0.0781 -0.35156,0.3125 0,0.27343 0.15625,0.27343 0.58594,0.27343 h 1.09375 c 2.03125,0 2.96875,1.67969 2.96875,4.14063 0,3.39844 -1.71875,4.10156 -2.8125,4.10156 -1.09375,0 -2.96875,-0.42969 -3.82813,-1.875 0.85938,0.11719 1.64063,-0.42968 1.64063,-1.36719 0,-0.89843 -0.66407,-1.40624 -1.36719,-1.40624 -0.625,0 -1.40625,0.35156 -1.40625,1.44531 0,2.26562 2.30469,3.90625 5.03906,3.90625 3.04688,0 5.3125,-2.26563 5.3125,-4.80469 z m 0,0"
     id="path322" />
  <path
     fill-rule="nonzero"
     fill="#000000"
     fill-opacity="1"
     d="m 331.86719,237.21501 c 0,-0.0781 0,-0.11719 -0.42969,-0.54688 -3.08594,-3.125 -3.90625,-7.85156 -3.90625,-11.67968 0,-4.33594 0.9375,-8.67188 4.02344,-11.75782 0.3125,-0.3125 0.3125,-0.35156 0.3125,-0.42968 0,-0.19532 -0.0781,-0.27344 -0.23438,-0.27344 -0.27344,0 -2.5,1.71875 -3.98437,4.88281 -1.25,2.73438 -1.5625,5.50781 -1.5625,7.57813 0,1.95312 0.27343,4.96093 1.64062,7.8125 1.52344,3.04687 3.63281,4.6875 3.90625,4.6875 0.15625,0 0.23438,-0.0781 0.23438,-0.27344 z m 0,0"
     id="path324" />
  <path
     fill-rule="nonzero"
     fill="#000000"
     fill-opacity="1"
     d="m 344.48437,226.90251 h -0.58593 c -0.15625,0.74219 -0.3125,1.83594 -0.58594,2.22656 -0.15625,0.19531 -1.79688,0.19531 -2.34375,0.19531 h -4.49219 l 2.65625,-2.57812 c 3.86719,-3.4375 5.35156,-4.76562 5.35156,-7.26562 0,-2.85157 -2.22656,-4.84375 -5.27343,-4.84375 -2.8125,0 -4.64844,2.30468 -4.64844,4.53125 0,1.36718 1.25,1.36718 1.32812,1.36718 0.42969,0 1.28907,-0.27343 1.28907,-1.32812 0,-0.625 -0.46875,-1.28906 -1.32813,-1.28906 -0.19531,0 -0.23437,0 -0.3125,0.0391 0.54688,-1.64063 1.91406,-2.53907 3.35938,-2.53907 2.26562,0 3.32031,2.03125 3.32031,4.0625 0,1.99219 -1.21094,3.94532 -2.61719,5.50782 l -4.76562,5.31249 c -0.27344,0.27344 -0.27344,0.35157 -0.27344,0.9375 h 9.25781 z m 0,0"
     id="path326" />
  <g
     clip-path="url(#clip-4)"
     id="g330"
     transform="translate(0,155.77751)">
    <path
       fill-rule="nonzero"
       fill="#000000"
       fill-opacity="1"
       d="m 352.95312,69.210938 c 0,-1.914063 -0.27343,-4.921875 -1.64062,-7.773438 -1.48438,-3.046875 -3.63281,-4.6875 -3.86719,-4.6875 -0.15625,0 -0.27344,0.117188 -0.27344,0.273438 0,0.07813 0,0.117187 0.46875,0.585937 2.46094,2.460938 3.86719,6.40625 3.86719,11.601563 0,4.296875 -0.89844,8.671875 -3.98437,11.796875 -0.35157,0.3125 -0.35157,0.351562 -0.35157,0.429687 0,0.15625 0.11719,0.273438 0.27344,0.273438 0.23438,0 2.5,-1.71875 3.94531,-4.882813 1.28907,-2.734375 1.5625,-5.507812 1.5625,-7.617187 z m 0,0"
       id="path328" />
  </g>
  <path
     fill-rule="nonzero"
     fill="#000000"
     fill-opacity="1"
     d="m 264.08984,162.59001 0.50782,-4.33593 c 0.0781,-0.66407 -0.0391,-0.66407 -0.66407,-0.66407 h -12.22656 c -0.46875,0 -0.74219,0 -0.74219,0.50782 0,0.27343 0.23438,0.27343 0.70313,0.27343 0.9375,0 1.64062,0 1.64062,0.42969 0,0.11719 0,0.15625 -0.15625,0.625 l -3.28125,13.16406 c -0.23437,0.97657 -0.27343,1.17188 -2.26562,1.17188 -0.42969,0 -0.70313,0 -0.70313,0.46875 0,0.3125 0.3125,0.3125 0.39063,0.3125 l 3.28125,-0.0781 3.71094,0.0781 c 0.23437,0 0.50781,0 0.50781,-0.46875 0,-0.19531 -0.11719,-0.27344 -0.11719,-0.27344 -0.0781,-0.0391 -0.15625,-0.0391 -0.70312,-0.0391 -0.54688,0 -0.66407,0 -1.28907,-0.0391 -0.74218,-0.0781 -0.82031,-0.19531 -0.82031,-0.50781 0,0 0,-0.19531 0.11719,-0.54688 l 1.52344,-6.21093 h 2.42187 c 1.875,0 2.07031,0.39062 2.07031,1.09375 0,0.19531 0,0.46875 -0.15625,1.25 -0.0781,0.11718 -0.0781,0.27343 -0.0781,0.27343 0,0.19532 0.15625,0.27344 0.27344,0.27344 0.27343,0 0.27343,-0.0781 0.39062,-0.50781 l 1.36719,-5.42969 c 0.0781,-0.27344 0.0781,-0.3125 0.0781,-0.39062 0,0 -0.0391,-0.27344 -0.3125,-0.27344 -0.23437,0 -0.27343,0.11719 -0.35156,0.54687 -0.54687,1.91407 -1.09375,2.38282 -3.24219,2.38282 h -2.26562 l 1.60156,-6.32813 c 0.23438,-0.89844 0.27344,-0.97656 1.36719,-0.97656 h 3.28125 c 3.04687,0 3.63281,0.82031 3.63281,2.73437 0,0.58594 0,0.66407 -0.0781,1.36719 -0.0391,0.3125 -0.0391,0.35156 -0.0391,0.42969 0,0.11719 0.0781,0.3125 0.3125,0.3125 0.27344,0 0.27344,-0.15625 0.3125,-0.625 z m 0,0"
     id="path332" />
  <path
     fill-rule="nonzero"
     fill="#000000"
     fill-opacity="1"
     d="m 270.63672,156.71501 c 0,-0.54687 -0.46875,-0.9375 -1.01563,-0.9375 -0.70312,0 -0.85937,0.54688 -0.9375,0.78125 l -2.30468,7.53907 -0.11719,0.3125 c 0,0.19531 0.54687,0.39062 0.70312,0.39062 0.11719,0 0.19532,-0.11719 0.23438,-0.27344 l 3.32031,-7.26562 c 0.0781,-0.15625 0.11719,-0.3125 0.11719,-0.54688 z m 0,0"
     id="path334" />
  <path
     fill-rule="nonzero"
     fill="#000000"
     fill-opacity="1"
     d="m 297.31641,165.91033 c 0,-0.50782 -0.46875,-0.50782 -0.82032,-0.50782 h -14.92187 c -0.35156,0 -0.82031,0 -0.82031,0.50782 0,0.46875 0.46875,0.46875 0.82031,0.46875 h 14.88281 c 0.39063,0 0.85938,0 0.85938,-0.46875 z m 0,4.80468 c 0,-0.46875 -0.46875,-0.46875 -0.85938,-0.46875 h -14.88281 c -0.35156,0 -0.82031,0 -0.82031,0.46875 0,0.50782 0.46875,0.50782 0.82031,0.50782 h 14.92187 c 0.35157,0 0.82032,0 0.82032,-0.50782 z m 0,0"
     id="path336" />
  <path
     fill-rule="nonzero"
     fill="#000000"
     fill-opacity="1"
     d="m 317.36328,170.44158 v -0.78125 h -2.46094 V 158.3322 c 0,-0.50781 0,-0.66406 -0.42968,-0.66406 -0.19532,0 -0.27344,0 -0.46875,0.3125 l -7.65625,11.67969 v 0.78125 h 6.64062 v 2.14843 c 0,0.89844 -0.0781,1.17188 -1.91406,1.17188 h -0.50781 v 0.78125 c 1.01562,-0.0781 2.30468,-0.0781 3.35937,-0.0781 1.05469,0 2.34375,0 3.39844,0.0781 v -0.78125 h -0.54688 c -1.83593,0 -1.875,-0.27344 -1.875,-1.17188 v -2.14843 z m -4.25781,-0.78125 h -6.05469 l 6.05469,-9.29688 z m 0,0"
     id="path338" />
  <path
     fill-rule="nonzero"
     fill="#000000"
     fill-opacity="1"
     d="m 331.86719,180.5197 c 0,-0.0781 0,-0.11719 -0.42969,-0.54687 -3.08594,-3.125 -3.90625,-7.85157 -3.90625,-11.67969 0,-4.33594 0.9375,-8.67188 4.02344,-11.75781 0.3125,-0.3125 0.3125,-0.35157 0.3125,-0.42969 0,-0.19531 -0.0781,-0.27344 -0.23438,-0.27344 -0.27344,0 -2.5,1.71875 -3.98437,4.88281 -1.25,2.73438 -1.5625,5.50782 -1.5625,7.57813 0,1.95312 0.27343,4.96094 1.64062,7.8125 1.52344,3.04687 3.63281,4.6875 3.90625,4.6875 0.15625,0 0.23438,-0.0781 0.23438,-0.27344 z m 0,0"
     id="path340" />
  <path
     fill-rule="nonzero"
     fill="#000000"
     fill-opacity="1"
     d="m 344.71875,170.28533 c 0,-2.03125 -1.60156,-3.98438 -4.17969,-4.53125 2.03125,-0.66407 3.47656,-2.38282 3.47656,-4.375 0,-2.03125 -2.1875,-3.4375 -4.57031,-3.4375 -2.5,0 -4.41406,1.48437 -4.41406,3.39843 0,0.82032 0.54687,1.28907 1.28906,1.28907 0.74219,0 1.25,-0.54688 1.25,-1.28907 0,-1.21093 -1.17187,-1.21093 -1.52344,-1.21093 0.74219,-1.25 2.38282,-1.5625 3.28125,-1.5625 1.05469,0 2.42188,0.54687 2.42188,2.77343 0,0.3125 -0.0781,1.75782 -0.70313,2.85157 -0.74218,1.21093 -1.60156,1.28906 -2.22656,1.28906 -0.19531,0.0391 -0.78125,0.0781 -0.97656,0.0781 -0.19531,0.0391 -0.35156,0.0781 -0.35156,0.3125 0,0.27344 0.15625,0.27344 0.58593,0.27344 h 1.09375 c 2.03125,0 2.96875,1.67968 2.96875,4.14062 0,3.39844 -1.71875,4.10156 -2.8125,4.10156 -1.09375,0 -2.96875,-0.42968 -3.82812,-1.875 0.85937,0.11719 1.64062,-0.42968 1.64062,-1.36718 0,-0.89844 -0.66406,-1.40625 -1.36718,-1.40625 -0.625,0 -1.40625,0.35156 -1.40625,1.44531 0,2.26562 2.30468,3.90625 5.03906,3.90625 3.04687,0 5.3125,-2.26563 5.3125,-4.80469 z m 0,0"
     id="path342" />
  <g
     clip-path="url(#clip-5)"
     id="g346"
     transform="translate(0,155.77751)">
    <path
       fill-rule="nonzero"
       fill="#000000"
       fill-opacity="1"
       d="m 352.95312,12.515625 c 0,-1.914062 -0.27343,-4.921875 -1.64062,-7.773437 -1.48438,-3.046875 -3.63281,-4.6875005 -3.86719,-4.6875005 -0.15625,0 -0.27344,0.1171875 -0.27344,0.2734375 0,0.078125 0,0.117188 0.46875,0.585938 2.46094,2.460937 3.86719,6.40625 3.86719,11.601562 0,4.296875 -0.89844,8.671875 -3.98437,11.796875 -0.35157,0.3125 -0.35157,0.351563 -0.35157,0.429688 0,0.15625 0.11719,0.273437 0.27344,0.273437 0.23438,0 2.5,-1.71875 3.94531,-4.882812 1.28907,-2.734375 1.5625,-5.507813 1.5625,-7.617188 z m 0,0"
       id="path344" />
  </g>
  <path
     fill="none"
     stroke-width="1.98425"
     stroke-linecap="round"
     stroke-linejoin="miter"
     stroke="#000000"
     stroke-opacity="1"
     stroke-miterlimit="4"
     d="M 231.78477,12.3322 H 82.930893"
     id="path1" />
  <g
     ns1:version="1.10.2"
     ns1:texconverter="pdflatex"
     ns1:pdfconverter="inkscape"
     ns1:text="$n\\mathrm{S}/n\\mathrm{D}$"
     ns1:preamble="C:\Users\Giovanni\AppData\Roaming\inkscape\extensions\textext\default_packages.tex"
     ns1:scale="1.0"
     ns1:alignment="middle center"
     ns1:stroke-to-path="0"
     ns1:inkscapeversion="1.3.2"
     transform="matrix(2.35186,0,0,2.4703,2.5251418,9.263625e-4)"
     id="g4637"
     ns1:jacobian_sqrt="2.410352621090947"
     style="stroke-width:0">
    <defs
       id="id-75b72083-cc9f-4fa0-8991-0d6c5ad92b16"
       style="stroke-width:0">
      <g
         id="id-a7e2e8dc-47c7-4896-bc40-c130936f5c01"
         style="stroke-width:0">
        <g
           id="id-10b48db0-2b8f-474f-bbe2-bd278cc2deca"
           style="stroke-width:0">
          <path
             d="m 0.875,-0.59375 c -0.03125,0.15625 -0.09375,0.390625 -0.09375,0.4375 0,0.171875 0.140625,0.265625 0.296875,0.265625 0.125,0 0.296875,-0.078125 0.375,-0.28125 0,-0.015625 0.125,-0.484375 0.1875,-0.734375 l 0.21875,-0.890625 C 1.90625,-2.03125 1.96875,-2.25 2.03125,-2.46875 c 0.03125,-0.171875 0.109375,-0.46875 0.125,-0.5 0.140625,-0.3125 0.671875,-1.21875 1.625,-1.21875 0.453125,0 0.53125,0.375 0.53125,0.703125 0,0.609375 -0.484375,1.890625 -0.640625,2.3125 C 3.578125,-0.9375 3.5625,-0.8125 3.5625,-0.703125 c 0,0.46875 0.359375,0.8125 0.828125,0.8125 0.9375,0 1.296875,-1.453125 1.296875,-1.53125 0,-0.109375 -0.078125,-0.109375 -0.109375,-0.109375 -0.109375,0 -0.109375,0.03125 -0.15625,0.1875 -0.203125,0.671875 -0.53125,1.234375 -1.015625,1.234375 -0.171875,0 -0.234375,-0.09375 -0.234375,-0.328125 0,-0.25 0.078125,-0.484375 0.171875,-0.703125 0.1875,-0.53125 0.609375,-1.625 0.609375,-2.203125 0,-0.65625 -0.421875,-1.0625 -1.140625,-1.0625 -0.90625,0 -1.390625,0.640625 -1.5625,0.875 -0.046875,-0.5625 -0.453125,-0.875 -0.921875,-0.875 -0.453125,0 -0.640625,0.390625 -0.734375,0.5625 C 0.421875,-3.5 0.296875,-2.90625 0.296875,-2.875 c 0,0.109375 0.09375,0.109375 0.109375,0.109375 0.109375,0 0.109375,-0.015625 0.171875,-0.234375 0.171875,-0.703125 0.375,-1.1875 0.734375,-1.1875 0.1875,0 0.296875,0.125 0.296875,0.453125 0,0.21875 -0.03125,0.328125 -0.15625,0.84375 z m 0,0"
             id="id-933f84e8-a457-462a-9710-bd4374089038"
             style="stroke-width:0" />
        </g>
        <g
           id="id-5b4db42f-f5b4-4cc7-9312-b541c6b53043"
           style="stroke-width:0">
          <path
             d="m 4.375,-7.09375 c 0.046875,-0.140625 0.046875,-0.171875 0.046875,-0.1875 0,-0.109375 -0.078125,-0.203125 -0.1875,-0.203125 -0.078125,0 -0.140625,0.03125 -0.171875,0.09375 l -3.46875,9.5 C 0.546875,2.25 0.546875,2.28125 0.546875,2.296875 0.546875,2.40625 0.640625,2.5 0.75,2.5 0.875,2.5 0.90625,2.421875 0.96875,2.25 Z m 0,0"
             id="id-e23c3e3f-4bbe-46a3-b507-4fa8abfce415"
             style="stroke-width:0" />
        </g>
        <g
           id="id-96826fc8-4eb6-48ad-b20d-07a537eae29d"
           style="stroke-width:0">
          <path
             d="m 3.484375,-3.875 -1.28125,-0.296875 c -0.625,-0.15625 -1,-0.6875 -1,-1.265625 0,-0.703125 0.53125,-1.3125 1.3125,-1.3125 1.65625,0 1.875,1.640625 1.9375,2.078125 0.015625,0.0625 0.015625,0.125 0.125,0.125 0.125,0 0.125,-0.046875 0.125,-0.234375 v -2 c 0,-0.171875 0,-0.25 -0.109375,-0.25 -0.0625,0 -0.078125,0.015625 -0.140625,0.140625 l -0.359375,0.5625 C 3.796875,-6.625 3.390625,-7.03125 2.5,-7.03125 c -1.109375,0 -1.9375,0.875 -1.9375,1.9375 0,0.828125 0.53125,1.5625 1.296875,1.828125 0.109375,0.03125 0.625,0.15625 1.328125,0.328125 0.265625,0.0625 0.5625,0.140625 0.84375,0.5 0.203125,0.265625 0.3125,0.59375 0.3125,0.921875 0,0.703125 -0.5,1.421875 -1.34375,1.421875 -0.28125,0 -1.046875,-0.046875 -1.578125,-0.53125 C 0.84375,-1.171875 0.8125,-1.796875 0.8125,-2.15625 0.796875,-2.265625 0.71875,-2.265625 0.6875,-2.265625 c -0.125,0 -0.125,0.078125 -0.125,0.25 v 2 c 0,0.171875 0,0.234375 0.109375,0.234375 0.0625,0 0.078125,-0.015625 0.140625,-0.125 0,-0.015625 0.03125,-0.046875 0.359375,-0.578125 0.3125,0.34375 0.953125,0.703125 1.84375,0.703125 1.15625,0 1.953125,-0.96875 1.953125,-2.078125 0,-0.984375 -0.65625,-1.8125 -1.484375,-2.015625 z m 0,0"
             id="id-c77ed340-daeb-48e5-8f38-102ab600a4e0"
             style="stroke-width:0" />
        </g>
        <g
           id="id-2c902447-1ffd-48fd-91e5-db1495f33e71"
           style="stroke-width:0">
          <path
             d="M 0.34375,-6.8125 V -6.5 h 0.25 c 0.765625,0 0.78125,0.109375 0.78125,0.46875 v 5.25 c 0,0.359375 -0.015625,0.46875 -0.78125,0.46875 h -0.25 V 0 H 4 C 5.671875,0 7.046875,-1.46875 7.046875,-3.34375 7.046875,-5.25 5.703125,-6.8125 4,-6.8125 Z m 2.375,6.5 C 2.25,-0.3125 2.234375,-0.375 2.234375,-0.703125 V -6.09375 C 2.234375,-6.4375 2.25,-6.5 2.71875,-6.5 h 1 c 0.625,0 1.3125,0.21875 1.8125,0.921875 0.4375,0.59375 0.515625,1.453125 0.515625,2.234375 0,1.09375 -0.1875,1.703125 -0.546875,2.1875 -0.203125,0.265625 -0.765625,0.84375 -1.765625,0.84375 z m 0,0"
             id="id-bdae3ad2-a07b-4da7-9255-e6cae6458e18"
             style="stroke-width:0" />
        </g>
      </g>
    </defs>
    <g
       fill="#000000"
       fill-opacity="1"
       id="id-9c891995-7f75-4a3c-8abf-ed9496a28794"
       transform="translate(-149.009,-127.281)"
       style="stroke-width:0">
      <g
         transform="translate(148.712,134.765)"
         id="g3865"
         style="stroke-width:0">
        <path
           d="m 0.875,-0.59375 c -0.03125,0.15625 -0.09375,0.390625 -0.09375,0.4375 0,0.171875 0.140625,0.265625 0.296875,0.265625 0.125,0 0.296875,-0.078125 0.375,-0.28125 0,-0.015625 0.125,-0.484375 0.1875,-0.734375 l 0.21875,-0.890625 C 1.90625,-2.03125 1.96875,-2.25 2.03125,-2.46875 c 0.03125,-0.171875 0.109375,-0.46875 0.125,-0.5 0.140625,-0.3125 0.671875,-1.21875 1.625,-1.21875 0.453125,0 0.53125,0.375 0.53125,0.703125 0,0.609375 -0.484375,1.890625 -0.640625,2.3125 C 3.578125,-0.9375 3.5625,-0.8125 3.5625,-0.703125 c 0,0.46875 0.359375,0.8125 0.828125,0.8125 0.9375,0 1.296875,-1.453125 1.296875,-1.53125 0,-0.109375 -0.078125,-0.109375 -0.109375,-0.109375 -0.109375,0 -0.109375,0.03125 -0.15625,0.1875 -0.203125,0.671875 -0.53125,1.234375 -1.015625,1.234375 -0.171875,0 -0.234375,-0.09375 -0.234375,-0.328125 0,-0.25 0.078125,-0.484375 0.171875,-0.703125 0.1875,-0.53125 0.609375,-1.625 0.609375,-2.203125 0,-0.65625 -0.421875,-1.0625 -1.140625,-1.0625 -0.90625,0 -1.390625,0.640625 -1.5625,0.875 -0.046875,-0.5625 -0.453125,-0.875 -0.921875,-0.875 -0.453125,0 -0.640625,0.390625 -0.734375,0.5625 C 0.421875,-3.5 0.296875,-2.90625 0.296875,-2.875 c 0,0.109375 0.09375,0.109375 0.109375,0.109375 0.109375,0 0.109375,-0.015625 0.171875,-0.234375 0.171875,-0.703125 0.375,-1.1875 0.734375,-1.1875 0.1875,0 0.296875,0.125 0.296875,0.453125 0,0.21875 -0.03125,0.328125 -0.15625,0.84375 z m 0,0"
           id="id-c5bf2222-f907-4e54-81ee-1a6c765c2bdd"
           style="stroke-width:0" />
      </g>
    </g>
    <g
       fill="#000000"
       fill-opacity="1"
       id="id-10081396-c23e-4833-96f9-5a7ef72c9bc9"
       transform="translate(-149.009,-127.281)"
       style="stroke-width:0">
      <g
         transform="translate(154.692,134.765)"
         id="g7203"
         style="stroke-width:0">
        <path
           d="m 3.484375,-3.875 -1.28125,-0.296875 c -0.625,-0.15625 -1,-0.6875 -1,-1.265625 0,-0.703125 0.53125,-1.3125 1.3125,-1.3125 1.65625,0 1.875,1.640625 1.9375,2.078125 0.015625,0.0625 0.015625,0.125 0.125,0.125 0.125,0 0.125,-0.046875 0.125,-0.234375 v -2 c 0,-0.171875 0,-0.25 -0.109375,-0.25 -0.0625,0 -0.078125,0.015625 -0.140625,0.140625 l -0.359375,0.5625 C 3.796875,-6.625 3.390625,-7.03125 2.5,-7.03125 c -1.109375,0 -1.9375,0.875 -1.9375,1.9375 0,0.828125 0.53125,1.5625 1.296875,1.828125 0.109375,0.03125 0.625,0.15625 1.328125,0.328125 0.265625,0.0625 0.5625,0.140625 0.84375,0.5 0.203125,0.265625 0.3125,0.59375 0.3125,0.921875 0,0.703125 -0.5,1.421875 -1.34375,1.421875 -0.28125,0 -1.046875,-0.046875 -1.578125,-0.53125 C 0.84375,-1.171875 0.8125,-1.796875 0.8125,-2.15625 0.796875,-2.265625 0.71875,-2.265625 0.6875,-2.265625 c -0.125,0 -0.125,0.078125 -0.125,0.25 v 2 c 0,0.171875 0,0.234375 0.109375,0.234375 0.0625,0 0.078125,-0.015625 0.140625,-0.125 0,-0.015625 0.03125,-0.046875 0.359375,-0.578125 0.3125,0.34375 0.953125,0.703125 1.84375,0.703125 1.15625,0 1.953125,-0.96875 1.953125,-2.078125 0,-0.984375 -0.65625,-1.8125 -1.484375,-2.015625 z m 0,0"
           id="id-5a653ab5-eb11-40c6-a7e6-1b53d27efae1"
           style="stroke-width:0" />
      </g>
    </g>
    <g
       fill="#000000"
       fill-opacity="1"
       id="id-9cc64261-63cc-4361-8d74-2df8f6dbca04"
       transform="translate(-149.009,-127.281)"
       style="stroke-width:0">
      <g
         transform="translate(160.227,134.765)"
         id="g7639"
         style="stroke-width:0">
        <path
           d="m 4.375,-7.09375 c 0.046875,-0.140625 0.046875,-0.171875 0.046875,-0.1875 0,-0.109375 -0.078125,-0.203125 -0.1875,-0.203125 -0.078125,0 -0.140625,0.03125 -0.171875,0.09375 l -3.46875,9.5 C 0.546875,2.25 0.546875,2.28125 0.546875,2.296875 0.546875,2.40625 0.640625,2.5 0.75,2.5 0.875,2.5 0.90625,2.421875 0.96875,2.25 Z m 0,0"
           id="id-dc52d625-16a2-441e-a924-37ada280891c"
           style="stroke-width:0" />
      </g>
      <g
         transform="translate(165.208,134.765)"
         id="g2470"
         style="stroke-width:0">
        <path
           d="m 0.875,-0.59375 c -0.03125,0.15625 -0.09375,0.390625 -0.09375,0.4375 0,0.171875 0.140625,0.265625 0.296875,0.265625 0.125,0 0.296875,-0.078125 0.375,-0.28125 0,-0.015625 0.125,-0.484375 0.1875,-0.734375 l 0.21875,-0.890625 C 1.90625,-2.03125 1.96875,-2.25 2.03125,-2.46875 c 0.03125,-0.171875 0.109375,-0.46875 0.125,-0.5 0.140625,-0.3125 0.671875,-1.21875 1.625,-1.21875 0.453125,0 0.53125,0.375 0.53125,0.703125 0,0.609375 -0.484375,1.890625 -0.640625,2.3125 C 3.578125,-0.9375 3.5625,-0.8125 3.5625,-0.703125 c 0,0.46875 0.359375,0.8125 0.828125,0.8125 0.9375,0 1.296875,-1.453125 1.296875,-1.53125 0,-0.109375 -0.078125,-0.109375 -0.109375,-0.109375 -0.109375,0 -0.109375,0.03125 -0.15625,0.1875 -0.203125,0.671875 -0.53125,1.234375 -1.015625,1.234375 -0.171875,0 -0.234375,-0.09375 -0.234375,-0.328125 0,-0.25 0.078125,-0.484375 0.171875,-0.703125 0.1875,-0.53125 0.609375,-1.625 0.609375,-2.203125 0,-0.65625 -0.421875,-1.0625 -1.140625,-1.0625 -0.90625,0 -1.390625,0.640625 -1.5625,0.875 -0.046875,-0.5625 -0.453125,-0.875 -0.921875,-0.875 -0.453125,0 -0.640625,0.390625 -0.734375,0.5625 C 0.421875,-3.5 0.296875,-2.90625 0.296875,-2.875 c 0,0.109375 0.09375,0.109375 0.109375,0.109375 0.109375,0 0.109375,-0.015625 0.171875,-0.234375 0.171875,-0.703125 0.375,-1.1875 0.734375,-1.1875 0.1875,0 0.296875,0.125 0.296875,0.453125 0,0.21875 -0.03125,0.328125 -0.15625,0.84375 z m 0,0"
           id="id-65d11ca7-e4e9-4cfe-92af-08029832f689"
           style="stroke-width:0" />
      </g>
    </g>
    <g
       fill="#000000"
       fill-opacity="1"
       id="id-b1d93317-7cc9-4967-8d36-09d3675e1da8"
       transform="translate(-149.009,-127.281)"
       style="stroke-width:0">
      <g
         transform="translate(171.188,134.765)"
         id="g2101"
         style="stroke-width:0">
        <path
           d="M 0.34375,-6.8125 V -6.5 h 0.25 c 0.765625,0 0.78125,0.109375 0.78125,0.46875 v 5.25 c 0,0.359375 -0.015625,0.46875 -0.78125,0.46875 h -0.25 V 0 H 4 C 5.671875,0 7.046875,-1.46875 7.046875,-3.34375 7.046875,-5.25 5.703125,-6.8125 4,-6.8125 Z m 2.375,6.5 C 2.25,-0.3125 2.234375,-0.375 2.234375,-0.703125 V -6.09375 C 2.234375,-6.4375 2.25,-6.5 2.71875,-6.5 h 1 c 0.625,0 1.3125,0.21875 1.8125,0.921875 0.4375,0.59375 0.515625,1.453125 0.515625,2.234375 0,1.09375 -0.1875,1.703125 -0.546875,2.1875 -0.203125,0.265625 -0.765625,0.84375 -1.765625,0.84375 z m 0,0"
           id="id-ce479253-cab3-45ba-afaf-e23b7778109b"
           style="stroke-width:0" />
      </g>
    </g>
  </g>
  <g
     id="g6"
     transform="translate(12.38477)">
    <path
       fill-rule="evenodd"
       fill="#007d00"
       fill-opacity="1"
       d="m 182.79687,38.057367 9.27735,-24.733042 9.27734,24.733042 c -5.40625,-4.495202 -13.1289,-4.495202 -18.55469,0 z m 0,0"
       id="path4"
       style="fill:#0044cc;fill-opacity:1;stroke-width:1.01562" />
    <path
       fill-rule="evenodd"
       fill="#007d00"
       fill-opacity="1"
       d="m 201.35156,142.56019 -9.27734,24.73302 -9.27735,-24.73302 c 5.40235,4.49898 13.125,4.49898 18.55469,0 z m 0,0"
       id="path5"
       style="fill:#0045cc;fill-opacity:1;stroke-width:1.01562" />
    <path
       fill="none"
       stroke-width="4.25196"
       stroke-linecap="round"
       stroke-linejoin="miter"
       stroke="#007d00"
       stroke-opacity="1"
       stroke-miterlimit="4"
       d="M 192.07421,29.447492 V 148.65925"
       id="path6"
       style="stroke:#0044cc;stroke-opacity:1" />
  </g>
  <g
     ns1:version="1.10.2"
     ns1:texconverter="pdflatex"
     ns1:pdfconverter="inkscape"
     ns1:text="Rydberg"
     ns1:preamble="C:\Users\Giovanni\AppData\Roaming\inkscape\extensions\textext\default_packages.tex"
     ns1:scale="1.0"
     ns1:alignment="middle center"
     ns1:stroke-to-path="0"
     ns1:inkscapeversion="1.3.2"
     transform="matrix(0,-2.35186,2.4703,0,169.71633,133.52993)"
     id="g21"
     ns1:jacobian_sqrt="2.410352621090947"
     style="stroke-width:0;fill:#0045cc;fill-opacity:1">
    <defs
       id="id-ff561312-25a4-44b6-8db8-2bb340e49ac3"
       style="stroke-width:0">
      <g
         id="id-5c8396bc-259b-4c97-96c3-990cb666a601"
         style="stroke-width:0">
        <g
           id="id-48346c25-883b-4a43-94e6-31a951dd2e15"
           style="stroke-width:0">
          <path
             d="M 2.234375,-3.515625 V -6.09375 c 0,-0.234375 0,-0.359375 0.21875,-0.390625 C 2.546875,-6.5 2.84375,-6.5 3.046875,-6.5 c 0.890625,0 2,0.046875 2,1.484375 0,0.6875 -0.234375,1.5 -1.703125,1.5 z m 2.109375,0.125 C 5.296875,-3.625 6.078125,-4.234375 6.078125,-5.015625 6.078125,-5.96875 4.9375,-6.8125 3.484375,-6.8125 H 0.34375 V -6.5 h 0.25 c 0.765625,0 0.78125,0.109375 0.78125,0.46875 v 5.25 c 0,0.359375 -0.015625,0.46875 -0.78125,0.46875 h -0.25 V 0 c 0.359375,-0.03125 1.078125,-0.03125 1.453125,-0.03125 0.390625,0 1.109375,0 1.46875,0.03125 v -0.3125 h -0.25 c -0.765625,0 -0.78125,-0.109375 -0.78125,-0.46875 V -3.296875 H 3.375 c 0.15625,0 0.578125,0 0.9375,0.34375 0.375,0.34375 0.375,0.65625 0.375,1.328125 0,0.640625 0,1.046875 0.40625,1.421875 0.40625,0.359375 0.953125,0.421875 1.25,0.421875 0.78125,0 0.953125,-0.8125 0.953125,-1.09375 0,-0.0625 0,-0.171875 -0.125,-0.171875 -0.109375,0 -0.109375,0.09375 -0.125,0.15625 C 6.984375,-0.171875 6.640625,0 6.390625,0 5.90625,0 5.828125,-0.515625 5.6875,-1.4375 L 5.546875,-2.234375 C 5.375,-2.875 4.890625,-3.203125 4.34375,-3.390625 Z m 0,0"
             id="id-3de37db1-8e40-4298-a1fc-59bc3636db64"
             style="stroke-width:0" />
        </g>
        <g
           id="id-25712f1c-a1aa-4142-980d-6c810cff9038"
           style="stroke-width:0">
          <path
             d="m 4.140625,-3.34375 c 0.25,-0.640625 0.765625,-0.640625 0.921875,-0.640625 v -0.3125 c -0.234375,0.015625 -0.515625,0.03125 -0.75,0.03125 -0.171875,0 -0.640625,-0.015625 -0.859375,-0.03125 v 0.3125 c 0.3125,0 0.46875,0.171875 0.46875,0.421875 0,0.109375 -0.015625,0.125 -0.0625,0.25 L 2.84375,-0.875 1.75,-3.546875 C 1.703125,-3.65625 1.6875,-3.6875 1.6875,-3.734375 c 0,-0.25 0.359375,-0.25 0.5625,-0.25 v -0.3125 c -0.265625,0.015625 -0.921875,0.03125 -1.09375,0.03125 -0.265625,0 -0.671875,-0.015625 -0.96875,-0.03125 v 0.3125 c 0.484375,0 0.671875,0 0.8125,0.34375 L 2.5,0 C 2.4375,0.125 2.296875,0.453125 2.25,0.59375 2.03125,1.140625 1.75,1.828125 1.109375,1.828125 c -0.046875,0 -0.28125,0 -0.46875,-0.1875 0.3125,-0.03125 0.390625,-0.25 0.390625,-0.421875 0,-0.25 -0.1875,-0.40625 -0.421875,-0.40625 -0.203125,0 -0.421875,0.125 -0.421875,0.421875 0,0.453125 0.421875,0.8125 0.921875,0.8125 0.625,0 1.03125,-0.578125 1.265625,-1.140625 z m 0,0"
             id="id-843ebdb2-58e4-4f49-ab1f-96d53b3fd889"
             style="stroke-width:0" />
        </g>
        <g
           id="id-ac162551-8169-4e6e-916a-f11917905f0e"
           style="stroke-width:0">
          <path
             d="m 3.78125,-0.546875 v 0.65625 L 5.25,0 v -0.3125 c -0.6875,0 -0.78125,-0.0625 -0.78125,-0.5625 V -6.921875 L 3.046875,-6.8125 V -6.5 c 0.6875,0 0.765625,0.0625 0.765625,0.5625 v 2.15625 c -0.28125,-0.359375 -0.71875,-0.625 -1.25,-0.625 -1.171875,0 -2.21875,0.984375 -2.21875,2.265625 0,1.265625 0.96875,2.25 2.109375,2.25 0.640625,0 1.078125,-0.34375 1.328125,-0.65625 z m 0,-2.671875 v 2.046875 c 0,0.171875 0,0.1875 -0.109375,0.359375 C 3.375,-0.328125 2.9375,-0.109375 2.5,-0.109375 2.046875,-0.109375 1.6875,-0.375 1.453125,-0.75 1.203125,-1.15625 1.171875,-1.71875 1.171875,-2.140625 1.171875,-2.5 1.1875,-3.09375 1.46875,-3.546875 1.6875,-3.859375 2.0625,-4.1875 2.609375,-4.1875 c 0.34375,0 0.765625,0.15625 1.0625,0.59375 0.109375,0.171875 0.109375,0.1875 0.109375,0.375 z m 0,0"
             id="id-07fdfdbb-b709-4b20-b5f3-f6e8afcbf6d2"
             style="stroke-width:0" />
        </g>
        <g
           id="id-07b3bfdf-6414-4079-92fb-cabf4a829b7d"
           style="stroke-width:0">
          <path
             d="m 1.71875,-3.765625 v -3.15625 L 0.28125,-6.8125 V -6.5 c 0.703125,0 0.78125,0.0625 0.78125,0.5625 V 0 h 0.25 c 0,-0.015625 0.078125,-0.15625 0.359375,-0.625 0.140625,0.234375 0.5625,0.734375 1.296875,0.734375 1.1875,0 2.21875,-0.984375 2.21875,-2.265625 0,-1.265625 -0.96875,-2.25 -2.109375,-2.25 -0.78125,0 -1.203125,0.46875 -1.359375,0.640625 z m 0.03125,2.625 V -3.1875 c 0,-0.1875 0,-0.203125 0.109375,-0.359375 C 2.25,-4.109375 2.796875,-4.1875 3.03125,-4.1875 c 0.453125,0 0.8125,0.265625 1.046875,0.640625 0.265625,0.40625 0.28125,0.96875 0.28125,1.390625 0,0.359375 -0.015625,0.953125 -0.296875,1.40625 -0.21875,0.3125 -0.59375,0.640625 -1.125,0.640625 -0.453125,0 -0.8125,-0.234375 -1.046875,-0.609375 C 1.75,-0.921875 1.75,-0.953125 1.75,-1.140625 Z m 0,0"
             id="id-2d410572-0744-4734-b741-a8f60bd35e99"
             style="stroke-width:0" />
        </g>
        <g
           id="id-2e10fbc6-d838-47b4-9627-0e8c6917d2c9"
           style="stroke-width:0">
          <path
             d="M 1.109375,-2.515625 C 1.171875,-4 2.015625,-4.25 2.359375,-4.25 c 1.015625,0 1.125,1.34375 1.125,1.734375 z m 0,0.21875 h 2.78125 c 0.21875,0 0.25,0 0.25,-0.21875 0,-0.984375 -0.546875,-1.953125 -1.78125,-1.953125 -1.15625,0 -2.078125,1.03125 -2.078125,2.28125 0,1.328125 1.046875,2.296875 2.1875,2.296875 C 3.6875,0.109375 4.140625,-1 4.140625,-1.1875 4.140625,-1.28125 4.0625,-1.3125 4,-1.3125 c -0.078125,0 -0.109375,0.0625 -0.125,0.140625 -0.34375,1.03125 -1.25,1.03125 -1.34375,1.03125 -0.5,0 -0.890625,-0.296875 -1.125,-0.671875 -0.296875,-0.46875 -0.296875,-1.125 -0.296875,-1.484375 z m 0,0"
             id="id-f695ebc2-ae66-4878-81a4-38ada2858dcd"
             style="stroke-width:0" />
        </g>
        <g
           id="id-1aa2ee59-776d-4767-94c7-2ef5f7b74527"
           style="stroke-width:0">
          <path
             d="M 1.671875,-3.3125 V -4.40625 L 0.28125,-4.296875 v 0.3125 c 0.703125,0 0.78125,0.0625 0.78125,0.5625 V -0.75 c 0,0.4375 -0.109375,0.4375 -0.78125,0.4375 V 0 c 0.390625,-0.015625 0.859375,-0.03125 1.140625,-0.03125 0.390625,0 0.859375,0 1.265625,0.03125 V -0.3125 H 2.46875 c -0.734375,0 -0.75,-0.109375 -0.75,-0.46875 V -2.3125 c 0,-0.984375 0.421875,-1.875 1.171875,-1.875 0.0625,0 0.09375,0 0.109375,0.015625 -0.03125,0 -0.234375,0.125 -0.234375,0.390625 0,0.265625 0.21875,0.421875 0.4375,0.421875 0.171875,0 0.421875,-0.125 0.421875,-0.4375 0,-0.3125 -0.3125,-0.609375 -0.734375,-0.609375 -0.734375,0 -1.09375,0.671875 -1.21875,1.09375 z m 0,0"
             id="id-0f10be46-9c1b-4793-9f1d-9595fd8b5bba"
             style="stroke-width:0" />
        </g>
        <g
           id="id-0bca4050-6952-427c-a760-a7055368b1d5"
           style="stroke-width:0">
          <path
             d="m 2.21875,-1.71875 c -0.875,0 -0.875,-1 -0.875,-1.21875 0,-0.265625 0.015625,-0.59375 0.15625,-0.84375 0.078125,-0.109375 0.3125,-0.390625 0.71875,-0.390625 0.859375,0 0.859375,0.984375 0.859375,1.21875 0,0.265625 0,0.59375 -0.15625,0.84375 C 2.84375,-2 2.609375,-1.71875 2.21875,-1.71875 Z M 1.0625,-1.328125 c 0,-0.03125 0,-0.265625 0.15625,-0.46875 0.390625,0.28125 0.8125,0.3125 1,0.3125 0.921875,0 1.609375,-0.6875 1.609375,-1.453125 0,-0.375 -0.15625,-0.734375 -0.40625,-0.96875 C 3.78125,-4.25 4.140625,-4.296875 4.3125,-4.296875 c 0.03125,0 0.078125,0 0.109375,0.015625 C 4.3125,-4.25 4.25,-4.140625 4.25,-4.015625 c 0,0.171875 0.140625,0.28125 0.296875,0.28125 0.09375,0 0.28125,-0.0625 0.28125,-0.296875 0,-0.171875 -0.109375,-0.484375 -0.5,-0.484375 -0.203125,0 -0.640625,0.0625 -1.0625,0.46875 C 2.84375,-4.375 2.4375,-4.40625 2.21875,-4.40625 c -0.9375,0 -1.625,0.6875 -1.625,1.453125 0,0.4375 0.21875,0.8125 0.46875,1.03125 -0.125,0.140625 -0.3125,0.46875 -0.3125,0.828125 0,0.3125 0.140625,0.6875 0.453125,0.890625 -0.609375,0.15625 -0.921875,0.59375 -0.921875,0.984375 0,0.71875 0.984375,1.265625 2.203125,1.265625 1.171875,0 2.203125,-0.5 2.203125,-1.28125 0,-0.34375 -0.125,-0.859375 -0.640625,-1.140625 -0.53125,-0.265625 -1.109375,-0.265625 -1.71875,-0.265625 -0.25,0 -0.671875,0 -0.75,-0.015625 C 1.265625,-0.703125 1.0625,-1 1.0625,-1.328125 Z M 2.5,1.828125 c -1.015625,0 -1.703125,-0.515625 -1.703125,-1.046875 0,-0.453125 0.375,-0.828125 0.8125,-0.84375 h 0.59375 c 0.859375,0 1.96875,0 1.96875,0.84375 0,0.546875 -0.703125,1.046875 -1.671875,1.046875 z m 0,0"
             id="id-760afb74-d1ff-48e0-92df-ea908743a200"
             style="stroke-width:0" />
        </g>
      </g>
    </defs>
    <g
       fill="#000000"
       fill-opacity="1"
       id="id-3cf2d4ce-9b90-49dc-b1f0-2c2bf7ac901a"
       transform="translate(-149.056,-127.843)"
       style="stroke-width:0;fill:#0045cc;fill-opacity:1">
      <g
         transform="translate(148.712,134.765)"
         id="g4703"
         style="stroke-width:0;fill:#0045cc;fill-opacity:1">
        <path
           d="M 2.234375,-3.515625 V -6.09375 c 0,-0.234375 0,-0.359375 0.21875,-0.390625 C 2.546875,-6.5 2.84375,-6.5 3.046875,-6.5 c 0.890625,0 2,0.046875 2,1.484375 0,0.6875 -0.234375,1.5 -1.703125,1.5 z m 2.109375,0.125 C 5.296875,-3.625 6.078125,-4.234375 6.078125,-5.015625 6.078125,-5.96875 4.9375,-6.8125 3.484375,-6.8125 H 0.34375 V -6.5 h 0.25 c 0.765625,0 0.78125,0.109375 0.78125,0.46875 v 5.25 c 0,0.359375 -0.015625,0.46875 -0.78125,0.46875 h -0.25 V 0 c 0.359375,-0.03125 1.078125,-0.03125 1.453125,-0.03125 0.390625,0 1.109375,0 1.46875,0.03125 v -0.3125 h -0.25 c -0.765625,0 -0.78125,-0.109375 -0.78125,-0.46875 V -3.296875 H 3.375 c 0.15625,0 0.578125,0 0.9375,0.34375 0.375,0.34375 0.375,0.65625 0.375,1.328125 0,0.640625 0,1.046875 0.40625,1.421875 0.40625,0.359375 0.953125,0.421875 1.25,0.421875 0.78125,0 0.953125,-0.8125 0.953125,-1.09375 0,-0.0625 0,-0.171875 -0.125,-0.171875 -0.109375,0 -0.109375,0.09375 -0.125,0.15625 C 6.984375,-0.171875 6.640625,0 6.390625,0 5.90625,0 5.828125,-0.515625 5.6875,-1.4375 L 5.546875,-2.234375 C 5.375,-2.875 4.890625,-3.203125 4.34375,-3.390625 Z m 0,0"
           id="id-f381ce83-fc41-4aa8-a2b2-b057b214c7a8"
           style="stroke-width:0;fill:#0045cc;fill-opacity:1" />
      </g>
      <g
         transform="translate(156.045,134.765)"
         id="g9214"
         style="stroke-width:0;fill:#0045cc;fill-opacity:1">
        <path
           d="m 4.140625,-3.34375 c 0.25,-0.640625 0.765625,-0.640625 0.921875,-0.640625 v -0.3125 c -0.234375,0.015625 -0.515625,0.03125 -0.75,0.03125 -0.171875,0 -0.640625,-0.015625 -0.859375,-0.03125 v 0.3125 c 0.3125,0 0.46875,0.171875 0.46875,0.421875 0,0.109375 -0.015625,0.125 -0.0625,0.25 L 2.84375,-0.875 1.75,-3.546875 C 1.703125,-3.65625 1.6875,-3.6875 1.6875,-3.734375 c 0,-0.25 0.359375,-0.25 0.5625,-0.25 v -0.3125 c -0.265625,0.015625 -0.921875,0.03125 -1.09375,0.03125 -0.265625,0 -0.671875,-0.015625 -0.96875,-0.03125 v 0.3125 c 0.484375,0 0.671875,0 0.8125,0.34375 L 2.5,0 C 2.4375,0.125 2.296875,0.453125 2.25,0.59375 2.03125,1.140625 1.75,1.828125 1.109375,1.828125 c -0.046875,0 -0.28125,0 -0.46875,-0.1875 0.3125,-0.03125 0.390625,-0.25 0.390625,-0.421875 0,-0.25 -0.1875,-0.40625 -0.421875,-0.40625 -0.203125,0 -0.421875,0.125 -0.421875,0.421875 0,0.453125 0.421875,0.8125 0.921875,0.8125 0.625,0 1.03125,-0.578125 1.265625,-1.140625 z m 0,0"
           id="id-5f35c0c5-7dc2-4d70-b606-91e5eca5547b"
           style="stroke-width:0;fill:#0045cc;fill-opacity:1" />
      </g>
      <g
         transform="translate(161.304,134.765)"
         id="g6512"
         style="stroke-width:0;fill:#0045cc;fill-opacity:1">
        <path
           d="m 3.78125,-0.546875 v 0.65625 L 5.25,0 v -0.3125 c -0.6875,0 -0.78125,-0.0625 -0.78125,-0.5625 V -6.921875 L 3.046875,-6.8125 V -6.5 c 0.6875,0 0.765625,0.0625 0.765625,0.5625 v 2.15625 c -0.28125,-0.359375 -0.71875,-0.625 -1.25,-0.625 -1.171875,0 -2.21875,0.984375 -2.21875,2.265625 0,1.265625 0.96875,2.25 2.109375,2.25 0.640625,0 1.078125,-0.34375 1.328125,-0.65625 z m 0,-2.671875 v 2.046875 c 0,0.171875 0,0.1875 -0.109375,0.359375 C 3.375,-0.328125 2.9375,-0.109375 2.5,-0.109375 2.046875,-0.109375 1.6875,-0.375 1.453125,-0.75 1.203125,-1.15625 1.171875,-1.71875 1.171875,-2.140625 1.171875,-2.5 1.1875,-3.09375 1.46875,-3.546875 1.6875,-3.859375 2.0625,-4.1875 2.609375,-4.1875 c 0.34375,0 0.765625,0.15625 1.0625,0.59375 0.109375,0.171875 0.109375,0.1875 0.109375,0.375 z m 0,0"
           id="id-3d7d44a1-277a-4e92-8a9e-f9452c8321b6"
           style="stroke-width:0;fill:#0045cc;fill-opacity:1" />
      </g>
      <g
         transform="translate(166.839,134.765)"
         id="g5237"
         style="stroke-width:0;fill:#0045cc;fill-opacity:1">
        <path
           d="m 1.71875,-3.765625 v -3.15625 L 0.28125,-6.8125 V -6.5 c 0.703125,0 0.78125,0.0625 0.78125,0.5625 V 0 h 0.25 c 0,-0.015625 0.078125,-0.15625 0.359375,-0.625 0.140625,0.234375 0.5625,0.734375 1.296875,0.734375 1.1875,0 2.21875,-0.984375 2.21875,-2.265625 0,-1.265625 -0.96875,-2.25 -2.109375,-2.25 -0.78125,0 -1.203125,0.46875 -1.359375,0.640625 z m 0.03125,2.625 V -3.1875 c 0,-0.1875 0,-0.203125 0.109375,-0.359375 C 2.25,-4.109375 2.796875,-4.1875 3.03125,-4.1875 c 0.453125,0 0.8125,0.265625 1.046875,0.640625 0.265625,0.40625 0.28125,0.96875 0.28125,1.390625 0,0.359375 -0.015625,0.953125 -0.296875,1.40625 -0.21875,0.3125 -0.59375,0.640625 -1.125,0.640625 -0.453125,0 -0.8125,-0.234375 -1.046875,-0.609375 C 1.75,-0.921875 1.75,-0.953125 1.75,-1.140625 Z m 0,0"
           id="id-7c78e1ee-cf08-427a-aad5-953224584950"
           style="stroke-width:0;fill:#0045cc;fill-opacity:1" />
      </g>
    </g>
    <g
       fill="#000000"
       fill-opacity="1"
       id="id-49476846-1b6e-4276-a60a-d47a368f996b"
       transform="translate(-149.056,-127.843)"
       style="stroke-width:0;fill:#0045cc;fill-opacity:1">
      <g
         transform="translate(172.653,134.765)"
         id="g5120"
         style="stroke-width:0;fill:#0045cc;fill-opacity:1">
        <path
           d="M 1.109375,-2.515625 C 1.171875,-4 2.015625,-4.25 2.359375,-4.25 c 1.015625,0 1.125,1.34375 1.125,1.734375 z m 0,0.21875 h 2.78125 c 0.21875,0 0.25,0 0.25,-0.21875 0,-0.984375 -0.546875,-1.953125 -1.78125,-1.953125 -1.15625,0 -2.078125,1.03125 -2.078125,2.28125 0,1.328125 1.046875,2.296875 2.1875,2.296875 C 3.6875,0.109375 4.140625,-1 4.140625,-1.1875 4.140625,-1.28125 4.0625,-1.3125 4,-1.3125 c -0.078125,0 -0.109375,0.0625 -0.125,0.140625 -0.34375,1.03125 -1.25,1.03125 -1.34375,1.03125 -0.5,0 -0.890625,-0.296875 -1.125,-0.671875 -0.296875,-0.46875 -0.296875,-1.125 -0.296875,-1.484375 z m 0,0"
           id="id-dd7ae110-677a-4652-ac80-139825c9090b"
           style="stroke-width:0;fill:#0045cc;fill-opacity:1" />
      </g>
      <g
         transform="translate(177.081,134.765)"
         id="g6678"
         style="stroke-width:0;fill:#0045cc;fill-opacity:1">
        <path
           d="M 1.671875,-3.3125 V -4.40625 L 0.28125,-4.296875 v 0.3125 c 0.703125,0 0.78125,0.0625 0.78125,0.5625 V -0.75 c 0,0.4375 -0.109375,0.4375 -0.78125,0.4375 V 0 c 0.390625,-0.015625 0.859375,-0.03125 1.140625,-0.03125 0.390625,0 0.859375,0 1.265625,0.03125 V -0.3125 H 2.46875 c -0.734375,0 -0.75,-0.109375 -0.75,-0.46875 V -2.3125 c 0,-0.984375 0.421875,-1.875 1.171875,-1.875 0.0625,0 0.09375,0 0.109375,0.015625 -0.03125,0 -0.234375,0.125 -0.234375,0.390625 0,0.265625 0.21875,0.421875 0.4375,0.421875 0.171875,0 0.421875,-0.125 0.421875,-0.4375 0,-0.3125 -0.3125,-0.609375 -0.734375,-0.609375 -0.734375,0 -1.09375,0.671875 -1.21875,1.09375 z m 0,0"
           id="id-c569f006-2e9e-4f1c-967a-ba2190876e3e"
           style="stroke-width:0;fill:#0045cc;fill-opacity:1" />
      </g>
      <g
         transform="translate(180.983,134.765)"
         id="g9252"
         style="stroke-width:0;fill:#0045cc;fill-opacity:1">
        <path
           d="m 2.21875,-1.71875 c -0.875,0 -0.875,-1 -0.875,-1.21875 0,-0.265625 0.015625,-0.59375 0.15625,-0.84375 0.078125,-0.109375 0.3125,-0.390625 0.71875,-0.390625 0.859375,0 0.859375,0.984375 0.859375,1.21875 0,0.265625 0,0.59375 -0.15625,0.84375 C 2.84375,-2 2.609375,-1.71875 2.21875,-1.71875 Z M 1.0625,-1.328125 c 0,-0.03125 0,-0.265625 0.15625,-0.46875 0.390625,0.28125 0.8125,0.3125 1,0.3125 0.921875,0 1.609375,-0.6875 1.609375,-1.453125 0,-0.375 -0.15625,-0.734375 -0.40625,-0.96875 C 3.78125,-4.25 4.140625,-4.296875 4.3125,-4.296875 c 0.03125,0 0.078125,0 0.109375,0.015625 C 4.3125,-4.25 4.25,-4.140625 4.25,-4.015625 c 0,0.171875 0.140625,0.28125 0.296875,0.28125 0.09375,0 0.28125,-0.0625 0.28125,-0.296875 0,-0.171875 -0.109375,-0.484375 -0.5,-0.484375 -0.203125,0 -0.640625,0.0625 -1.0625,0.46875 C 2.84375,-4.375 2.4375,-4.40625 2.21875,-4.40625 c -0.9375,0 -1.625,0.6875 -1.625,1.453125 0,0.4375 0.21875,0.8125 0.46875,1.03125 -0.125,0.140625 -0.3125,0.46875 -0.3125,0.828125 0,0.3125 0.140625,0.6875 0.453125,0.890625 -0.609375,0.15625 -0.921875,0.59375 -0.921875,0.984375 0,0.71875 0.984375,1.265625 2.203125,1.265625 1.171875,0 2.203125,-0.5 2.203125,-1.28125 0,-0.34375 -0.125,-0.859375 -0.640625,-1.140625 -0.53125,-0.265625 -1.109375,-0.265625 -1.71875,-0.265625 -0.25,0 -0.671875,0 -0.75,-0.015625 C 1.265625,-0.703125 1.0625,-1 1.0625,-1.328125 Z M 2.5,1.828125 c -1.015625,0 -1.703125,-0.515625 -1.703125,-1.046875 0,-0.453125 0.375,-0.828125 0.8125,-0.84375 h 0.59375 c 0.859375,0 1.96875,0 1.96875,0.84375 0,0.546875 -0.703125,1.046875 -1.671875,1.046875 z m 0,0"
           id="id-8e322f25-634a-49b7-9c9b-16e3b4ca4228"
           style="stroke-width:0;fill:#0045cc;fill-opacity:1" />
      </g>
    </g>
  </g>
</svg>
